<svg width="113" height="34" viewBox="0 0 113 34" fill="none" xmlns="http://www.w3.org/2000/svg">
<g clip-path="url(#clip0_1_805)">
<path d="M37.5234 19.981C38.1909 19.9062 38.6079 19.7773 38.7744 19.5941C38.9408 19.411 39.0243 18.934 39.0249 18.1632V10.413C39.0249 9.77199 38.9317 9.35529 38.7452 9.16287C38.5587 8.97046 38.1514 8.85107 37.5234 8.80471V8.47262H42.348V8.80557C41.7233 8.85136 41.3169 8.97075 41.1287 9.16374C40.9405 9.35674 40.8467 9.77373 40.8473 10.4147V13.9043H46.1009V10.4147C46.1009 9.77315 46.0091 9.35616 45.8255 9.16374C45.6419 8.97133 45.2332 8.85194 44.5994 8.80557V8.47262H49.4214V8.80471C48.7922 8.85165 48.3849 8.97104 48.1996 9.16287C48.0143 9.35471 47.9213 9.77141 47.9208 10.413V18.3736C47.9208 19.0221 48.0137 19.4376 48.1996 19.6202C48.3855 19.8028 48.7928 19.923 49.4214 19.981V20.3131H44.5994V19.9801C45.2721 19.9106 45.6905 19.7825 45.8547 19.5959C46.0188 19.4092 46.1009 18.9291 46.1009 18.1554V14.6649H40.8473V18.3657C40.8473 19.0177 40.9411 19.4365 41.1287 19.6219C41.3164 19.8074 41.7228 19.9268 42.348 19.9801V20.3131H37.5234V19.981Z" fill="#EC1F26"/>
<path d="M52.6407 12.2751V17.845C52.6407 18.2397 52.6947 18.5561 52.8028 18.7943C53.0151 19.2348 53.4035 19.4553 53.968 19.4559C54.3788 19.448 54.7769 19.3109 55.1075 19.0638C55.3462 18.8927 55.562 18.6907 55.7493 18.4631V13.6939C55.7493 13.247 55.6635 12.9538 55.4919 12.8141C55.3203 12.6744 54.977 12.5904 54.4622 12.562V12.2751H57.2499V18.4023C57.2499 18.7969 57.3177 19.0682 57.455 19.216C57.5923 19.3637 57.884 19.4298 58.3216 19.4124V19.6063C58.0093 19.6932 57.7785 19.7576 57.6352 19.801C57.4919 19.8445 57.2396 19.9227 56.8921 20.0384C56.7446 20.0905 56.4205 20.2145 55.92 20.4104C55.9081 20.4117 55.8962 20.4084 55.8867 20.4011C55.8771 20.3939 55.8706 20.3832 55.8685 20.3713C55.8627 20.3412 55.8598 20.3107 55.8599 20.28V18.8787C55.5486 19.2734 55.1887 19.6264 54.7891 19.9288C54.3377 20.2642 53.7933 20.4467 53.2336 20.4504C52.7325 20.4504 52.2603 20.2693 51.817 19.9071C51.3737 19.5449 51.1472 18.947 51.1375 18.1136V13.6487C51.1375 13.185 51.0425 12.8767 50.8526 12.7237C50.7299 12.6263 50.4673 12.5568 50.0658 12.5168V12.2734L52.6407 12.2751Z" fill="#EC1F26"/>
<path d="M58.9659 20.087C59.4304 20.0465 59.7402 19.9708 59.8952 19.8601C60.1326 19.6926 60.2515 19.3562 60.2521 18.8508V14.3563C60.2521 13.8973 60.1926 13.5962 60.0736 13.4531C59.9547 13.3099 59.757 13.2386 59.4808 13.2392C59.305 13.23 59.1293 13.2597 58.9659 13.3262V13.0506L59.5811 12.8428C59.8036 12.7675 60.1683 12.6318 60.6751 12.4359C61.1819 12.2401 61.4499 12.1418 61.4791 12.1412C61.4915 12.1403 61.5039 12.1443 61.5135 12.1524C61.5231 12.1605 61.5292 12.1721 61.5305 12.1847C61.5377 12.2392 61.5405 12.2941 61.5391 12.349V13.5183C62.1111 12.9932 62.6033 12.6301 63.0158 12.429C63.4135 12.2315 63.8504 12.1283 64.2933 12.1273C64.8859 12.1273 65.3581 12.3302 65.7099 12.7359C65.9175 13.0042 66.0727 13.3102 66.1672 13.6374C66.5053 13.276 66.8791 12.9506 67.2826 12.6663C67.8301 12.3047 68.3886 12.1239 68.9583 12.1239C69.885 12.1239 70.5039 12.5058 70.8151 13.2696C70.9935 13.702 71.0828 14.3844 71.0828 15.317V18.9517C71.0828 19.3637 71.1757 19.6437 71.3616 19.7915C71.5478 19.9401 71.8842 20.0366 72.3689 20.0836V20.3096H68.5079V20.0662C68.9892 20.0192 69.3058 19.9184 69.4586 19.761C69.6113 19.6037 69.6868 19.2855 69.6868 18.8048V15.0275C69.6868 14.463 69.6267 14.0471 69.5066 13.78C69.2938 13.303 68.8774 13.0645 68.2573 13.0645C67.8584 13.073 67.4714 13.2037 67.1471 13.4392C66.8647 13.6452 66.6024 13.8781 66.3637 14.1346V18.6222C66.3637 19.0916 66.4455 19.4484 66.6091 19.6924C66.7727 19.9363 67.1196 20.0662 67.6499 20.0818V20.3078H63.6833V20.0818C64.2376 20.0123 64.5905 19.8787 64.7421 19.6811C64.8937 19.4834 64.9695 18.996 64.9695 18.2188V15.7716C64.9695 14.8727 64.9122 14.254 64.7978 13.9156C64.6074 13.343 64.2032 13.0567 63.5855 13.0567C63.2199 13.0604 62.8618 13.1617 62.5473 13.3505C62.2039 13.5487 61.8989 13.8085 61.6472 14.1173V18.9117C61.6472 19.3527 61.7204 19.6573 61.8669 19.8254C62.0133 19.9934 62.3331 20.0804 62.8261 20.0862V20.3122H58.9651L58.9659 20.087Z" fill="#EC1F26"/>
<path d="M74.3123 16.468C74.8271 16.126 75.8584 15.6624 77.4063 15.077V14.2677C77.4063 13.6881 77.3491 13.2853 77.2347 13.0593C77.0442 12.6791 76.6495 12.489 76.0506 12.489C75.7647 12.4893 75.4839 12.5657 75.2363 12.7107C74.9789 12.8637 74.8502 13.0735 74.8502 13.3401C74.8553 13.4569 74.8693 13.5732 74.8923 13.6878C74.9127 13.7903 74.9268 13.8939 74.9343 13.9982C74.9343 14.3163 74.8305 14.5372 74.6237 14.6623C74.4964 14.738 74.3509 14.7763 74.2033 14.7727C74.0942 14.7792 73.985 14.7599 73.8845 14.7163C73.784 14.6727 73.6949 14.606 73.6241 14.5215C73.4938 14.3659 73.4224 14.1684 73.4225 13.9643C73.4225 13.5678 73.6648 13.1526 74.1492 12.7185C74.6337 12.2844 75.343 12.0673 76.2771 12.0673C77.3639 12.0673 78.0998 12.4246 78.4848 13.1392C78.6918 13.5305 78.7954 14.1005 78.7954 14.8492V18.3796C78.7954 18.7112 78.818 18.9398 78.8632 19.0656C78.8888 19.1667 78.9486 19.2555 79.0321 19.3167C79.1156 19.3778 79.2177 19.4074 79.3205 19.4003C79.4309 19.4046 79.5408 19.3838 79.6422 19.3394C79.7965 19.2546 79.9437 19.1572 80.0824 19.0482V19.4733C79.9153 19.6828 79.7194 19.8669 79.5007 20.0201C79.2202 20.2244 78.8851 20.3375 78.5397 20.3444C78.157 20.3444 77.8802 20.2192 77.7091 19.9688C77.5333 19.7028 77.4354 19.3917 77.4269 19.0716C77.0863 19.3818 76.72 19.6616 76.332 19.908C75.8207 20.2145 75.3344 20.3681 74.8734 20.3687C74.6405 20.3709 74.4095 20.3262 74.1939 20.2371C73.9782 20.148 73.7822 20.0163 73.6173 19.8497C73.4429 19.6812 73.3054 19.4774 73.2139 19.2515C73.1224 19.0257 73.0789 18.7828 73.0862 18.5387C73.089 17.7129 73.4977 17.0226 74.3123 16.468ZM77.4063 15.4604C76.8374 15.6412 76.2906 15.8865 75.776 16.1915C74.9512 16.7079 74.5391 17.2938 74.5396 17.9493C74.5396 18.4779 74.7112 18.8668 75.0544 19.116C75.2715 19.2759 75.5334 19.3612 75.8018 19.3594C76.1858 19.3576 76.5616 19.2464 76.8863 19.0386C77.2329 18.8242 77.4063 18.5515 77.4063 18.2206V15.4604Z" fill="#EC1F26"/>
<path d="M88.6737 8.5439C89.3464 8.73574 89.7228 8.83194 89.8028 8.83252C89.9708 8.83196 90.1353 8.78345 90.2773 8.69256C90.4316 8.59292 90.5427 8.4375 90.5879 8.25789H90.9586L91.1207 12.2751H90.7158C90.4801 11.4771 90.1724 10.8332 89.7925 10.3434C89.0684 9.42368 88.094 8.9635 86.8693 8.96292C85.6326 8.96292 84.6222 9.45816 83.8379 10.4486C83.0537 11.4391 82.6613 12.8011 82.6608 14.5345C82.6608 16.1307 83.0735 17.4057 83.8989 18.3597C84.7243 19.3136 85.769 19.7897 87.0332 19.788C87.9185 19.7957 88.7901 19.5665 89.56 19.1238C90.0901 18.807 90.5799 18.4257 91.0186 17.9884L91.3464 18.3205C90.7828 19.0279 90.0712 19.5997 89.263 19.9944C88.4547 20.3892 87.57 20.5972 86.6728 20.6034C84.7755 20.6034 83.2691 19.9888 82.1537 18.7595C81.1241 17.6242 80.6093 16.206 80.6093 14.505C80.6093 12.7628 81.1527 11.3006 82.2395 10.1183C83.3841 8.8786 84.8733 8.25876 86.7071 8.25876C87.3725 8.26165 88.0342 8.35761 88.6737 8.5439Z" fill="#05133A"/>
<path d="M93.9324 16.468C94.4472 16.126 95.4768 15.6624 97.0212 15.077V14.2677C97.0212 13.6881 96.964 13.2853 96.8496 13.0593C96.6597 12.6791 96.2653 12.4893 95.6664 12.4898C95.3806 12.4895 95.0997 12.5657 94.8522 12.7107C94.5948 12.8637 94.4661 13.0735 94.4661 13.3401C94.4711 13.4569 94.4852 13.5732 94.5081 13.6878C94.5294 13.7896 94.5443 13.8927 94.5527 13.9964C94.5527 14.3146 94.4489 14.5354 94.2421 14.6606C94.1149 14.7363 93.9693 14.7745 93.8217 14.771C93.7126 14.7775 93.6034 14.7581 93.5029 14.7145C93.4024 14.6709 93.3133 14.6043 93.2426 14.5198C93.1128 14.3638 93.0417 14.1665 93.0418 13.9625C93.0418 13.5661 93.2837 13.1508 93.7677 12.7167C94.2516 12.2827 94.9609 12.0656 95.8955 12.0656C96.9823 12.0656 97.7182 12.4229 98.1032 13.1375C98.3108 13.5287 98.4144 14.0987 98.4138 14.8475V18.3779C98.4138 18.7091 98.437 18.9378 98.4816 19.0638C98.5073 19.1649 98.5672 19.2536 98.6507 19.3147C98.7342 19.3759 98.8361 19.4055 98.9389 19.3985C99.0492 19.4022 99.1589 19.3818 99.2606 19.3385C99.4148 19.2531 99.5619 19.1554 99.7008 19.0464V19.4733C99.5341 19.683 99.3381 19.8669 99.1191 20.0192C98.8383 20.224 98.5023 20.3369 98.1564 20.3426C97.7749 20.3426 97.4983 20.2174 97.3267 19.9671C97.1501 19.7014 97.0521 19.3901 97.0444 19.0699C96.7035 19.3802 96.3369 19.6603 95.9487 19.9071C95.4374 20.2137 94.9511 20.3673 94.4901 20.3678C94.2575 20.3705 94.0267 20.3262 93.8112 20.2375C93.5957 20.1489 93.3998 20.0176 93.2348 19.8514C93.0604 19.683 92.923 19.4791 92.8315 19.2533C92.74 19.0274 92.6964 18.7845 92.7037 18.5405C92.7083 17.7134 93.1179 17.0226 93.9324 16.468ZM96.9183 15.4604C96.3494 15.641 95.8025 15.8863 95.2881 16.1915C94.4638 16.7079 94.0514 17.2938 94.0508 17.9493C94.0508 18.4779 94.2224 18.8668 94.5656 19.116C94.7825 19.2763 95.0445 19.3616 95.3129 19.3594C95.6979 19.3572 96.0745 19.2458 96.4 19.0377C96.7432 18.8233 96.9148 18.5506 96.9148 18.2197L96.9183 15.4604Z" fill="#05133A"/>
<path d="M99.8133 20.0262C100.332 19.9792 100.675 19.8848 100.843 19.7428C101.01 19.6008 101.096 19.2977 101.1 18.8334V14.8918C101.1 14.3065 101.047 13.8883 100.939 13.6374C100.893 13.5191 100.811 13.4188 100.704 13.3511C100.598 13.2834 100.473 13.2518 100.348 13.261C100.27 13.2625 100.193 13.2698 100.116 13.2827C100.019 13.2975 99.9188 13.3166 99.8141 13.3401V13.0862L100.856 12.715C101.212 12.589 101.456 12.4985 101.595 12.4438C101.892 12.3279 102.198 12.198 102.513 12.0543C102.554 12.0543 102.579 12.07 102.588 12.0995C102.6 12.1622 102.605 12.2261 102.602 12.2899V13.7278C102.602 13.7278 103.26 12.8089 103.601 12.5185C103.943 12.2282 104.297 12.0839 104.665 12.0839C104.796 12.0783 104.926 12.0989 105.049 12.1446C105.172 12.1902 105.284 12.26 105.38 12.3499C105.545 12.5146 105.643 12.7357 105.655 12.97C105.667 13.2042 105.592 13.4345 105.445 13.6156C105.381 13.6937 105.3 13.7561 105.208 13.7984C105.117 13.8407 105.017 13.8617 104.917 13.8599C104.699 13.8599 104.481 13.7582 104.26 13.5548C104.04 13.3514 103.867 13.2499 103.74 13.2505C103.54 13.2505 103.293 13.4145 103.002 13.7426C102.709 14.0703 102.602 14.7562 102.602 14.7562V18.7126C102.602 19.2116 102.716 19.5593 102.945 19.7558C103.174 19.9523 103.558 20.0439 104.099 20.0305V20.3174H99.809L99.8133 20.0262Z" fill="#05133A"/>
<path d="M111.746 13.0184C112.353 13.5841 112.657 14.3862 112.657 15.4248H107.202C107.259 16.7676 107.559 17.7462 108.103 18.3605C108.647 18.9749 109.292 19.2817 110.036 19.2812C110.638 19.2812 111.144 19.1218 111.557 18.803C111.969 18.4843 112.35 18.0328 112.699 17.4486L113 17.5529C112.765 18.2913 112.325 18.974 111.681 19.6011C111.037 20.2282 110.248 20.542 109.315 20.5426C108.238 20.5426 107.406 20.1308 106.819 19.3072C106.231 18.4793 105.922 17.481 105.939 16.461C105.939 15.2944 106.279 14.2877 106.96 13.4409C107.642 12.5942 108.528 12.1705 109.62 12.1699C110.411 12.1612 111.173 12.4657 111.746 13.0184ZM107.627 13.5896C107.425 13.9566 107.292 14.3579 107.232 14.7736H110.855C110.791 14.1941 110.683 13.7617 110.528 13.4766C110.248 12.9654 109.778 12.7101 109.119 12.7107C108.46 12.7112 107.963 13.0042 107.628 13.5896H107.627Z" fill="#05133A"/>
<path d="M42.5625 26.1498C42.7864 26.1498 42.9323 26.1133 42.9984 26.0394C43.0714 25.9489 43.1073 25.8335 43.0988 25.7169V23.1706C43.0988 23.1706 43.049 22.9263 42.9786 22.8794C42.8827 22.8284 42.7777 22.7973 42.6698 22.7881V22.5942H43.9568L45.013 25.2022H45.0576L46.1069 22.5942H47.3854V22.7333C47.2652 22.7322 47.1474 22.7676 47.0473 22.835C46.9864 22.8889 46.9564 23.0219 46.9564 23.2323V25.65C46.9564 25.8508 46.9864 25.9829 47.0473 26.0446C47.1082 26.1064 47.2189 26.142 47.3854 26.149V26.2881H45.6694V26.1863C45.7964 26.1902 45.9225 26.1624 46.0366 26.1055C46.1164 26.0568 46.1567 25.9499 46.0984 25.7856V23.1376H46.1172L44.8053 26.2881H44.656L43.3364 23.1376H43.3133V25.61C43.302 25.7504 43.3366 25.8906 43.4119 26.009C43.478 26.0959 43.6239 26.1394 43.8495 26.149V26.2881H42.5625V26.1498Z" fill="#05133A"/>
<path d="M47.6016 26.2881V26.1863C47.7357 26.1782 47.8687 26.157 47.9988 26.1229C48.0984 26.0655 48.1473 25.9594 48.1378 25.8038V23.1706C48.1473 23.0124 48.0966 22.9098 47.9928 22.8515C47.9336 22.8185 47.8264 22.7976 47.6016 22.7881V22.7011H50.7084V23.7878H50.5797C50.5128 23.4401 50.3984 23.2025 50.2365 23.075C50.0746 22.9475 49.7832 22.8834 49.3622 22.8828C49.2018 22.8828 49.0996 22.8994 49.0559 22.9341C49.0305 22.9608 49.0114 22.993 49 23.0282C48.9885 23.0634 48.9851 23.1008 48.9898 23.1376V24.379C49.2833 24.379 49.4815 24.326 49.5904 24.2095C49.6994 24.093 49.7732 23.88 49.829 23.5705H49.9594V25.417H49.829C49.7921 25.1058 49.7166 24.8867 49.6042 24.7589C49.4918 24.6311 49.2876 24.5685 48.9941 24.5685V25.8343C48.989 25.8768 48.9948 25.9199 49.0108 25.9594C49.0269 25.999 49.0528 26.0338 49.0859 26.0603C49.146 26.1003 49.2713 26.1203 49.46 26.1203C49.762 26.1333 50.0621 26.0665 50.3309 25.9264C50.5557 25.7966 50.7559 25.5543 50.9315 25.1996H51.0868L50.8611 26.2863L47.6016 26.2881Z" fill="#05133A"/>
<path d="M51.2464 26.149C51.3422 26.1477 51.4369 26.1276 51.5253 26.0898C51.5764 26.0596 51.6177 26.0151 51.6444 25.9615C51.671 25.908 51.6818 25.8478 51.6754 25.7882V23.0932C51.6809 23.0357 51.6706 22.9777 51.6454 22.9258C51.6202 22.8739 51.5813 22.8301 51.533 22.7994C51.4427 22.7584 51.3453 22.736 51.2464 22.7333V22.5942H52.8166C53.4503 22.5942 53.9337 22.7739 54.2666 23.1332C54.5692 23.4607 54.7205 23.9003 54.7205 24.452C54.7323 24.9144 54.569 25.3639 54.264 25.7082C53.9208 26.0942 53.4561 26.2875 52.8698 26.2881H51.2464V26.149ZM52.5943 26.062C52.6304 26.1116 52.7067 26.1368 52.8243 26.1368C52.9715 26.141 53.1179 26.1125 53.2532 26.0535C53.3885 25.9945 53.5094 25.9064 53.6076 25.7951C53.8118 25.568 53.914 25.1315 53.914 24.4859C53.9223 24.1481 53.8661 23.8119 53.7484 23.4957C53.571 23.0518 53.2707 22.8295 52.8474 22.8289C52.7076 22.8289 52.6166 22.8594 52.5755 22.9159C52.5402 22.9855 52.5256 23.064 52.5334 23.1419V25.8195C52.5307 25.9067 52.5524 25.9929 52.596 26.0681L52.5943 26.062Z" fill="#05133A"/>
<path d="M55.1066 26.149C55.2282 26.1528 55.3495 26.1339 55.4644 26.0933C55.5234 26.0633 55.572 26.0158 55.6038 25.9571C55.6355 25.8984 55.6488 25.8313 55.642 25.7647V23.1176C55.642 22.9567 55.5862 22.8489 55.4704 22.7942C55.3529 22.7516 55.2288 22.7309 55.104 22.7333V22.5942H57.0337V22.7333C56.9083 22.7308 56.7834 22.7505 56.6647 22.7916C56.5506 22.8463 56.4931 22.955 56.4931 23.1176V25.7647C56.4931 25.9177 56.5377 26.0203 56.627 26.0716C56.7527 26.1308 56.891 26.1574 57.0294 26.149V26.2881H55.1066V26.149Z" fill="#05133A"/>
<path d="M59.8891 22.7177C60.0164 22.7708 60.1475 22.8141 60.2812 22.8472C60.3135 22.848 60.3455 22.841 60.3746 22.8268C60.4037 22.8126 60.4291 22.7916 60.4485 22.7655C60.4888 22.715 60.5163 22.6553 60.5283 22.5916H60.6811V23.8956H60.5412C60.4355 23.6553 60.2994 23.43 60.1362 23.2254C59.8788 22.9246 59.5874 22.7742 59.2619 22.7742C58.893 22.7742 58.6321 22.935 58.4768 23.2567C58.3215 23.5783 58.2452 24.0112 58.2452 24.5537C58.2358 24.8875 58.282 25.2204 58.3816 25.5387C58.5532 26.0215 58.8678 26.2628 59.3254 26.2628C59.6057 26.2636 59.8801 26.1804 60.1139 26.0238C60.2945 25.8948 60.4602 25.7458 60.6081 25.5795L60.772 25.716C60.6048 25.9146 60.4143 26.0918 60.2049 26.2437C59.9186 26.4368 59.5817 26.5382 59.2379 26.5349C58.7385 26.5507 58.2516 26.3757 57.8737 26.0446C57.467 25.6841 57.2636 25.1982 57.2636 24.5868C57.2636 23.9753 57.4581 23.4844 57.8471 23.1141C58.0254 22.9407 58.2359 22.8048 58.4664 22.7142C58.6969 22.6237 58.9427 22.5802 59.1898 22.5864C59.4287 22.5881 59.6655 22.6326 59.8891 22.7177Z" fill="#05133A"/>
<path d="M61.1101 26.1516C61.1716 26.1484 61.2317 26.1312 61.2856 26.101C61.3396 26.0709 61.3861 26.0287 61.4216 25.9777C61.509 25.836 61.5814 25.6853 61.6378 25.5283L62.8278 22.596H62.978L64.1732 25.4109C64.2547 25.6226 64.3553 25.8263 64.4735 26.0194C64.5054 26.0642 64.5481 26.0999 64.5975 26.123C64.647 26.1462 64.7015 26.156 64.7558 26.1516V26.2881H63.0398V26.1472C63.1614 26.1489 63.2827 26.1334 63.4001 26.1012C63.4576 26.0777 63.4859 26.0186 63.4859 25.9229C63.481 25.8553 63.4659 25.7887 63.4413 25.7256C63.4233 25.6734 63.3984 25.61 63.3675 25.5361L63.2251 25.2014H61.9655C61.8797 25.4213 61.8308 25.5648 61.8068 25.6308C61.7665 25.7301 61.7416 25.8351 61.733 25.9421C61.733 26.0212 61.7871 26.0785 61.8943 26.1159C61.9884 26.1392 62.085 26.1501 62.1818 26.1481V26.2889H61.1101V26.1516ZM63.1307 25.0927L62.5962 23.7887H62.549L62.0471 25.0927H63.1307Z" fill="#05133A"/>
<path d="M64.9694 26.1542C65.0674 26.1566 65.1647 26.137 65.2543 26.0968C65.3504 26.042 65.3984 25.9368 65.3984 25.783V23.2228C65.3984 23.0654 65.3529 22.962 65.2611 22.9046C65.1697 22.862 65.0701 22.8403 64.9694 22.8411V22.7029H66.7918V22.8376C66.5773 22.8446 66.434 22.8733 66.3628 22.9246C66.2916 22.9759 66.2564 23.1097 66.2564 23.3201V25.8343C66.2564 25.9525 66.2865 26.0307 66.3474 26.069C66.4603 26.1162 66.5826 26.1355 66.7043 26.1255C66.9858 26.1356 67.264 26.0622 67.5048 25.9142C67.7199 25.7728 67.9058 25.4978 68.0625 25.0892H67.9767L67.7828 26.2881H64.9694V26.1542Z" fill="#05133A"/>
<path d="M69.5795 26.1542C69.6775 26.1566 69.7748 26.137 69.8644 26.0968C69.9605 26.042 70.0085 25.9368 70.0085 25.783V23.2228C70.0085 23.0654 69.9631 22.962 69.8713 22.9046C69.7798 22.862 69.6802 22.8403 69.5795 22.8411V22.7029H71.5092V22.8376C71.2947 22.8446 71.1517 22.8736 71.0802 22.9246C71.009 22.9785 70.9738 23.1097 70.9738 23.3201V25.8343C70.9738 25.9525 71.0038 26.0307 71.0647 26.069C71.1776 26.1161 71.3 26.1355 71.4217 26.1255C71.7031 26.1352 71.9812 26.0618 72.2222 25.9142C72.4373 25.7728 72.6232 25.4978 72.7799 25.0892H72.5877L72.3912 26.2846H69.5795V26.1542Z" fill="#05133A"/>
<path d="M73.2252 26.1516C73.2867 26.1486 73.3466 26.1313 73.4005 26.1012C73.4543 26.0711 73.5006 26.0288 73.5358 25.9777C73.6235 25.836 73.6962 25.6853 73.7529 25.5283L74.943 22.596H75.0923L76.2866 25.4109C76.3688 25.6225 76.4696 25.8261 76.5878 26.0194C76.6196 26.0642 76.6623 26.0999 76.7118 26.123C76.7612 26.1462 76.8157 26.156 76.87 26.1516V26.2881H75.154V26.1472C75.2757 26.1489 75.397 26.1334 75.5144 26.1012C75.5719 26.0777 75.6002 26.0186 75.6002 25.9229C75.5952 25.8553 75.5804 25.7889 75.5564 25.7256C75.5384 25.6734 75.5135 25.61 75.4826 25.5361L75.3402 25.2014H74.0807C73.9983 25.4216 73.9454 25.5648 73.9219 25.6308C73.8816 25.7301 73.8567 25.8351 73.8481 25.9421C73.8481 26.0212 73.9013 26.0785 74.0094 26.1159C74.1035 26.1392 74.2001 26.1501 74.2969 26.1481V26.2889H73.2252V26.1516ZM75.2107 25.0927L74.6753 23.7887H74.6289L74.127 25.0927H75.2107Z" fill="#05133A"/>
<path d="M77.0845 26.1498C77.182 26.1524 77.2789 26.1325 77.3677 26.0916C77.4646 26.0342 77.5135 25.9264 77.5135 25.7673V23.1341C77.5135 22.9759 77.4681 22.8733 77.3771 22.815C77.2851 22.7732 77.1854 22.7515 77.0845 22.7516V22.5942H78.719C78.9851 22.587 79.2504 22.6249 79.5041 22.7064C79.8959 22.8472 80.0921 23.1034 80.0927 23.4749C80.0969 23.5772 80.0774 23.6792 80.0358 23.7726C79.9943 23.866 79.9318 23.9483 79.8533 24.013C79.7057 24.14 79.5285 24.2267 79.3385 24.2651V24.3155C79.5207 24.3486 79.6952 24.4155 79.8533 24.5129C79.9805 24.5895 80.0861 24.698 80.16 24.8278C80.2339 24.9577 80.2737 25.1046 80.2755 25.2545C80.2773 25.4044 80.2411 25.5523 80.1703 25.6839C80.0996 25.8156 79.9966 25.9266 79.8714 26.0064C79.6008 26.1942 79.241 26.2881 78.792 26.2881H77.0845V26.1498ZM79.0391 24.1347C79.1535 24.0246 79.2107 23.8298 79.2107 23.5505C79.2159 23.3701 79.178 23.1911 79.1 23.0289C79.0254 22.8872 78.8829 22.8168 78.671 22.8168C78.589 22.8084 78.5067 22.8286 78.4376 22.8741C78.4128 22.9016 78.3941 22.9341 78.3827 22.9695C78.3713 23.0049 78.3675 23.0423 78.3715 23.0793V24.2964C78.7033 24.2987 78.9258 24.2448 79.0391 24.1347ZM78.4127 26.0325C78.44 26.0734 78.4779 26.106 78.5223 26.1265C78.5666 26.1471 78.6157 26.1549 78.6641 26.149C78.9172 26.149 79.0931 26.0794 79.1978 25.9395C79.3025 25.7995 79.3505 25.6004 79.3505 25.3422C79.3505 24.9562 79.2379 24.6995 79.0125 24.572C78.8769 24.4946 78.6624 24.4581 78.3707 24.4633V25.8195C78.3673 25.8929 78.3818 25.966 78.4127 26.0325Z" fill="#05133A"/>
<path d="M83.9632 23.0993C84.3305 23.4638 84.5141 23.931 84.5141 24.5007C84.5141 25.0704 84.3305 25.539 83.9632 25.9064C83.7847 26.0819 83.5733 26.2193 83.3415 26.3105C83.1097 26.4017 82.8622 26.445 82.6136 26.4376C82.0416 26.4376 81.5745 26.2437 81.2125 25.856C80.8779 25.5004 80.6958 25.0249 80.7062 24.5337C80.7062 23.9646 80.8827 23.4966 81.2356 23.1297C81.5886 22.7629 82.0479 22.5771 82.6136 22.5725C82.8619 22.5644 83.1093 22.6068 83.3411 22.6973C83.5729 22.7878 83.7845 22.9245 83.9632 23.0993ZM83.4416 25.5256C83.531 25.1918 83.5718 24.8465 83.5625 24.5007C83.5625 23.9211 83.4767 23.485 83.3051 23.1923C83.1335 22.8996 82.9025 22.7527 82.6119 22.7516C82.2058 22.7516 81.9275 22.9967 81.777 23.487C81.6901 23.8175 81.6505 24.1588 81.6595 24.5007C81.6498 24.8465 81.6906 25.1919 81.7805 25.5256C81.9292 26.0084 82.2063 26.2498 82.6119 26.2498C83.0174 26.2498 83.294 26.0084 83.4416 25.5256Z" fill="#05133A"/>
<path d="M84.8032 26.1498C84.9258 26.1548 85.0465 26.1184 85.1464 26.0464C85.2116 25.9864 85.2322 25.8551 85.2322 25.6534V23.248C85.2322 23.0393 85.197 22.9002 85.125 22.8394C85.0778 22.7968 84.9705 22.7681 84.8032 22.7524V22.5942H86.5476C86.8446 22.5853 87.1411 22.624 87.4262 22.709C87.8603 22.8637 88.0774 23.1422 88.0774 23.5444C88.082 23.681 88.0531 23.8166 87.9932 23.9391C87.9333 24.0615 87.8443 24.167 87.7342 24.246C87.5714 24.3698 87.3826 24.454 87.1825 24.492L88.3348 26.0473C88.3573 26.0852 88.3905 26.1154 88.43 26.1342C88.47 26.1491 88.5119 26.1576 88.5544 26.1594V26.2907H87.3361L86.1975 24.6607V25.6821C86.1975 25.8647 86.2258 25.9881 86.2833 26.0525C86.3408 26.1168 86.4549 26.1516 86.6265 26.1577V26.2907H84.8032V26.1498ZM86.8436 24.2999C86.9946 24.206 87.0701 23.9872 87.0701 23.6435C87.0778 23.4728 87.0485 23.3025 86.9843 23.1445C86.8848 22.9376 86.7029 22.8333 86.4394 22.8333C86.3424 22.8229 86.2444 22.842 86.158 22.8881C86.1341 22.9107 86.1156 22.9386 86.104 22.9697C86.0923 23.0008 86.0879 23.0341 86.0911 23.0671V24.4503C86.4423 24.4451 86.6931 24.3949 86.8436 24.2999Z" fill="#05133A"/>
<path d="M88.6634 26.1516C88.7248 26.1486 88.7848 26.1313 88.8386 26.1012C88.8925 26.0711 88.9388 26.0288 88.974 25.9777C89.0617 25.836 89.1344 25.6853 89.1911 25.5283L90.3811 22.596H90.5304L91.7214 25.4092C91.8035 25.6207 91.9043 25.8244 92.0225 26.0177C92.0544 26.0625 92.0971 26.0981 92.1465 26.1213C92.196 26.1444 92.2505 26.1543 92.3048 26.1498V26.2863H90.5888V26.1455C90.7104 26.1472 90.8317 26.1316 90.9491 26.0994C91.0066 26.0759 91.0349 26.0125 91.0349 25.9212C91.0299 25.8536 91.0152 25.7871 90.9912 25.7239C90.9732 25.6717 90.9483 25.6082 90.9174 25.5343L90.7741 25.1996H89.5146C89.4322 25.4193 89.3793 25.5624 89.3558 25.6291C89.3156 25.7284 89.2904 25.8334 89.2812 25.9403C89.2812 26.0194 89.3352 26.0768 89.4433 26.1142C89.5374 26.1375 89.634 26.1483 89.7308 26.1464V26.2872H88.6591L88.6634 26.1516ZM90.7115 25.0927L90.1769 23.7887H90.1306L89.6287 25.0927H90.7115Z" fill="#05133A"/>
<path d="M92.2009 22.7029H95.4176V23.6809H95.2786C95.2277 23.2833 95.0824 23.015 94.8428 22.8759C94.6537 22.7863 94.4465 22.7429 94.2379 22.749V25.6456C94.2379 25.8482 94.273 25.9821 94.3417 26.049C94.4103 26.1159 94.5553 26.1481 94.7707 26.1481V26.2881H92.841V26.1481C93.0567 26.1481 93.1997 26.1145 93.27 26.0473C93.3404 25.9803 93.3764 25.8464 93.3764 25.6456V22.749C93.1632 22.7438 92.9515 22.7872 92.7569 22.8759C92.4927 23.0196 92.3437 23.288 92.3099 23.6809H92.1967L92.2009 22.7029Z" fill="#05133A"/>
<path d="M98.9741 23.0993C99.3442 23.4639 99.5293 23.931 99.5293 24.5007C99.5385 24.7569 99.4955 25.0123 99.4032 25.251C99.3109 25.4896 99.1711 25.7065 98.9926 25.8882C98.814 26.0698 98.6005 26.2123 98.3653 26.3068C98.1301 26.4014 97.8782 26.4459 97.6253 26.4376C97.0533 26.4376 96.5863 26.2437 96.2242 25.856C95.89 25.5001 95.7081 25.0249 95.718 24.5337C95.718 23.9646 95.8944 23.4966 96.2474 23.1297C96.6003 22.7629 97.0596 22.5771 97.6253 22.5725C97.8735 22.5644 98.1208 22.6068 98.3525 22.6973C98.5842 22.7878 98.7956 22.9245 98.9741 23.0993ZM98.4533 25.5256C98.5425 25.1918 98.583 24.8465 98.5734 24.5007C98.5734 23.9211 98.4876 23.485 98.316 23.1923C98.1444 22.8997 97.9131 22.7527 97.6219 22.7516C97.2169 22.7516 96.9389 22.9967 96.7879 23.487C96.6292 24.1571 96.6292 24.8556 96.7879 25.5256C96.9372 26.0084 97.2143 26.2498 97.6193 26.2498C98.0243 26.2498 98.3023 26.0084 98.4533 25.5256Z" fill="#05133A"/>
<path d="M99.8132 26.1498C99.978 26.1411 100.091 26.1064 100.151 26.0464C100.211 25.9864 100.242 25.8551 100.242 25.6534V23.248C100.242 23.0393 100.206 22.9002 100.135 22.8394C100.087 22.7968 99.9797 22.7681 99.8132 22.7524V22.5942H101.557C101.854 22.5853 102.15 22.624 102.435 22.709C102.869 22.8637 103.087 23.1422 103.087 23.5444C103.091 23.681 103.062 23.8166 103.002 23.9391C102.942 24.0615 102.853 24.167 102.743 24.246C102.58 24.3695 102.392 24.4536 102.192 24.492L103.343 26.0473C103.366 26.0852 103.399 26.1154 103.438 26.1342C103.478 26.1491 103.52 26.1576 103.563 26.1594V26.2907H102.344L101.207 24.6607V25.6821C101.207 25.8647 101.236 25.9881 101.292 26.0525C101.349 26.1168 101.464 26.1516 101.636 26.1577V26.2907H99.8132V26.1498ZM101.853 24.2999C102.004 24.206 102.079 23.9872 102.079 23.6435C102.087 23.4728 102.058 23.3025 101.993 23.1445C101.893 22.9376 101.712 22.8333 101.448 22.8333C101.351 22.8229 101.253 22.842 101.166 22.8881C101.142 22.9107 101.124 22.9386 101.112 22.9697C101.101 23.0008 101.096 23.0341 101.099 23.0671V24.4503C101.451 24.4451 101.702 24.3949 101.853 24.2999Z" fill="#05133A"/>
<path d="M105.278 22.5942V22.7333C105.149 22.7349 105.021 22.7491 104.894 22.7759C104.869 22.7811 104.847 22.7953 104.831 22.8158C104.815 22.8364 104.807 22.862 104.809 22.8881C104.809 22.9158 104.814 22.9432 104.824 22.9689C104.846 23.0228 104.87 23.0758 104.896 23.128L105.659 24.4407H105.667L106.286 23.4801C106.332 23.4112 106.374 23.3391 106.41 23.2645C106.463 23.1763 106.496 23.078 106.509 22.9759C106.513 22.9348 106.503 22.8936 106.481 22.8588C106.459 22.8241 106.426 22.7976 106.388 22.7837C106.27 22.7522 106.149 22.7353 106.027 22.7333V22.5942H107.207V22.7324C107.137 22.7435 107.068 22.7622 107.002 22.7881C106.935 22.8239 106.879 22.877 106.839 22.942L105.809 24.6328V25.69C105.809 25.69 105.792 26.0299 105.861 26.089C105.931 26.1481 106.061 26.1811 106.238 26.1863V26.2881H104.42V26.1498C104.635 26.1446 104.778 26.1098 104.849 26.0464C104.92 25.9829 104.955 25.8516 104.955 25.6534V24.8345L103.912 23.0298C103.853 22.9219 103.763 22.8348 103.655 22.7803C103.59 22.7506 103.521 22.7343 103.45 22.7324V22.5942H105.278Z" fill="#05133A"/>
<path d="M17.1422 10.4278H2.04893C0.917337 10.4278 0 11.3572 0 12.5038V21.7127C0 22.8592 0.917337 23.7887 2.04893 23.7887H17.1422C18.2738 23.7887 19.1911 22.8592 19.1911 21.7127V12.5038C19.1911 11.3572 18.2738 10.4278 17.1422 10.4278Z" fill="#EC1F26"/>
<path d="M21.3241 0H12.2335C11.1024 0 10.1854 0.929064 10.1854 2.07512V31.9249C10.1854 33.0709 11.1024 34 12.2335 34H21.3241C22.4552 34 23.3722 33.0709 23.3722 31.9249V2.07512C23.3722 0.929064 22.4552 0 21.3241 0Z" fill="#EC1F26"/>
<path d="M21.2812 0H12.2747C11.1203 0 10.1846 0.948135 10.1846 2.11772V4.07374C10.1846 5.24333 11.1203 6.19146 12.2747 6.19146H21.2812C22.4356 6.19146 23.3713 5.24333 23.3713 4.07374V2.11772C23.3713 0.948135 22.4356 0 21.2812 0Z" fill="#04123F"/>
<path d="M31.3972 10.4286H26.2817C25.1482 10.4286 24.2294 11.3596 24.2294 12.5081V21.7101C24.2294 22.8586 25.1482 23.7896 26.2817 23.7896H31.3972C32.5307 23.7896 33.4496 22.8586 33.4496 21.7101V12.5081C33.4496 11.3596 32.5307 10.4286 31.3972 10.4286Z" fill="#04123F"/>
<path d="M11.3772 2.71583L12.9285 11.4223C12.9285 11.4223 8.99539 14.3442 9.68008 17.8963C10.3648 21.4484 13.4553 25.5648 14.648 25.8073C15.8406 26.0499 16.3142 28.6883 16.3142 28.6883L23.3722 28.298V23.7896H30.7691V10.4321H23.3722V2.71583H11.3772Z" fill="#05143A"/>
<path d="M10.1846 2.39504L10.1854 5.62291L12.0568 7.25554L11.0023 8.39177L16.9097 14.0616L20.4464 10.087L14.5827 4.52145L13.6424 5.53771L10.1846 2.39504Z" fill="white"/>
<path d="M16.9397 13.8869V14.7849C16.9394 14.8628 16.9544 14.9399 16.9836 15.0119C17.0128 15.084 17.0557 15.1494 17.1098 15.2047C17.164 15.2599 17.2284 15.3037 17.2993 15.3337C17.3702 15.3638 17.4463 15.3793 17.5231 15.3795C17.5506 15.3796 17.5778 15.3739 17.6031 15.3628C17.6283 15.3517 17.651 15.3355 17.6698 15.3152L21.7076 10.9537C21.7428 10.9151 21.7624 10.8646 21.7626 10.812V10.7338C21.7629 10.6515 21.7472 10.5699 21.7164 10.4937C21.6857 10.4175 21.6404 10.3482 21.5832 10.2898C21.526 10.2314 21.458 10.1849 21.383 10.1531C21.3081 10.1213 21.2277 10.1047 21.1465 10.1044H20.273C20.2445 10.1045 20.2163 10.1106 20.1903 10.1224C20.1643 10.1343 20.141 10.1515 20.122 10.173L16.9886 13.7495C16.9561 13.7876 16.9387 13.8366 16.9397 13.8869Z" fill="white"/>
<path d="M20.6505 12.8713L19.4335 14.1867C19.1943 14.4452 19.2073 14.8513 19.4624 15.0936L20.7607 16.3267C21.0158 16.569 21.4165 16.5559 21.6557 16.2974L22.8727 14.982C23.1119 14.7235 23.099 14.3175 22.8438 14.0751L21.5455 12.842C21.2904 12.5997 20.8897 12.6128 20.6505 12.8713Z" fill="white"/>
<path d="M16.9397 26.6784C12.5261 26.6784 8.9353 22.7846 8.9353 17.998C8.9353 13.2114 12.5261 9.31762 16.9397 9.31762V10.9946C13.4381 10.9946 10.5904 14.1364 10.5904 17.998C10.5904 21.8596 13.4381 25.0023 16.9397 25.0023V26.6784Z" fill="white"/>
<path d="M25.5164 18.9012H20.799V19.9879H25.5164V18.9012Z" fill="white"/>
<path d="M23.9196 20.7477C23.748 22.7681 22.5194 24.625 20.6858 25.4535C20.0767 25.7318 19.427 25.908 18.7621 25.9751V24.4155C19.4837 24.5268 20.2396 24.3199 20.86 23.9295L21.1603 23.7096L21.4374 23.4592C22.129 22.7577 22.5177 21.7301 22.3812 20.7477H23.9196Z" fill="white"/>
<path d="M19.869 24.2842C19.869 24.2842 19.1877 25.1588 20.189 25.6656L18.6051 26.4341L17.9462 24.306L19.869 24.2842Z" fill="#05141C"/>
<path d="M27.1243 20.7477H19.1911V22.5942H27.1243V20.7477Z" fill="white"/>
<path d="M16.9929 27.2652C17.97 27.2652 18.7621 26.4626 18.7621 25.4726C18.7621 24.4826 17.97 23.68 16.9929 23.68C16.0158 23.68 15.2237 24.4826 15.2237 25.4726C15.2237 26.4626 16.0158 27.2652 16.9929 27.2652Z" fill="#F21D25"/>
<path d="M17.0384 27.5495C16.642 27.5486 16.2547 27.4287 15.9255 27.205C15.5963 26.9812 15.34 26.6636 15.1889 26.2923C15.0378 25.921 14.9987 25.5126 15.0765 25.1188C15.1544 24.725 15.3457 24.3634 15.6263 24.0797C15.9069 23.796 16.2642 23.6029 16.653 23.5249C17.0419 23.4469 17.4448 23.4873 17.811 23.6412C18.1771 23.7951 18.49 24.0555 18.7102 24.3896C18.9303 24.7236 19.0478 25.1162 19.0478 25.5178C19.0478 25.785 18.9958 26.0495 18.8948 26.2963C18.7937 26.5431 18.6457 26.7672 18.459 26.956C18.2723 27.1447 18.0508 27.2942 17.807 27.3961C17.5632 27.4979 17.302 27.5501 17.0384 27.5495ZM17.0384 24.006C16.7431 24.0064 16.4546 24.0954 16.2093 24.2619C15.964 24.4283 15.7729 24.6647 15.6602 24.9412C15.5475 25.2177 15.5182 25.5218 15.5761 25.8152C15.634 26.1085 15.7764 26.3779 15.9853 26.5892C16.1943 26.8006 16.4604 26.9444 16.75 27.0025C17.0396 27.0606 17.3397 27.0305 17.6124 26.9158C17.8851 26.8011 18.1181 26.6071 18.2819 26.3583C18.4458 26.1094 18.5332 25.817 18.533 25.5178C18.5329 25.3191 18.4941 25.1224 18.419 24.9388C18.3438 24.7553 18.2336 24.5886 18.0948 24.4482C17.956 24.3078 17.7913 24.1965 17.61 24.1206C17.4287 24.0447 17.2345 24.0058 17.0384 24.006Z" fill="#D21D25"/>
<path d="M16.9929 25.8525C17.2 25.8525 17.3678 25.6824 17.3678 25.4726C17.3678 25.2628 17.2 25.0927 16.9929 25.0927C16.7858 25.0927 16.6179 25.2628 16.6179 25.4726C16.6179 25.6824 16.7858 25.8525 16.9929 25.8525Z" fill="white"/>
<path d="M17.0384 28.0441C16.5452 28.0441 16.0632 27.896 15.6531 27.6184C15.2431 27.3408 14.9235 26.9462 14.7348 26.4846C14.5461 26.023 14.4967 25.515 14.5929 25.025C14.6891 24.5349 14.9266 24.0848 15.2753 23.7314C15.624 23.3781 16.0683 23.1375 16.5519 23.0401C17.0356 22.9426 17.5369 22.9926 17.9925 23.1838C18.4481 23.375 18.8376 23.6988 19.1115 24.1143C19.3855 24.5297 19.5317 25.0182 19.5317 25.5178C19.5308 26.1876 19.2678 26.8296 18.8004 27.3032C18.333 27.7768 17.6994 28.0432 17.0384 28.0441ZM17.0384 23.4966C16.6438 23.4966 16.2581 23.6151 15.9301 23.8372C15.602 24.0593 15.3463 24.375 15.1953 24.7443C15.0444 25.1137 15.0048 25.5201 15.0818 25.9121C15.1588 26.3042 15.3488 26.6644 15.6278 26.947C15.9068 27.2297 16.2622 27.4222 16.6492 27.5002C17.0361 27.5782 17.4373 27.5382 17.8018 27.3852C18.1663 27.2322 18.4778 26.9731 18.697 26.6408C18.9162 26.3084 19.0332 25.9176 19.0332 25.5178C19.0332 24.9818 18.8231 24.4677 18.449 24.0886C18.0748 23.7095 17.5674 23.4966 17.0384 23.4966Z" fill="white"/>
<path d="M14.4197 13.2523C15.3968 13.2523 16.1889 12.4497 16.1889 11.4597C16.1889 10.4697 15.3968 9.66709 14.4197 9.66709C13.4426 9.66709 12.6505 10.4697 12.6505 11.4597C12.6505 12.4497 13.4426 13.2523 14.4197 13.2523Z" fill="#02143B"/>
<path d="M14.3897 13.4513C13.9931 13.4513 13.6054 13.3322 13.2757 13.1089C12.9459 12.8857 12.6889 12.5684 12.5372 12.1972C12.3854 11.8259 12.3457 11.4174 12.4231 11.0233C12.5004 10.6292 12.6914 10.2672 12.9718 9.98309C13.2523 9.69896 13.6095 9.50547 13.9985 9.42707C14.3875 9.34868 14.7906 9.38892 15.157 9.54269C15.5234 9.69646 15.8366 9.95686 16.0569 10.291C16.2773 10.6251 16.3949 11.0179 16.3949 11.4197C16.3942 11.9583 16.1827 12.4747 15.8068 12.8555C15.4309 13.2364 14.9213 13.4507 14.3897 13.4513ZM14.3897 9.9079C14.0944 9.90773 13.8057 9.99628 13.5601 10.1623C13.3145 10.3284 13.123 10.5646 13.0099 10.8409C12.8967 11.1172 12.867 11.4214 12.9244 11.7148C12.9819 12.0083 13.1239 12.2779 13.3326 12.4896C13.5412 12.7012 13.8072 12.8454 14.0967 12.904C14.3863 12.9625 14.6865 12.9327 14.9594 12.8184C15.2322 12.7041 15.4655 12.5103 15.6297 12.2617C15.7939 12.013 15.8816 11.7206 15.8818 11.4214C15.8809 11.0208 15.7233 10.6369 15.4437 10.3538C15.1641 10.0706 14.7851 9.9112 14.3897 9.91051V9.9079Z" fill="#02141E"/>
<path d="M14.4198 11.8396C14.6268 11.8396 14.7947 11.6695 14.7947 11.4597C14.7947 11.2499 14.6268 11.0798 14.4198 11.0798C14.2127 11.0798 14.0448 11.2499 14.0448 11.4597C14.0448 11.6695 14.2127 11.8396 14.4198 11.8396Z" fill="white"/>
<path d="M14.6205 14.119C14.1274 14.119 13.6453 13.9708 13.2353 13.6932C12.8252 13.4156 12.5057 13.0211 12.3169 12.5595C12.1282 12.0978 12.0788 11.5899 12.175 11.0998C12.2713 10.6098 12.5087 10.1596 12.8574 9.80632C13.2061 9.45301 13.6504 9.2124 14.1341 9.11492C14.6178 9.01744 15.1191 9.06747 15.5747 9.25868C16.0303 9.44989 16.4197 9.77369 16.6937 10.1891C16.9677 10.6046 17.1139 11.093 17.1139 11.5927V11.5979C17.1121 12.2669 16.8486 12.9078 16.3813 13.3804C15.9139 13.8529 15.2808 14.1185 14.6205 14.119ZM14.6205 9.57233C14.226 9.57233 13.8403 9.69088 13.5122 9.91297C13.1842 10.1351 12.9285 10.4507 12.7775 10.8201C12.6265 11.1894 12.587 11.5958 12.664 11.9879C12.7409 12.38 12.9309 12.7401 13.2099 13.0228C13.4889 13.3054 13.8444 13.498 14.2313 13.5759C14.6183 13.6539 15.0194 13.6139 15.3839 13.4609C15.7484 13.3079 16.06 13.0489 16.2792 12.7165C16.4984 12.3841 16.6154 11.9933 16.6154 11.5936C16.6145 11.0578 16.404 10.5442 16.0301 10.1654C15.6562 9.7865 15.1493 9.57325 14.6205 9.57233Z" fill="#04123F"/>
<path d="M14.3897 13.946C13.8965 13.946 13.4145 13.7978 13.0044 13.5202C12.5944 13.2426 12.2748 12.8481 12.0861 12.3865C11.8974 11.9248 11.848 11.4169 11.9442 10.9268C12.0404 10.4368 12.2779 9.98663 12.6266 9.63332C12.9753 9.28 13.4196 9.0394 13.9032 8.94192C14.3869 8.84444 14.8883 8.89447 15.3439 9.08568C15.7995 9.27689 16.1889 9.60069 16.4629 10.0161C16.7368 10.4316 16.8831 10.92 16.8831 11.4197V11.4249C16.881 12.0938 16.6175 12.7346 16.1502 13.2071C15.6829 13.6796 15.0499 13.9453 14.3897 13.946ZM14.3897 9.39846C13.9953 9.39915 13.61 9.51826 13.2824 9.74073C12.9548 9.9632 12.6997 10.2791 12.5492 10.6484C12.3987 11.0177 12.3596 11.424 12.4369 11.8158C12.5142 12.2076 12.7044 12.5675 12.9834 12.8498C13.2625 13.1322 13.6179 13.3244 14.0047 13.4022C14.3915 13.48 14.7924 13.4399 15.1567 13.287C15.521 13.134 15.8325 12.8751 16.0516 12.5429C16.2708 12.2107 16.3878 11.8201 16.388 11.4206C16.3881 11.1548 16.3365 10.8916 16.2361 10.646C16.1356 10.4004 15.9884 10.1774 15.8028 9.98954C15.6172 9.80172 15.3968 9.65283 15.1543 9.5514C14.9119 9.44998 14.652 9.39801 14.3897 9.39846Z" fill="white"/>
<path d="M23.4795 30.4157H13.385C13.1593 30.4157 13.0134 30.1366 13.1164 29.9019L13.711 28.544C13.7682 28.3947 13.8674 28.2657 13.9963 28.173C14.1251 28.0802 14.278 28.0279 14.436 28.0224H23.4795V30.4157Z" fill="#FAFFFF"/>
</g>
<defs>
<clipPath id="clip0_1_805">
<rect width="113" height="34" fill="white"/>
</clipPath>
</defs>
</svg>
