<svg width="150" height="145" viewBox="0 0 150 145" fill="none" xmlns="http://www.w3.org/2000/svg">
<g clip-path="url(#clip0_1_1217)">
<path d="M143.246 37.4509C143.246 37.4509 134.173 16.2814 115.339 7.88087C96.5061 -0.519627 85.4459 6.20796 72.0038 14.6019C58.5617 22.9959 27.6423 16.9545 14.8732 24.0088C2.10422 31.0631 -3.94701 48.2072 2.78384 67.3607C9.5147 86.5142 26.9724 100.963 22.9372 110.376C18.9019 119.789 56.879 154.401 88.4683 141.629C120.058 128.857 111.667 114.745 126.109 108.36C140.551 101.976 150.64 84.8348 149.961 64.0018C149.281 43.1688 143.246 37.4509 143.246 37.4509Z" fill="#CCD1FF"/>
<path opacity="0.8" d="M143.246 37.4509C143.246 37.4509 134.173 16.2814 115.339 7.88087C96.5061 -0.519627 85.4459 6.20796 72.0038 14.6019C58.5617 22.9959 27.6423 16.9545 14.8732 24.0088C2.10422 31.0631 -3.94701 48.2072 2.78384 67.3607C9.5147 86.5142 26.9724 100.963 22.9372 110.376C18.9019 119.789 56.879 154.401 88.4683 141.629C120.058 128.857 111.667 114.745 126.109 108.36C140.551 101.976 150.64 84.8348 149.961 64.0018C149.281 43.1688 143.246 37.4509 143.246 37.4509Z" fill="white"/>
<path d="M22.8915 8.74365C23.2627 8.90047 23.5794 9.16329 23.802 9.49921C24.0246 9.83513 24.1432 10.2292 24.1429 10.6322V16.1541C24.1429 16.6975 23.927 17.2185 23.5429 17.6027C23.1587 17.9869 22.6376 18.2028 22.0942 18.2028C21.5506 18.2028 21.0292 17.9871 20.6444 17.6029C20.2597 17.2188 20.0432 16.6978 20.0423 16.1541V10.6322C20.0423 10.2289 20.1614 9.83449 20.3846 9.49853C20.6078 9.16257 20.9252 8.89997 21.297 8.74365" stroke="#EC1F26" stroke-opacity="0.28" stroke-linecap="round" stroke-linejoin="round"/>
<path d="M22.0942 18.2026C21.5506 18.2026 21.0292 17.9869 20.6444 17.6028C20.2597 17.2186 20.0432 16.6976 20.0423 16.1539V13.3962H24.1429V16.1572C24.142 16.7 23.9258 17.2202 23.5417 17.6037C23.1576 17.9872 22.637 18.2026 22.0942 18.2026Z" stroke="#EC1F26" stroke-opacity="0.28" stroke-linecap="round" stroke-linejoin="round"/>
<path d="M17.6865 7.95616L14.6707 10.3773C14.4601 10.5454 14.2185 10.6702 13.9596 10.7448C13.7007 10.8193 13.4297 10.842 13.162 10.8117C12.8943 10.7813 12.6352 10.6985 12.3996 10.5679C12.164 10.4373 11.9564 10.2615 11.7888 10.0506C11.6208 9.84 11.4959 9.59836 11.4214 9.33948C11.3469 9.0806 11.3241 8.80955 11.3545 8.54187C11.3848 8.27419 11.4677 8.01512 11.5983 7.77949C11.7289 7.54387 11.9047 7.33631 12.1156 7.16872L16.409 3.72487C16.6193 3.55642 16.861 3.4312 17.1199 3.35642C17.3788 3.28164 17.65 3.25878 17.9178 3.28914C18.1856 3.31951 18.4448 3.4025 18.6804 3.53335C18.916 3.6642 19.1235 3.84033 19.2908 4.05161C19.4589 4.26218 19.5837 4.50382 19.6583 4.7627C19.7328 5.02158 19.7555 5.29263 19.7252 5.56031C19.6948 5.82799 19.612 6.08706 19.4814 6.32269C19.3508 6.55831 19.175 6.76587 18.9641 6.93346L18.6243 7.18832" stroke="#EC1F26" stroke-opacity="0.28" stroke-linecap="round" stroke-linejoin="round"/>
<path d="M11.7888 10.0604C11.6208 9.84985 11.4959 9.6082 11.4214 9.34932C11.3469 9.09044 11.3241 8.8194 11.3545 8.55171C11.3848 8.28403 11.4677 8.02496 11.5983 7.78933C11.7289 7.55371 11.9047 7.34616 12.1156 7.17856L14.2688 5.45337L16.8337 8.64889L14.6707 10.3773C14.4607 10.5459 14.2196 10.6715 13.9611 10.7468C13.7026 10.8221 13.4317 10.8457 13.1641 10.8163C12.8964 10.7869 12.6372 10.705 12.4012 10.5753C12.1652 10.4456 11.9572 10.2706 11.7888 10.0604Z" stroke="#EC1F26" stroke-opacity="0.28" stroke-linecap="round" stroke-linejoin="round"/>
<path d="M125.795 98.9141C125.071 99.1168 124.428 99.5406 123.955 100.126C123.483 100.712 123.206 101.43 123.162 102.181H118.679C118.626 101.787 118.434 101.423 118.138 101.158C117.841 100.892 117.458 100.742 117.06 100.734C116.662 100.726 116.274 100.861 115.967 101.114C115.659 101.368 115.453 101.723 115.385 102.115C115.317 102.508 115.392 102.912 115.596 103.254C115.8 103.596 116.12 103.854 116.497 103.98C116.875 104.107 117.286 104.094 117.655 103.943C118.024 103.793 118.327 103.516 118.509 103.162H123.233C123.371 103.805 123.682 104.399 124.133 104.878C124.584 105.358 125.157 105.705 125.791 105.882C126.425 106.059 127.095 106.06 127.729 105.884C128.363 105.708 128.937 105.362 129.389 104.884L131.706 106.684" stroke="#EC1F26" stroke-opacity="0.28" stroke-linecap="round" stroke-linejoin="round"/>
<path d="M132.961 107.671L135.784 109.866C135.71 110.057 135.672 110.26 135.669 110.464C135.669 110.795 135.767 111.117 135.951 111.392C136.134 111.666 136.395 111.88 136.7 112.007C137.005 112.133 137.341 112.166 137.665 112.102C137.988 112.037 138.286 111.878 138.519 111.645C138.753 111.411 138.912 111.114 138.976 110.79C139.041 110.466 139.008 110.13 138.881 109.825C138.755 109.52 138.541 109.26 138.266 109.076C137.992 108.893 137.669 108.795 137.339 108.795C136.994 108.795 136.658 108.904 136.378 109.105L129.955 104.109C130.271 103.526 130.419 102.866 130.383 102.203C130.348 101.541 130.129 100.901 129.752 100.355L133.673 95.3264C134.045 95.4689 134.456 95.473 134.831 95.3378C135.206 95.2026 135.52 94.9372 135.716 94.5899C135.912 94.2426 135.976 93.8366 135.898 93.4457C135.819 93.0548 135.603 92.7052 135.288 92.4604C134.974 92.2157 134.582 92.0921 134.183 92.1122C133.785 92.1323 133.408 92.2948 133.119 92.57C132.831 92.8453 132.651 93.2149 132.612 93.6117C132.573 94.0085 132.678 94.406 132.908 94.7318L129.085 99.6329C128.435 99.0849 127.612 98.7851 126.762 98.7866" stroke="#EC1F26" stroke-opacity="0.28" stroke-linecap="round" stroke-linejoin="round"/>
<path d="M76.735 9.71712V25.0739C76.735 25.7212 76.4779 26.3421 76.0201 26.7998C75.5624 27.2575 74.9416 27.5147 74.2943 27.5147C73.6469 27.5147 73.0261 27.2575 72.5684 26.7998C72.1107 26.3421 71.8535 25.7212 71.8535 25.0739V5.3584H76.735V8.82185" stroke="#EC1F26" stroke-opacity="0.28" stroke-linecap="round" stroke-linejoin="round"/>
<path d="M74.2943 27.5083C73.6469 27.5083 73.0261 27.2511 72.5684 26.7934C72.1107 26.3357 71.8535 25.7148 71.8535 25.0675V12.5828H76.735V25.0675C76.7342 25.7146 76.4767 26.3349 76.0192 26.7924C75.5616 27.25 74.9413 27.5074 74.2943 27.5083Z" stroke="#EC1F26" stroke-opacity="0.28" stroke-linecap="round" stroke-linejoin="round"/>
<path d="M76.735 5.35852H77.4342V3.58105H71.1575V5.35852H71.8535" stroke="#EC1F26" stroke-opacity="0.28" stroke-linecap="round" stroke-linejoin="round"/>
<path d="M64.4561 19.3985V5.34863H69.3376V25.0674C69.3376 25.7147 69.0805 26.3356 68.6227 26.7933C68.165 27.251 67.5442 27.5082 66.8969 27.5082C66.2495 27.5082 65.6287 27.251 65.171 26.7933C64.7133 26.3356 64.4561 25.7147 64.4561 25.0674V20.6891" stroke="#EC1F26" stroke-opacity="0.28" stroke-linecap="round" stroke-linejoin="round"/>
<path d="M64.4528 19.3986V12.5828H69.3343V25.0675C69.3343 25.7148 69.0772 26.3357 68.6194 26.7934C68.1617 27.2511 67.5409 27.5083 66.8936 27.5083C66.2465 27.5074 65.6262 27.25 65.1687 26.7924C64.7111 26.3349 64.4537 25.7146 64.4528 25.0675V21.078" stroke="#EC1F26" stroke-opacity="0.28" stroke-linecap="round" stroke-linejoin="round"/>
<path d="M69.3376 5.35852H70.0336V3.58105H63.7569V5.35852H64.4561" stroke="#EC1F26" stroke-opacity="0.28" stroke-linecap="round" stroke-linejoin="round"/>
<path d="M24.022 98.8912C23.0809 99.2238 22.238 99.7868 21.5703 100.529C20.9025 101.271 20.4311 102.168 20.1991 103.139C19.8544 101.725 19.0048 100.486 17.8102 99.6545C16.6156 98.8232 15.1584 98.4573 13.7128 98.6256C12.2672 98.7938 10.933 99.4846 9.96124 100.568C8.98947 101.651 8.44719 103.053 8.43646 104.508C8.43646 105.972 9.07361 107.279 9.98521 108.471H16.4057L18.3236 103.867C18.3558 103.793 18.4098 103.729 18.4786 103.685C18.5474 103.642 18.6277 103.62 18.7092 103.622C18.7901 103.627 18.8675 103.657 18.9311 103.707C18.9948 103.757 19.0416 103.826 19.0653 103.903L21.3885 111.565L23.1594 105.919C23.1836 105.84 23.2324 105.77 23.2987 105.72C23.3651 105.67 23.4456 105.643 23.5286 105.642C23.6113 105.643 23.6915 105.67 23.7591 105.718C23.8266 105.765 23.8783 105.832 23.9076 105.91L24.8878 108.739H30.1974C31.2135 107.543 31.9748 106.2 31.9748 104.492C31.9748 102.908 31.3459 101.39 30.2264 100.27C29.1069 99.1509 27.5885 98.522 26.0053 98.522" stroke="#EC1F26" stroke-opacity="0.28" stroke-linecap="round" stroke-linejoin="round"/>
<path d="M17.1604 115.614C18.1831 116.637 19.2091 117.656 20.2579 118.649C22.6529 116.284 25.0643 113.931 27.4462 111.543C28.0997 110.889 28.8185 110.236 29.4818 109.546H24.6134C24.5311 109.546 24.4508 109.521 24.3835 109.474C24.3162 109.426 24.2653 109.359 24.2376 109.282L23.5547 107.321L21.7577 113.052C21.7322 113.132 21.6822 113.202 21.6147 113.252C21.5473 113.302 21.4658 113.329 21.3819 113.33C21.2973 113.33 21.2151 113.302 21.1474 113.252C21.0796 113.201 21.0301 113.13 21.0062 113.049L18.6242 105.21L17.033 109.033C17.0028 109.106 16.952 109.167 16.8869 109.211C16.8218 109.255 16.7454 109.278 16.667 109.278H10.6256C11.9326 110.732 13.5434 112.016 14.7589 113.199L16.3534 114.79" stroke="#EC1F26" stroke-opacity="0.28" stroke-linecap="round" stroke-linejoin="round"/>
<path d="M142.926 19.8365L142.527 19.1438L144.501 18.0198L144.896 18.7125" stroke="#EC1F26" stroke-opacity="0.28" stroke-linecap="round" stroke-linejoin="round"/>
<path d="M144.936 23.3619L143.72 21.2315V21.2282L145.687 20.1042H145.694L148.01 24.1689L146.04 25.2929L145.484 24.3225" stroke="#EC1F26" stroke-opacity="0.28" stroke-linecap="round" stroke-linejoin="round"/>
<path d="M146.17 26.7655L149.212 25.0291L148.549 23.8685L145.507 25.605L146.17 26.7655Z" stroke="#EC1F26" stroke-opacity="0.28" stroke-linecap="round" stroke-linejoin="round"/>
<path d="M144.491 14.6379L140.982 8.48535" stroke="#EC1F26" stroke-opacity="0.28" stroke-linecap="round" stroke-linejoin="round"/>
<path d="M146.344 17.8857L145.089 15.6868" stroke="#EC1F26" stroke-opacity="0.28" stroke-linecap="round" stroke-linejoin="round"/>
<path d="M137.715 14.0891L136.107 11.2693" stroke="#EC1F26" stroke-opacity="0.28" stroke-linecap="round" stroke-linejoin="round"/>
<path d="M141.472 20.6695L138.29 15.092" stroke="#EC1F26" stroke-opacity="0.28" stroke-linecap="round" stroke-linejoin="round"/>
<path d="M142.269 22.0581L143.72 21.2315V21.2282L145.69 20.1042H145.694L147.141 19.2776" stroke="#EC1F26" stroke-opacity="0.28" stroke-linecap="round" stroke-linejoin="round"/>
<path d="M136.744 10.9032L140.061 16.7062L140.874 16.2422L142.848 15.1149L143.655 14.651L140.345 8.85132" stroke="#EC1F26" stroke-opacity="0.28" stroke-linecap="round" stroke-linejoin="round"/>
<path d="M144.896 18.7124L144.501 18.0197L142.848 15.115" stroke="#EC1F26" stroke-opacity="0.28" stroke-linecap="round" stroke-linejoin="round"/>
<path d="M140.874 16.2422L142.527 19.1436L142.926 19.8363" stroke="#EC1F26" stroke-opacity="0.28" stroke-linecap="round" stroke-linejoin="round"/>
<path d="M143.72 21.2284L142.269 22.0583L141.92 22.2576L141.129 20.8657L141.472 20.6697L142.926 19.8365L144.896 18.7125L146.344 17.8858L146.693 17.6865L147.491 19.0752L147.141 19.2777L145.694 20.1044H145.69" stroke="#EC1F26" stroke-opacity="0.28" stroke-linecap="round" stroke-linejoin="round"/>
<path d="M137.535 6.76025L135.509 7.92018L136.303 9.31536" stroke="#EC1F26" stroke-opacity="0.28" stroke-linecap="round" stroke-linejoin="round"/>
<path d="M139.205 7.65885L138.407 6.26367" stroke="#EC1F26" stroke-opacity="0.28" stroke-linecap="round" stroke-linejoin="round"/>
<path d="M136.744 10.9033L140.345 8.85137L140.982 8.48542L141.332 8.28611L140.538 6.89746L139.205 7.65877L136.303 9.31534L134.963 10.0766L135.761 11.4653L136.107 11.2692L136.744 10.9033Z" stroke="#EC1F26" stroke-opacity="0.28" stroke-linecap="round" stroke-linejoin="round"/>
<path d="M136.767 6.89418L132.925 0.16333" stroke="#EC1F26" stroke-opacity="0.28" stroke-linecap="round" stroke-linejoin="round"/>
<path d="M78.4872 126.744C105.477 126.744 127.356 104.865 127.356 77.8749C127.356 50.8851 105.477 29.0056 78.4872 29.0056C51.4974 29.0056 29.6179 50.8851 29.6179 77.8749C29.6179 104.865 51.4974 126.744 78.4872 126.744Z" fill="#CCD1FF"/>
<path d="M44.7221 129.26L45.8064 104.489C45.8064 104.489 41.6644 117.327 39.4958 120.58C37.3272 123.833 35.7008 125.101 32.6268 124.559C29.5528 124.017 23.7735 114.611 23.7735 109.91C23.7735 105.21 28.6528 93.2773 29.7371 90.5666C30.8214 87.8558 36.6062 64.8904 37.3272 63.6218C38.0483 62.3531 61.5396 55.2835 61.5396 55.2835L63.166 51.8463C63.166 51.8463 87.2049 49.1193 88.8313 49.3199C90.4578 49.5205 90.2789 52.2149 90.2789 52.2149C90.2789 52.2149 93.2119 54.7522 93.5697 55.2944C93.9275 55.8365 107.275 62.3802 111.461 63.8224C115.646 65.2645 115.982 66.7174 116.161 67.4385C116.34 68.1595 127.194 92.5725 131.168 96.7145C135.142 100.857 125.02 108.832 121.588 110.268C118.156 111.705 113.456 110.989 111.829 108.457C110.203 105.926 106.18 102.678 106.18 102.678L106.863 129.634" fill="white"/>
<path d="M44.7221 129.26L45.8064 104.489C45.8064 104.489 41.6644 117.327 39.4958 120.58C37.3272 123.833 35.7008 125.101 32.6268 124.559C29.5528 124.017 23.7735 114.611 23.7735 109.91C23.7735 105.21 28.6528 93.2773 29.7371 90.5666C30.8214 87.8558 36.6062 64.8904 37.3272 63.6218C38.0483 62.3531 61.5396 55.2835 61.5396 55.2835L63.166 51.8463C63.166 51.8463 87.2049 49.1193 88.8313 49.3199C90.4578 49.5205 90.2789 52.2149 90.2789 52.2149C90.2789 52.2149 93.2119 54.7522 93.5697 55.2944C93.9275 55.8365 107.275 62.3802 111.461 63.8224C115.646 65.2645 115.982 66.7174 116.161 67.4385C116.34 68.1595 127.194 92.5725 131.168 96.7145C135.142 100.857 125.02 108.832 121.588 110.268C118.156 111.705 113.456 110.989 111.829 108.457C110.203 105.926 106.18 102.678 106.18 102.678L106.863 129.634" stroke="#05143A" stroke-linecap="round" stroke-linejoin="round"/>
<path d="M45.8065 104.489L45.5355 86.4138" stroke="#05143A" stroke-linecap="round" stroke-linejoin="round"/>
<path d="M44.2668 95.5164L44.6842 98.5036" stroke="#05143A" stroke-linecap="round" stroke-linejoin="round"/>
<path d="M42.5645 83.4429L43.8656 92.6973" stroke="#05143A" stroke-linecap="round" stroke-linejoin="round"/>
<path d="M104.25 91.3311C104.111 92.1534 104.038 92.9855 104.033 93.8195" stroke="#05143A" stroke-linecap="round" stroke-linejoin="round"/>
<path d="M109.092 78.2708C107.271 81.6784 105.817 85.2694 104.754 88.9836" stroke="#05143A" stroke-linecap="round" stroke-linejoin="round"/>
<path d="M103.67 84.0554C103.67 84.0554 102.222 88.9348 102.401 92.9141" stroke="#05143A" stroke-linecap="round" stroke-linejoin="round"/>
<path d="M83.3666 61.4153C82.9166 61.849 82.4504 62.2719 81.9733 62.6785" stroke="#05143A" stroke-linecap="round" stroke-linejoin="round"/>
<path d="M89.9158 53.115C88.4467 55.5343 86.7493 57.8072 84.8467 59.9027" stroke="#05143A" stroke-linecap="round" stroke-linejoin="round"/>
<path d="M74.0525 125.194L74.0145 129.439" stroke="#05143A" stroke-linecap="round" stroke-linejoin="round"/>
<path d="M74.4753 76.0208L74.0741 122.591" stroke="#05143A" stroke-linecap="round" stroke-linejoin="round"/>
<path d="M73.8356 60.5098L74.5566 63.947L74.497 73.4238" stroke="#05143A" stroke-linecap="round" stroke-linejoin="round"/>
<path d="M37.3273 108.647L33.5323 102.142L33.3534 109.553C33.3534 109.553 36.0425 110.274 37.3273 108.647Z" fill="white" stroke="#05143A" stroke-linecap="round" stroke-linejoin="round"/>
<path d="M44.5433 78.016L41.8217 80.6671L22.4833 60.0654L25.1994 57.4143L44.5433 78.016Z" fill="#05143A" stroke="#05143A" stroke-linecap="round" stroke-linejoin="round"/>
<path d="M24.9141 56.0766L21.1556 59.7393L22.2339 60.8458L25.9925 57.1832L24.9141 56.0766Z" fill="white" stroke="#05143A" stroke-linecap="round" stroke-linejoin="round"/>
<path d="M44.2024 78.3439L42.1718 80.3228L43.8139 82.0079L45.8446 80.029L44.2024 78.3439Z" fill="white" stroke="#05143A" stroke-linecap="round" stroke-linejoin="round"/>
<path d="M43.291 77.5118C43.2013 77.6016 43.0949 77.6729 42.9776 77.7215C42.8604 77.7701 42.7348 77.7952 42.6079 77.7952C42.481 77.7952 42.3553 77.7701 42.2381 77.7215C42.1209 77.6729 42.0144 77.6016 41.9248 77.5118L27.2434 61.6594C27.0633 61.4776 26.9622 61.2321 26.9622 60.9763C26.9622 60.7204 27.0633 60.4749 27.2434 60.2931C27.333 60.2033 27.4395 60.132 27.5567 60.0834C27.6739 60.0348 27.7996 60.0098 27.9265 60.0098C28.0534 60.0098 28.179 60.0348 28.2963 60.0834C28.4135 60.132 28.5199 60.2033 28.6096 60.2931L43.3289 76.1564C43.5034 76.3413 43.5974 76.5878 43.5903 76.842C43.5832 77.0961 43.4755 77.337 43.291 77.5118Z" fill="white" stroke="#05143A" stroke-linecap="round" stroke-linejoin="round"/>
<path d="M44.453 81.3804L45.1949 80.6579L55.6191 91.3625C55.7064 91.4521 55.7545 91.5727 55.7528 91.6978C55.7512 91.8229 55.6999 91.9422 55.6103 92.0294L55.5481 92.09C55.4575 92.1782 55.3355 92.2269 55.2089 92.2252C55.0824 92.2235 54.9617 92.1717 54.8735 92.081L44.453 81.3804Z" fill="white" stroke="#05143A" stroke-linecap="round" stroke-linejoin="round"/>
<path d="M26.4842 85.1397L23.9524 77.3653L25.3999 68.8644C25.3999 68.8644 29.3793 64.3429 29.9215 64.164C30.4636 63.9851 35.3429 63.9851 35.3429 63.9851C35.3429 63.9851 36.2483 63.6218 36.2483 64.5272C36.265 64.7657 36.2246 65.0048 36.1303 65.2245C36.036 65.4442 35.8906 65.6382 35.7062 65.7904C35.7062 65.7904 37.6904 65.9748 38.2326 65.9748C38.7747 65.9748 39.3169 66.3326 39.3169 67.238C39.3169 68.1434 37.8694 68.5066 37.3272 68.6855C36.7851 68.8644 34.7954 69.5909 34.7954 69.5909L31.7214 73.0227H35.1586C35.8308 73.0749 36.4958 73.1966 37.1429 73.3859C37.5061 73.9281 37.685 75.9178 37.685 75.9178C38.2939 76.8922 38.6083 78.0218 38.5904 79.1707C38.5904 81.1603 39.1326 82.2446 38.5904 82.4236C38.0483 82.6025 36.7851 83.5079 36.7851 82.6025C36.7768 81.9964 36.7152 81.3923 36.6007 80.7971L34.611 81.1549L33.89 82.6025C33.89 82.6025 35.5164 86.2186 35.5164 87.6661C35.5164 89.1137 34.7954 93.993 34.7954 93.993L34.0743 107.742C32.4385 107.637 30.8402 107.206 29.3739 106.473C26.6631 105.21 23.7681 100.51 23.7681 100.51L27.021 89.298L26.4842 85.1397Z" fill="#CCD1FF" stroke="#05143A" stroke-linecap="round" stroke-linejoin="round"/>
<path d="M29.195 98.1566C27.6715 97.9018 26.2674 96.7362 25.2048 95.5706L23.7735 100.51C23.7735 100.51 26.6686 105.21 29.3793 106.473C30.844 107.205 32.4403 107.636 34.0743 107.742L34.6165 97.3325C33.1472 97.8855 31.0437 98.4711 29.195 98.1566Z" fill="#D1D1D1" stroke="#05143A" stroke-linecap="round" stroke-linejoin="round"/>
<path d="M31.5209 79.1707C31.5209 79.1707 31.8841 78.2708 32.4263 78.0865C32.9684 77.9021 37.8477 76.6389 37.8477 76.6389" stroke="#05143A" stroke-linecap="round" stroke-linejoin="round"/>
<path d="M29.3522 75.9178L29.8944 74.107L31.7052 73.0227" stroke="#05143A" stroke-linecap="round" stroke-linejoin="round"/>
<path d="M27.1837 72.6649C27.1837 72.6649 29.5366 68.5066 30.2576 67.7856C30.9787 67.0645 35.137 66.1591 35.6791 65.7959" stroke="#05143A" stroke-linecap="round" stroke-linejoin="round"/>
<path d="M34.0744 107.742L37.3273 108.647C37.3273 108.647 38.2272 121.485 38.2272 123.112C38.2272 124.738 34.4322 126.728 30.2739 127.091C26.1156 127.454 19.6044 124.196 19.6044 121.301C19.6044 118.406 23.9416 98.7151 23.9416 98.7151C23.9416 98.7151 27.0264 106.836 34.0744 107.742Z" fill="white" stroke="#05143A" stroke-linecap="round" stroke-linejoin="round"/>
<path d="M83.41 99.6042C81.8634 99.5677 80.3351 99.2613 78.8939 98.6988C77.2061 98.0171 75.445 97.5332 73.6459 97.2567C72.5616 97.0724 70.5719 97.9778 69.1298 97.0724C67.6877 96.167 66.4191 95.4459 68.7666 94.5405C71.1141 93.6351 74.9145 94.7249 76.3566 94.9038C77.7988 95.0827 80.5149 94.5405 80.5149 94.5405L83.41 99.6042Z" fill="#CCD1FF" stroke="#05143A" stroke-linecap="round" stroke-linejoin="round"/>
<path d="M59.5499 101.41C67.0384 101.41 73.1091 99.1837 73.1091 96.4381C73.1091 93.6924 67.0384 91.4666 59.5499 91.4666C52.0614 91.4666 45.9908 93.6924 45.9908 96.4381C45.9908 99.1837 52.0614 101.41 59.5499 101.41Z" fill="#05143A" stroke="#05143A" stroke-linecap="round" stroke-linejoin="round"/>
<path d="M59.55 100.689C66.5414 100.689 72.2092 98.7856 72.2092 96.4382C72.2092 94.0907 66.5414 92.1877 59.55 92.1877C52.5585 92.1877 46.8908 94.0907 46.8908 96.4382C46.8908 98.7856 52.5585 100.689 59.55 100.689Z" fill="white" stroke="#05143A" stroke-linecap="round" stroke-linejoin="round"/>
<path d="M99.8695 112.621C99.8695 112.621 99.4087 104.44 99.4087 103.166C99.4087 101.892 105.372 104.017 105.372 104.017C105.372 104.017 102.244 111.9 99.8695 112.621Z" fill="white" stroke="#05143A" stroke-linecap="round" stroke-linejoin="round"/>
<path d="M102.927 96.1671C102.927 96.1671 96.4215 94.3618 94.6107 93.6353C92.7999 92.9088 83.952 88.9348 82.3256 87.8505C80.6991 86.7663 75.9987 86.403 75.9987 86.403C75.9987 86.403 71.8404 84.5977 71.2983 84.5977C70.7561 84.5977 62.9817 87.6716 61.3553 88.3927C59.7288 89.1138 59.9077 90.7456 60.6288 91.2878C61.3499 91.8299 68.4032 88.577 68.4032 88.577L66.4135 93.9985C66.4135 93.9985 63.8817 95.9882 64.7871 97.2514C65.6925 98.5146 68.4032 96.346 69.3086 95.8039C70.214 95.2617 75.4566 92.7299 75.4566 92.7299C75.4566 92.7299 70.7561 97.9725 69.8507 99.42C68.9454 100.868 71.1194 100.868 71.8404 100.504C72.5615 100.141 77.6252 96.346 77.6252 96.346C77.6252 96.346 85.0418 101.41 87.0314 101.41C89.0211 101.41 92.274 100.141 92.274 100.141L103.469 106.473C103.469 106.473 105.275 103.399 105.454 101.231C105.633 99.0622 105.638 96.3514 105.638 96.3514L102.927 96.1671Z" fill="#CCD1FF" stroke="#05143A" stroke-linecap="round" stroke-linejoin="round"/>
<path d="M66.419 93.9984L70.5773 90.3823L74.0145 88.7559" stroke="#05143A" stroke-linecap="round" stroke-linejoin="round"/>
<path d="M68.4087 88.5768L69.3141 86.5872" stroke="#05143A" stroke-linecap="round" stroke-linejoin="round"/>
<path d="M72.2092 89.8402L72.9302 87.6716" stroke="#05143A" stroke-linecap="round" stroke-linejoin="round"/>
<path d="M77.6306 96.3514L82.5154 95.0828" stroke="#05143A" stroke-linecap="round" stroke-linejoin="round"/>
<path d="M75.462 92.7351L77.9939 91.2876" stroke="#05143A" stroke-linecap="round" stroke-linejoin="round"/>
<path d="M101.03 95.6304C101.673 97.4921 101.773 99.4987 101.317 101.415C101.053 102.514 100.633 103.569 100.07 104.549L103.491 106.473C103.491 106.473 105.296 103.399 105.475 101.231C105.654 99.0622 105.66 96.3514 105.66 96.3514L102.949 96.1671L101.03 95.6304Z" fill="#D1D1D1" stroke="#05143A" stroke-linecap="round" stroke-linejoin="round"/>
<path d="M123.561 89.6611C123.561 89.6611 118.682 90.9243 116.687 92.0086C114.692 93.0929 106.744 94.1772 106.018 94.5405C105.291 94.9037 101.03 95.6248 101.03 95.6248C101.03 95.6248 103.128 99.962 102.044 103.394C100.959 106.826 99.875 112.61 99.875 112.61C99.875 112.61 109.092 115.142 117.056 113.152C125.02 111.163 130.257 105.373 131.694 104.652C133.13 103.93 133.862 100.857 133.862 99.409C133.862 97.9614 129.156 92.7188 128.072 92.361" fill="white"/>
<path d="M123.561 89.6611C123.561 89.6611 118.682 90.9243 116.687 92.0086C114.692 93.0929 106.744 94.1772 106.018 94.5405C105.291 94.9037 101.03 95.6248 101.03 95.6248C101.03 95.6248 103.128 99.962 102.044 103.394C100.959 106.826 99.875 112.61 99.875 112.61C99.875 112.61 109.092 115.142 117.056 113.152C125.02 111.163 130.257 105.373 131.694 104.652C133.13 103.93 133.862 100.857 133.862 99.409C133.862 97.9614 129.156 92.7188 128.072 92.361" stroke="#05143A" stroke-linecap="round" stroke-linejoin="round"/>
<path d="M71.667 13.5002C71.667 13.5002 66.419 15.1266 63.345 18.0217C60.2711 20.9168 60.2711 32.1176 60.2711 33.5705C60.2711 35.0235 59.7289 43.6924 60.0921 46.2243C60.4554 48.7561 67.6822 59.4256 72.5616 59.6045C77.4409 59.7834 85.031 54.0041 86.305 52.1933C87.832 50.0258 89.1637 47.7271 90.2844 45.3243C91.0055 43.5135 91.9109 37.0023 92.0898 35.0235C92.1907 33.3371 92.1907 31.6462 92.0898 29.9598C92.0898 29.9598 93.1741 24.7172 91.1898 21.2854C89.2055 17.8536 83.5997 13.6953 79.0728 12.9689C74.5458 12.2424 71.667 13.5002 71.667 13.5002Z" fill="white" stroke="#05143A" stroke-linecap="round" stroke-linejoin="round"/>
<path d="M60.271 30.8544C60.271 30.8544 64.066 27.6015 72.5669 27.4226C77.6649 27.3309 82.6401 28.9899 86.6628 32.123C86.6628 32.123 87.926 31.2176 87.5682 36.1024C87.2103 40.9871 86.6628 42.066 82.6888 43.5135C78.7149 44.9611 69.8562 46.067 66.0611 44.9827C62.2661 43.8984 60.2601 39.7239 60.0975 38.477C59.9348 37.23 60.271 30.8544 60.271 30.8544Z" fill="#D1D1D1" stroke="#05143A" stroke-linecap="round" stroke-linejoin="round"/>
<path d="M60.271 29.228C65.0917 31.1481 70.2683 32.0115 75.4512 31.7598C84.3099 31.402 91.3795 28.816 92.2578 28.6371C93.1361 28.4581 92.4476 30.0521 92.4476 30.0521L87.3622 32.6652C87.3622 32.6652 87.3622 37.5446 86.2779 39.171C85.1936 40.7975 82.8407 41.8817 80.3143 41.8817C77.7879 41.8817 75.4349 40.4396 73.9874 39.171C73.3802 38.6289 71.9977 38.8078 71.4556 39.5288C70.9134 40.2499 70.1924 41.3396 67.8394 41.1553C65.4865 40.9709 62.8083 40.4396 61.724 39.0192C60.6397 37.5988 60.2765 33.5977 60.2765 33.5977C60.2765 33.5977 60.0975 29.9545 60.271 29.228Z" fill="white" stroke="#05143A" stroke-linecap="round" stroke-linejoin="round"/>
<path d="M67.2864 56.7853C67.8353 58.2958 68.7947 59.6233 70.0568 60.6183C72.1875 62.3261 73.4669 62.9658 75.809 62.3261C78.1511 61.6863 85.6111 57.8533 83.0521 58.2762C81.5376 58.5319 80.0429 58.8943 78.5794 59.3605C78.5794 59.3605 83.2636 56.8016 86.2454 54.0312C87.0965 53.2749 87.6963 52.2768 87.9647 51.1704C88.233 50.064 88.1572 48.902 87.7471 47.8398C87.7471 47.8398 67.0804 54.2264 65.5895 53.3752C64.0986 52.524 67.2864 56.7853 67.2864 56.7853Z" fill="#05143A"/>
<path d="M92.0843 35.0181C92.1439 34.3946 92.1656 33.6735 92.1656 32.9688C91.6885 33.5488 89.585 36.0915 88.4681 37.3656C87.2049 38.8131 84.3099 41.1606 72.9193 40.6185C61.5288 40.0763 60.0975 38.477 60.0975 38.477C59.9836 41.4209 59.8969 44.8147 60.0975 46.246C60.4607 48.7778 67.6876 59.4473 72.5669 59.6262C77.4463 59.8051 85.0363 54.0258 86.3104 52.215C87.8373 50.0475 89.169 47.7488 90.2898 45.346L88.8422 47.5146L89.3844 38.6559L92.0843 35.0181Z" fill="#CCD1FF" stroke="#05143A" stroke-linecap="round" stroke-linejoin="round"/>
<path d="M71.1248 35.3758C71.1248 35.3758 68.9562 32.6651 64.4347 33.3862" stroke="#05143A" stroke-linecap="round" stroke-linejoin="round"/>
<path d="M76.7253 35.3759C76.7253 35.3759 79.6204 33.7494 84.5051 34.4759" stroke="#05143A" stroke-linecap="round" stroke-linejoin="round"/>
<path d="M64.9768 36.8506C64.9768 36.8506 66.6033 39.5613 69.8561 37.9349" stroke="#05143A" stroke-linecap="round" stroke-linejoin="round"/>
<path d="M77.4462 38.092C77.4462 38.092 79.2516 40.9817 83.5942 38.092" stroke="#05143A" stroke-linecap="round" stroke-linejoin="round"/>
<path d="M25.0042 129.574H128.495" stroke="#05143A" stroke-linecap="round" stroke-linejoin="round"/>
</g>
<defs>
<clipPath id="clip0_1_1217">
<rect width="150" height="144.423" fill="white"/>
</clipPath>
</defs>
</svg>
