<svg width="150" height="143" viewBox="0 0 150 143" fill="none" xmlns="http://www.w3.org/2000/svg">
<g clip-path="url(#clip0_1_1012)">
<path d="M120.612 14.1377C94.2316 -6.59345 46.2351 -6.25988 29.5754 26.8102C25.6006 34.7036 21.5697 42.7093 15.2101 48.9941C9.80752 54.3343 3.71288 59.6496 1.24073 67.0754C-4.24601 83.598 9.57683 96.0959 20.7685 105.61C31.396 114.651 37.4096 128.268 48.7946 136.311C55.8338 141.284 64.5128 143.241 73.0297 142.39C81.7586 141.517 88.3053 136.102 95.9992 132.474C101.835 129.724 107.989 129.066 114.043 127.174C119.224 125.547 124.309 122.292 128.533 118.881C137.773 111.424 144.432 100.962 147.687 89.5773C155.499 62.1436 142.78 31.5675 120.612 14.1377Z" fill="#CCD1FF"/>
<path opacity="0.7" d="M120.612 14.1377C94.2316 -6.59345 46.2351 -6.25988 29.5754 26.8102C25.6006 34.7036 21.5697 42.7093 15.2101 48.9941C9.80752 54.3343 3.71288 59.6496 1.24073 67.0754C-4.24601 83.598 9.57683 96.0959 20.7685 105.61C31.396 114.651 37.4096 128.268 48.7946 136.311C55.8338 141.284 64.5128 143.241 73.0297 142.39C81.7586 141.517 88.3053 136.102 95.9992 132.474C101.835 129.724 107.989 129.066 114.043 127.174C119.224 125.547 124.309 122.292 128.533 118.881C137.773 111.424 144.432 100.962 147.687 89.5773C155.499 62.1436 142.78 31.5675 120.612 14.1377Z" fill="white"/>
<g opacity="0.3">
<path d="M142.062 52.9727C146.997 48.0384 146.997 40.0383 142.062 35.104C137.128 30.1697 129.128 30.1697 124.194 35.104C119.259 40.0383 119.259 48.0384 124.194 52.9727C129.128 57.907 137.128 57.907 142.062 52.9727Z" stroke="#EC1F26" stroke-width="0.5" stroke-miterlimit="10"/>
<path d="M141.128 52.038C145.546 47.6199 145.546 40.4567 141.128 36.0386C136.709 31.6205 129.546 31.6205 125.128 36.0386C120.71 40.4567 120.71 47.6199 125.128 52.038C129.546 56.4561 136.709 56.4561 141.128 52.038Z" stroke="#EC1F26" stroke-width="0.5" stroke-miterlimit="10"/>
<path d="M135.161 46.8244L133.128 44.0374L126.301 50.3066" stroke="#EC1F26" stroke-width="0.5" stroke-miterlimit="10"/>
</g>
<g opacity="0.3">
<path d="M51.0672 83.8412H45.381V101.177H51.0672V83.8412Z" fill="white" stroke="#EC1F26" stroke-width="0.5" stroke-miterlimit="10"/>
<path d="M61.4702 75.3804H34.9811V97.293H61.4702V75.3804Z" fill="white" stroke="#EC1F26" stroke-width="0.5" stroke-miterlimit="10"/>
<path d="M59.6246 76.908H36.8235V95.7686H59.6246V76.908Z" fill="white" stroke="#EC1F26" stroke-width="0.5" stroke-miterlimit="10"/>
<path d="M105.819 100.482H18.5053V135.102H105.819V100.482Z" fill="white" stroke="#EC1F26" stroke-width="0.5" stroke-miterlimit="10"/>
<path d="M18.4772 118.51H105.43" stroke="#EC1F26" stroke-width="0.5" stroke-miterlimit="10"/>
<path d="M105.819 100.482H78.6661V135.102H105.819V100.482Z" fill="white" stroke="#EC1F26" stroke-width="0.5" stroke-miterlimit="10"/>
<path d="M107.509 100.482H16.8125V103.812H107.509V100.482Z" fill="white" stroke="#EC1F26" stroke-width="0.5" stroke-miterlimit="10"/>
<path d="M61.1927 103.843L62.5613 106.368H70.355L71.7298 103.843H61.1927Z" fill="white" stroke="#EC1F26" stroke-width="0.5" stroke-miterlimit="10"/>
<path d="M61.1927 118.401L62.5613 120.933H70.355L71.7298 118.401H61.1927Z" fill="white" stroke="#EC1F26" stroke-width="0.5" stroke-miterlimit="10"/>
<path d="M31.9291 103.843L33.3008 106.368H41.0944L42.4692 103.843H31.9291Z" fill="white" stroke="#EC1F26" stroke-width="0.5" stroke-miterlimit="10"/>
<path d="M31.9291 118.401L33.3008 120.933H41.0944L42.4692 118.401H31.9291Z" fill="white" stroke="#EC1F26" stroke-width="0.5" stroke-miterlimit="10"/>
</g>
<g opacity="0.3">
<path d="M136.071 98.9484H138.643V96.0398H136.071V98.9484Z" fill="#05143A" stroke="#EC1F26" stroke-width="0.5" stroke-miterlimit="10"/>
<path d="M135.064 96.71H139.987V94.9205H135.064V96.71Z" fill="#05143A" stroke="#EC1F26" stroke-width="0.5" stroke-miterlimit="10"/>
<path d="M131.928 127.592H143.004V98.0536H131.928V127.592Z" fill="white" stroke="#EC1F26" stroke-width="0.5" stroke-miterlimit="10"/>
<path d="M138.699 109.688C140.275 109.688 141.552 108.411 141.552 106.836C141.552 105.26 140.275 103.983 138.699 103.983C137.124 103.983 135.847 105.26 135.847 106.836C135.847 108.411 137.124 109.688 138.699 109.688Z" fill="#05143A" stroke="#EC1F26" stroke-width="0.5" stroke-miterlimit="10"/>
<path d="M115.437 135.111L120.518 128.733H135.173L140.214 135.111H115.437Z" fill="white" stroke="#EC1F26" stroke-width="0.5" stroke-miterlimit="10"/>
<path d="M135.644 128.823H115.568C115.099 128.823 114.649 128.637 114.318 128.305C113.986 127.974 113.8 127.524 113.8 127.055V126.921H137.412V127.055C137.412 127.288 137.366 127.517 137.277 127.732C137.188 127.946 137.058 128.141 136.894 128.305C136.73 128.469 136.535 128.6 136.321 128.688C136.106 128.777 135.876 128.823 135.644 128.823Z" fill="white" stroke="#EC1F26" stroke-width="0.5" stroke-miterlimit="10"/>
<path d="M122.754 88.8875L127.202 91.786L127.782 90.8954L123.334 87.9969L122.754 88.8875Z" fill="white" stroke="#EC1F26" stroke-width="0.5" stroke-miterlimit="10"/>
<path d="M119.155 86.928L123.316 89.6525L125.068 86.9762L120.907 84.2517L119.155 86.928Z" fill="#05143A" stroke="#EC1F26" stroke-width="0.5" stroke-miterlimit="10"/>
<path d="M136.963 84.1777H137.97V80.9325H136.963V84.1777Z" fill="#05143A" stroke="#EC1F26" stroke-width="0.5" stroke-miterlimit="10"/>
<path d="M136.517 90.3317H138.531V83.9533H136.517V90.3317Z" fill="white" stroke="#EC1F26" stroke-width="0.5" stroke-miterlimit="10"/>
<path d="M135.176 93.3525H139.875V89.6615H135.176V93.3525Z" fill="white" stroke="#EC1F26" stroke-width="0.5" stroke-miterlimit="10"/>
<path d="M127.582 87.8938L132.935 92.4141L144.816 93.4616L144.548 96.5167L130.21 95.2541L125.366 91.6379L127.582 87.8938Z" fill="white" stroke="#EC1F26" stroke-width="0.5" stroke-miterlimit="10"/>
</g>
<path d="M54.9141 26.8632C56.2657 26.8632 57.3613 25.7675 57.3613 24.416C57.3613 23.0644 56.2657 21.9688 54.9141 21.9688C53.5626 21.9688 52.4669 23.0644 52.4669 24.416C52.4669 25.7675 53.5626 26.8632 54.9141 26.8632Z" fill="white" stroke="#05143A" stroke-width="0.5" stroke-linecap="round" stroke-linejoin="round"/>
<path d="M75.7046 11.7279C75.7039 11.3957 75.6049 11.0711 75.4199 10.7952C75.2349 10.5193 74.9722 10.3044 74.6651 10.1777C74.358 10.051 74.0203 10.0181 73.6945 10.0833C73.3688 10.1485 73.0697 10.3088 72.835 10.5439C72.6003 10.779 72.4406 11.0784 72.376 11.4043C72.3114 11.7302 72.3449 12.0679 72.4721 12.3747C72.5994 12.6816 72.8148 12.9438 73.091 13.1283C73.3673 13.3128 73.692 13.4113 74.0242 13.4113C74.2452 13.4113 74.4639 13.3677 74.668 13.2831C74.8721 13.1984 75.0574 13.0744 75.2135 12.918C75.3696 12.7617 75.4933 12.5761 75.5776 12.3718C75.6618 12.1676 75.705 11.9488 75.7046 11.7279Z" fill="white" stroke="#05143A" stroke-width="0.5" stroke-linecap="round" stroke-linejoin="round"/>
<path d="M55.8307 8.05861C55.8307 7.96797 55.8038 7.87937 55.7535 7.80401C55.7031 7.72865 55.6316 7.66991 55.5478 7.63523C55.4641 7.60054 55.3719 7.59147 55.283 7.60915C55.1942 7.62683 55.1125 7.67048 55.0484 7.73457C54.9843 7.79866 54.9407 7.88031 54.923 7.96921C54.9053 8.0581 54.9144 8.15024 54.9491 8.23398C54.9838 8.31772 55.0425 8.38929 55.1179 8.43964C55.1932 8.49 55.2818 8.51688 55.3724 8.51688C55.494 8.51688 55.6106 8.4686 55.6965 8.38265C55.7824 8.29671 55.8307 8.18015 55.8307 8.05861Z" fill="white" stroke="#05143A" stroke-width="0.5" stroke-linecap="round" stroke-linejoin="round"/>
<path d="M8.439 5.29964C8.439 5.08815 8.37628 4.88142 8.25879 4.70557C8.14129 4.52973 7.97429 4.39267 7.77891 4.31174C7.58352 4.23081 7.36852 4.20963 7.1611 4.25089C6.95368 4.29215 6.76315 4.39399 6.6136 4.54354C6.46406 4.69308 6.36222 4.88361 6.32096 5.09103C6.2797 5.29845 6.30088 5.51345 6.38181 5.70884C6.46274 5.90423 6.5998 6.07123 6.77564 6.18872C6.95148 6.30622 7.15822 6.36893 7.36971 6.36893C7.6533 6.36893 7.92528 6.25627 8.12581 6.05574C8.32634 5.85521 8.439 5.58323 8.439 5.29964Z" fill="white" stroke="#05143A" stroke-width="0.5" stroke-linecap="round" stroke-linejoin="round"/>
<path d="M7.67519 38.7875C8.26574 38.7875 8.74448 38.3088 8.74448 37.7182C8.74448 37.1277 8.26574 36.6489 7.67519 36.6489C7.08463 36.6489 6.6059 37.1277 6.6059 37.7182C6.6059 38.3088 7.08463 38.7875 7.67519 38.7875Z" fill="white" stroke="#05143A" stroke-width="0.5" stroke-linecap="round" stroke-linejoin="round"/>
<path d="M55.5252 60.192C56.8767 60.192 57.9724 59.0964 57.9724 57.7448C57.9724 56.3933 56.8767 55.2976 55.5252 55.2976C54.1736 55.2976 53.0779 56.3933 53.0779 57.7448C53.0779 59.0964 54.1736 60.192 55.5252 60.192Z" fill="white" stroke="#05143A" stroke-width="0.5" stroke-linecap="round" stroke-linejoin="round"/>
<path d="M8.13346 112.017C8.13346 111.805 8.07074 111.598 7.95325 111.423C7.83575 111.247 7.66875 111.11 7.47336 111.029C7.27798 110.948 7.06298 110.927 6.85556 110.968C6.64813 111.009 6.4576 111.111 6.30806 111.261C6.15852 111.41 6.05668 111.601 6.01542 111.808C5.97416 112.015 5.99534 112.23 6.07627 112.426C6.1572 112.621 6.29425 112.788 6.4701 112.906C6.64594 113.023 6.85268 113.086 7.06416 113.086C7.34776 113.086 7.61974 112.973 7.82027 112.773C8.0208 112.572 8.13346 112.3 8.13346 112.017Z" fill="white" stroke="#05143A" stroke-width="0.5" stroke-linecap="round" stroke-linejoin="round"/>
<path d="M29.1803 118.816C30.9094 118.422 31.9916 116.701 31.5975 114.972C31.2034 113.243 29.4822 112.161 27.7532 112.555C26.0242 112.949 24.942 114.67 25.3361 116.399C25.7302 118.128 27.4513 119.21 29.1803 118.816Z" fill="white" stroke="#05143A" stroke-width="0.5" stroke-linecap="round" stroke-linejoin="round"/>
<path d="M54.9142 105.748C55.5891 105.748 56.1362 105.2 56.1362 104.526C56.1362 103.851 55.5891 103.303 54.9142 103.303C54.2393 103.303 53.6921 103.851 53.6921 104.526C53.6921 105.2 54.2393 105.748 54.9142 105.748Z" fill="white" stroke="#05143A" stroke-width="0.5" stroke-linecap="round" stroke-linejoin="round"/>
<path d="M5.68937 73.7966C5.68998 73.6448 5.64553 73.4962 5.56164 73.3697C5.47775 73.2432 5.35819 73.1444 5.21811 73.0859C5.07804 73.0274 4.92374 73.0117 4.77478 73.041C4.62581 73.0702 4.48887 73.143 4.3813 73.2501C4.27374 73.3573 4.20039 73.4939 4.17054 73.6427C4.1407 73.7916 4.1557 73.946 4.21366 74.0863C4.27161 74.2266 4.3699 74.3465 4.49608 74.4309C4.62226 74.5153 4.77066 74.5604 4.92247 74.5604C5.12532 74.5604 5.31992 74.48 5.46365 74.3369C5.60738 74.1937 5.68854 73.9995 5.68937 73.7966Z" fill="white" stroke="#05143A" stroke-width="0.5" stroke-linecap="round" stroke-linejoin="round"/>
<path d="M108.728 20.7499C108.728 20.447 108.639 20.1507 108.471 19.8986C108.304 19.6465 108.065 19.4498 107.785 19.3335C107.505 19.2171 107.198 19.1864 106.9 19.2451C106.603 19.3038 106.33 19.4493 106.116 19.6633C105.902 19.8772 105.755 20.15 105.696 20.447C105.637 20.744 105.667 21.0519 105.783 21.3318C105.898 21.6117 106.095 21.8509 106.346 22.0192C106.598 22.1876 106.894 22.2774 107.197 22.2774C107.603 22.2774 107.991 22.1166 108.278 21.8302C108.565 21.5438 108.727 21.1553 108.728 20.7499Z" fill="white" stroke="#05143A" stroke-width="0.5" stroke-linecap="round" stroke-linejoin="round"/>
<path d="M94.5091 24.7214C95.2684 24.7214 95.8839 24.1059 95.8839 23.3466C95.8839 22.5873 95.2684 21.9718 94.5091 21.9718C93.7498 21.9718 93.1343 22.5873 93.1343 23.3466C93.1343 24.1059 93.7498 24.7214 94.5091 24.7214Z" fill="white" stroke="#05143A" stroke-width="0.5" stroke-linecap="round" stroke-linejoin="round"/>
<path d="M125.238 84.0375C125.913 84.0375 126.46 83.4903 126.46 82.8154C126.46 82.1405 125.913 81.5934 125.238 81.5934C124.563 81.5934 124.016 82.1405 124.016 82.8154C124.016 83.4903 124.563 84.0375 125.238 84.0375Z" fill="white" stroke="#05143A" stroke-width="0.5" stroke-linecap="round" stroke-linejoin="round"/>
<path d="M63.3126 60.7345L67.4963 48.9692C67.4963 48.9692 69.85 40.2123 72.2036 37.4658C74.5573 34.7193 78.9997 35.6358 78.9997 35.6358C78.9997 35.6358 83.5762 30.4078 84.6112 31.9759C85.6462 33.544 81.9956 36.5523 81.2131 38.1204C80.4306 39.6885 79.2522 43.6103 78.0769 45.833C76.9017 48.0558 74.0242 50.2754 74.0242 50.2754L73.5099 63.5964L64.0982 67.2563L63.3126 60.7345Z" fill="white" stroke="#05143A" stroke-width="0.5" stroke-linecap="round" stroke-linejoin="round"/>
<path d="M78.9997 35.6358C78.9997 35.6358 74.5542 34.7193 72.2036 37.4658C69.8531 40.2123 67.4963 48.9692 67.4963 48.9692L65.0179 55.943C65.9725 56.8988 67.2081 57.5237 68.5437 57.7262C70.4984 57.988 72.3907 57.2087 73.7936 56.3607L74.0336 50.2754C74.0336 50.2754 76.9079 48.0527 78.0863 45.833C79.2647 43.6134 80.4369 39.6885 81.2225 38.1204C82.0081 36.5523 85.668 33.544 84.6205 31.9759C83.573 30.4078 78.9997 35.6358 78.9997 35.6358Z" fill="#CCD1FF" stroke="#05143A" stroke-width="0.5" stroke-linecap="round" stroke-linejoin="round"/>
<path d="M79.9163 36.8112H83.969V49.069C83.969 49.2451 83.9343 49.4194 83.8669 49.582C83.7996 49.7447 83.7008 49.8924 83.5763 50.0169C83.4519 50.1414 83.3041 50.2401 83.1414 50.3075C82.9788 50.3749 82.8045 50.4095 82.6285 50.4095H81.2537C81.0776 50.4095 80.9033 50.3749 80.7407 50.3075C80.578 50.2401 80.4302 50.1414 80.3058 50.0169C80.1813 49.8924 80.0826 49.7447 80.0152 49.582C79.9478 49.4194 79.9131 49.2451 79.9131 49.069V36.8112H79.9163Z" stroke="#05143A" stroke-width="0.5" stroke-linecap="round" stroke-linejoin="round"/>
<path d="M81.9395 49.3589C81.5845 49.358 81.2444 49.2164 80.9936 48.9651C80.7429 48.7138 80.6021 48.3733 80.6021 48.0183V38.1422H83.28V48.009C83.2813 48.1858 83.2475 48.3611 83.1807 48.5249C83.1139 48.6886 83.0153 48.8375 82.8907 48.9629C82.7661 49.0884 82.6179 49.188 82.4547 49.2559C82.2914 49.3239 82.1163 49.3589 81.9395 49.3589Z" fill="#CCD1FF"/>
<path d="M68.5438 47.663C68.5438 47.663 68.8025 40.8638 69.3262 38.772C69.85 36.6802 75.4708 32.6306 76.2564 32.6306C77.042 32.6306 85.4061 34.7193 85.7958 35.8977C86.1855 37.0761 84.8824 38.772 82.9215 39.4267C80.9606 40.0814 73.9027 41.1257 73.9027 41.1257C73.9027 41.1257 74.8161 45.7022 73.6408 47.4012" fill="#CCD1FF"/>
<path d="M68.5438 47.663C68.5438 47.663 68.8025 40.8638 69.3262 38.772C69.85 36.6802 75.4708 32.6306 76.2564 32.6306C77.042 32.6306 85.4061 34.7193 85.7958 35.8977C86.1855 37.0761 84.8824 38.772 82.9215 39.4267C80.9606 40.0814 73.9027 41.1257 73.9027 41.1257C73.9027 41.1257 74.8161 45.7022 73.6408 47.4012" stroke="#05143A" stroke-width="0.5" stroke-linecap="round" stroke-linejoin="round"/>
<path d="M83.8349 39.1648C83.8349 39.1648 84.3586 37.9895 83.7071 37.8586C83.0555 37.7277 77.5626 37.7214 76.3779 37.7214C75.1933 37.7214 72.0665 38.7658 72.0665 38.7658" stroke="#05143A" stroke-width="0.5" stroke-linecap="round" stroke-linejoin="round"/>
<path d="M85.2752 37.4657C84.9449 36.9197 84.4361 36.5045 83.8349 36.2905C82.9215 36.0286 77.5626 35.7667 75.7295 35.7667C73.8964 35.7667 71.8077 36.5523 71.8077 36.5523" stroke="#05143A" stroke-width="0.5" stroke-linecap="round" stroke-linejoin="round"/>
<path d="M108.41 65.9625C109.424 69.1333 110.647 72.2336 112.07 75.2432C114.424 80.2093 114.162 85.0477 113.379 86.092C112.597 87.1364 109.85 87.3982 109.85 87.3982C109.85 87.3982 102.92 84.0002 101.483 80.4712C100.046 76.9422 102.007 67.5306 104.098 66.7544C105.485 66.265 106.94 65.9978 108.41 65.9625Z" fill="#05143A" stroke="#05143A" stroke-width="0.5" stroke-linecap="round" stroke-linejoin="round"/>
<path d="M87.367 76.2876L81.8772 77.2041C81.8772 77.2041 80.0441 74.8504 78.2141 74.7101C76.3842 74.5698 72.9861 74.4483 72.9861 74.4483L73.6408 62.5551C73.6408 62.5551 66.4519 64.516 65.9282 64.7748C65.4045 65.0335 63.4342 59.9396 63.4342 59.9396C63.4342 59.9396 53.5113 86.4848 52.997 88.7075C52.4826 90.9303 53.6516 93.6737 55.4909 95.7655C57.3302 97.8573 64.2479 97.8573 64.7716 97.8573C65.2954 97.8573 68.4315 99.0326 69.9996 99.1635C71.5677 99.2945 75.611 97.8573 75.611 97.8573C75.611 97.8573 70.3831 128.72 69.7284 131.058C69.0737 133.396 68.684 135.111 68.684 135.111H126.981C126.981 135.111 124.627 122.039 123.19 116.288C121.753 110.536 119.137 96.2892 119.006 94.5902C118.875 92.8912 118.744 88.4457 117.176 86.7467C115.608 85.0476 108.678 81.7774 108.285 81.6496C107.892 81.5218 94.3003 75.636 94.3003 75.636L87.367 76.2876Z" fill="white" stroke="#05143A" stroke-width="0.5" stroke-linecap="round" stroke-linejoin="round"/>
<path d="M72.6463 91.585L72.5933 94.0665" stroke="#05143A" stroke-width="0.5" stroke-linecap="round" stroke-linejoin="round"/>
<path d="M72.9861 74.8505L72.6682 90.4035" stroke="#05143A" stroke-width="0.5" stroke-linecap="round" stroke-linejoin="round"/>
<path d="M72.9861 78.3794L74.947 92.6293" stroke="#05143A" stroke-width="0.5" stroke-linecap="round" stroke-linejoin="round"/>
<path d="M62.7671 81.9894L62.552 84.3524" stroke="#05143A" stroke-width="0.5" stroke-linecap="round" stroke-linejoin="round"/>
<path d="M64.0079 68.5126L62.9542 79.9693" stroke="#05143A" stroke-width="0.5" stroke-linecap="round" stroke-linejoin="round"/>
<path d="M83.9035 80.8203L84.7514 82.1702" stroke="#05143A" stroke-width="0.5" stroke-linecap="round" stroke-linejoin="round"/>
<path d="M81.8771 77.5969L83.52 80.2125" stroke="#05143A" stroke-width="0.5" stroke-linecap="round" stroke-linejoin="round"/>
<path d="M104.388 121.506C103.968 125.247 103.968 133.281 103.968 133.281" stroke="#05143A" stroke-width="0.5" stroke-linecap="round" stroke-linejoin="round"/>
<path d="M104.6 100.984C104.66 101.626 104.709 102.287 104.75 102.954C105.087 108.313 105.04 115.112 104.694 119.006" stroke="#05143A" stroke-width="0.5" stroke-linecap="round" stroke-linejoin="round"/>
<path d="M103.188 91.3199C103.188 91.3199 103.968 94.8645 104.466 99.5594" stroke="#05143A" stroke-width="0.5" stroke-linecap="round" stroke-linejoin="round"/>
<path d="M116.771 119.181C116.391 125.609 116.646 135.111 116.646 135.111" stroke="#05143A" stroke-width="0.5" stroke-linecap="round" stroke-linejoin="round"/>
<path d="M114.816 98.2501C114.816 98.2501 118.083 110.012 117.17 115.243C117.048 115.929 116.952 116.777 116.858 117.737" stroke="#05143A" stroke-width="0.5" stroke-linecap="round" stroke-linejoin="round"/>
<path d="M76.6678 113.66C76.8911 113.039 77.0805 112.406 77.2352 111.764" stroke="#05143A" stroke-width="0.5" stroke-linecap="round" stroke-linejoin="round"/>
<path d="M70.6886 126.161C70.6886 126.161 74.2363 119.817 76.1691 114.975" stroke="#05143A" stroke-width="0.5" stroke-linecap="round" stroke-linejoin="round"/>
<path d="M93.2466 70.6667C93.2466 70.6667 91.8094 68.8368 91.2888 69.8842C90.7682 70.9317 86.0577 74.8504 86.0577 74.8504C86.0577 74.8504 85.5371 79.034 86.1886 81.397C86.8402 83.7601 87.2361 85.4497 87.498 85.8394C87.7598 86.2291 90.896 81.7867 92.4641 81.6589C94.0322 81.5311 95.0796 81.9177 96.2549 82.7033C97.4302 83.4889 101.985 90.6403 101.985 90.6403C101.985 90.6403 105.012 86.2322 105.143 85.4497C105.274 84.6673 106.059 84.0095 106.449 83.7476C106.839 83.4857 111.287 85.1879 112.06 85.5776C112.834 85.9672 113.501 88.8478 113.763 87.8003C114.024 86.7528 110.112 82.8248 108.8 80.864C107.487 78.9031 105.533 74.8504 103.572 73.806C101.611 72.7617 93.2466 70.6667 93.2466 70.6667Z" fill="white" stroke="#05143A" stroke-width="0.5" stroke-linecap="round" stroke-linejoin="round"/>
<path d="M92.9878 63.3469L92.0713 72.7586C92.0713 72.7586 98.0849 82.9558 98.8674 83.7383C99.6499 84.5208 101.483 90.7993 102.53 89.3497C103.578 87.9001 104.36 82.5536 104.36 80.4618C104.36 78.37 104.747 68.5843 104.747 68.5843C104.747 68.5843 99.1355 68.0637 97.1652 66.8852C95.195 65.7068 92.9878 63.3469 92.9878 63.3469Z" fill="white" stroke="#05143A" stroke-width="0.5" stroke-linecap="round" stroke-linejoin="round"/>
<path d="M92.9878 63.3469L92.8756 64.4817L104.41 77.7247C104.532 74.0835 104.747 68.5843 104.747 68.5843C104.747 68.5843 99.1355 68.0637 97.1652 66.8852C95.195 65.7068 92.9878 63.3469 92.9878 63.3469Z" fill="#05143A" stroke="#05143A" stroke-width="0.5" stroke-linecap="round" stroke-linejoin="round"/>
<path d="M105.012 94.849L106.449 103.871L116.777 105.046L114.947 96.6821L105.012 94.849Z" fill="white" stroke="#05143A" stroke-width="0.5" stroke-linecap="round" stroke-linejoin="round"/>
<path d="M103.575 40.471C103.575 40.471 102.268 37.2039 97.2992 39.6886C92.33 42.1732 90.6341 50.0136 90.6341 51.8467C90.6341 53.6797 89.9794 55.7684 91.1578 55.7684C92.3362 55.7684 93.7703 52.3704 94.6868 51.0642C95.6033 49.758 102.92 46.3568 104.488 46.4878C106.056 46.6187 111.549 53.5457 111.549 53.5457L111.68 57.7293C111.68 57.7293 116.253 55.7685 117.17 52.2395C118.087 48.7105 113.379 42.0454 109.326 39.9535C105.274 37.8617 103.575 40.471 103.575 40.471Z" fill="#05143A" stroke="#05143A" stroke-width="0.5" stroke-linecap="round" stroke-linejoin="round"/>
<path d="M92.5888 53.4147C92.5888 53.4147 92.065 50.5373 90.6279 51.856C89.1907 53.1747 89.8423 58.4027 90.7588 58.917C91.6754 59.4314 92.3176 57.0871 92.3176 57.0871L92.5888 53.4147Z" fill="white" stroke="#05143A" stroke-width="0.5" stroke-linecap="round" stroke-linejoin="round"/>
<path d="M92.3332 50.5373C92.3332 50.5373 92.0713 59.1633 92.0713 61.386C92.0713 63.6088 92.4641 65.0459 95.9931 67.6615C99.522 70.277 101.876 70.9286 104.229 70.0152C106.583 69.1018 109.841 66.8759 110.371 65.1769C110.901 63.4779 112.463 53.8044 112.865 52.6291C113.267 51.4538 105.414 45.1783 104.89 44.6546C104.576 44.3416 104.158 44.1551 103.715 44.1309C103.715 44.1309 101.623 45.4402 97.9633 47.2701C94.3034 49.1001 93.3869 49.7641 93.3869 49.7641C93.3869 49.7641 92.5888 53.4147 92.3332 50.5373Z" fill="white" stroke="#05143A" stroke-width="0.5" stroke-linecap="round" stroke-linejoin="round"/>
<path d="M99.9117 51.4383C99.8493 52.0462 99.5376 52.5169 99.2165 52.4826C98.8954 52.4483 98.6803 51.9308 98.7426 51.3198C98.805 50.7088 99.1136 50.2412 99.4378 50.2723C99.7621 50.3035 99.974 50.8366 99.9117 51.4383Z" fill="#05143A"/>
<path d="M108.41 53.0219C108.351 53.6454 108.039 54.1005 107.715 54.0662C107.39 54.032 107.179 53.5145 107.241 52.9034C107.303 52.2924 107.615 51.8248 107.936 51.856C108.257 51.8871 108.488 52.4109 108.41 53.0219Z" fill="#05143A"/>
<path d="M97.0374 49.1002C97.6479 48.5954 98.3851 48.2675 99.1688 48.1521C99.9525 48.0367 100.753 48.1382 101.483 48.4455" stroke="#05143A" stroke-width="0.5" stroke-linecap="round" stroke-linejoin="round"/>
<path d="M111.418 52.3735C109.981 50.1507 107.104 50.5435 107.104 50.5435C107.104 50.5435 106.19 52.1022 106.059 53.1591" stroke="#05143A" stroke-width="0.5" stroke-linecap="round" stroke-linejoin="round"/>
<path d="M104.488 53.1528C101.901 52.2176 93.814 54.1255 92.2178 54.5214C92.1492 57.0964 92.0713 60.1827 92.0713 61.3798C92.0713 63.6026 92.4641 65.0397 95.9931 67.6553C99.522 70.2708 101.876 70.9224 104.229 70.0089C106.583 69.0955 109.841 66.8697 110.371 65.1706C110.661 64.2354 111.262 60.8966 111.814 57.8789C110.246 56.6506 106.686 53.9509 104.488 53.1528Z" fill="white" stroke="#05143A" stroke-width="0.5" stroke-linecap="round" stroke-linejoin="round"/>
<path d="M93.2466 56.6818C93.2466 56.6818 97.823 55.5034 101.745 55.7653" stroke="#05143A" stroke-width="0.5" stroke-linecap="round" stroke-linejoin="round"/>
<path d="M97.4333 59.9895L99.3911 59.949" stroke="#05143A" stroke-width="0.5" stroke-linecap="round" stroke-linejoin="round"/>
<path d="M92.8569 60.0798L96.258 60.0112" stroke="#05143A" stroke-width="0.5" stroke-linecap="round" stroke-linejoin="round"/>
<path d="M110.24 62.6954L107.497 61.9098" stroke="#05143A" stroke-width="0.5" stroke-linecap="round" stroke-linejoin="round"/>
<path d="M108.803 57.2056L111.025 58.2499" stroke="#05143A" stroke-width="0.5" stroke-linecap="round" stroke-linejoin="round"/>
<path d="M92.9878 62.8263C92.9878 62.8263 95.6002 63.7397 97.0405 63.7397" stroke="#05143A" stroke-width="0.5" stroke-linecap="round" stroke-linejoin="round"/>
<path d="M111.814 57.8851C111.814 57.8851 113.248 56.289 113.248 58.2499C113.248 60.2107 110.895 62.3026 110.895 62.3026L111.814 57.8851Z" fill="white" stroke="#05143A" stroke-width="0.5" stroke-linecap="round" stroke-linejoin="round"/>
<path d="M36.6115 76.3343C36.5132 76.3341 36.4158 76.315 36.3247 76.2782L20.0016 69.772C19.8214 69.6881 19.68 69.5384 19.6065 69.3537C19.533 69.1689 19.5329 68.963 19.6062 68.7782C19.6795 68.5934 19.8206 68.4435 20.0008 68.3594C20.1809 68.2752 20.3865 68.2631 20.5752 68.3255L36.9014 74.8192C37.0714 74.8853 37.2129 75.0089 37.3011 75.1686C37.3894 75.3283 37.4188 75.5138 37.3843 75.693C37.3498 75.8721 37.2536 76.0335 37.1124 76.1489C36.9712 76.2644 36.7939 76.3267 36.6115 76.3249V76.3343Z" fill="white" stroke="#05143A" stroke-width="0.5" stroke-linecap="round" stroke-linejoin="round"/>
<path d="M20.5753 68.3255C20.3845 68.2536 20.1731 68.2593 19.9865 68.3414C19.7998 68.4235 19.6528 68.5755 19.577 68.7648C19.5011 68.954 19.5024 69.1655 19.5806 69.3538C19.6589 69.5421 19.8078 69.6922 19.9954 69.772L26.6325 72.4187C26.7374 72.1487 26.8955 71.9025 27.0974 71.6947C27.2993 71.4869 27.5409 71.3218 27.8078 71.2091L20.5753 68.3255Z" fill="white" stroke="#05143A" stroke-width="0.5" stroke-linecap="round" stroke-linejoin="round"/>
<path d="M43.8316 18.2871C44.7866 16.8736 45.1872 15.1577 44.957 13.4675C44.1511 12.2913 43.1419 11.2683 41.9767 10.4467C42.2167 10.6212 41.9455 13.1931 41.9455 13.5641C41.9455 13.9943 41.6337 16.4197 41.9767 16.6816C42.6405 17.1618 43.2612 17.699 43.8316 18.2871Z" fill="#05143A" stroke="#05143A" stroke-width="0.5" stroke-linecap="round" stroke-linejoin="round"/>
<path d="M44.1901 63.6961C42.6688 60.5942 38.8904 58.4463 36.1221 56.6382C32.1878 54.0725 28.0946 51.7531 24.2165 49.1033C22.2088 47.7316 19.3626 45.9858 17.9285 43.6945C17.9285 43.6945 17.0588 46.7215 17.3799 48.327C17.4329 48.592 17.4921 48.8601 17.5544 49.1251C17.7943 49.6198 18.0949 50.0826 18.4492 50.503C21.0491 53.6797 24.9397 55.8838 28.3689 58.0255C32.3281 60.4976 36.4307 62.8139 40.1311 65.6695C41.2173 66.4661 42.22 67.3706 43.1239 68.3692C43.5923 67.8679 43.9766 67.2942 44.2618 66.6702C44.3779 66.3728 44.4727 66.0676 44.5455 65.7568C44.5704 65.6757 44.5922 65.6102 44.6141 65.5572C44.6359 65.5042 44.6141 65.3951 44.6141 65.3172C44.585 64.7535 44.4408 64.2018 44.1901 63.6961Z" fill="#05143A" stroke="#05143A" stroke-width="0.5" stroke-linecap="round" stroke-linejoin="round"/>
<path d="M43.1176 67.4619H43.049L24.0044 65.8034C23.7977 65.7853 23.6067 65.6857 23.4734 65.5267C23.3401 65.3677 23.2755 65.1622 23.2937 64.9555C23.3119 64.7488 23.4114 64.5578 23.5704 64.4245C23.7295 64.2912 23.9349 64.2265 24.1416 64.2447L43.18 65.9001C43.3867 65.9088 43.5815 65.9992 43.7215 66.1515C43.8615 66.3038 43.9353 66.5055 43.9266 66.7122C43.9179 66.9189 43.8275 67.1137 43.6752 67.2537C43.5229 67.3937 43.3212 67.4675 43.1145 67.4588L43.1176 67.4619Z" fill="white" stroke="#05143A" stroke-width="0.5" stroke-linecap="round" stroke-linejoin="round"/>
<path d="M24.1447 64.2511C23.938 64.2329 23.7326 64.2975 23.5735 64.4308C23.4145 64.5641 23.315 64.7551 23.2968 64.9618C23.2786 65.1685 23.3433 65.374 23.4766 65.533C23.6098 65.692 23.8009 65.7916 24.0076 65.8098L32.3686 66.5362C32.3931 66.0076 32.5135 65.4879 32.724 65.0024L24.1447 64.2511Z" fill="white" stroke="#05143A" stroke-width="0.5" stroke-linecap="round" stroke-linejoin="round"/>
<path d="M38.5038 62.259C38.4355 62.2581 38.3676 62.2497 38.3011 62.234L32.1535 60.5755C32.0498 60.5537 31.9516 60.5109 31.865 60.4498C31.7784 60.3887 31.7051 60.3106 31.6497 60.2202C31.5943 60.1298 31.558 60.0291 31.5428 59.9242C31.5277 59.8192 31.5341 59.7123 31.5617 59.61C31.5893 59.5076 31.6375 59.412 31.7034 59.3289C31.7692 59.2458 31.8513 59.177 31.9446 59.1268C32.0379 59.0765 32.1405 59.0458 32.2461 59.0365C32.3517 59.0273 32.4581 59.0397 32.5588 59.0729L38.7064 60.7283C38.8878 60.7783 39.045 60.8923 39.149 61.0492C39.2529 61.2061 39.2966 61.3953 39.2719 61.5819C39.2472 61.7685 39.1558 61.9398 39.0146 62.0643C38.8734 62.1887 38.692 62.2579 38.5038 62.259Z" fill="white" stroke="#05143A" stroke-width="0.5" stroke-linecap="round" stroke-linejoin="round"/>
<path d="M33.0638 58.2374C32.9484 58.2383 32.8343 58.2127 32.7303 58.1626L28.4749 56.1518C28.3786 56.1106 28.2917 56.0505 28.2191 55.9749C28.1466 55.8994 28.0901 55.81 28.0529 55.7121C28.0157 55.6142 27.9986 55.5098 28.0027 55.4051C28.0067 55.3005 28.0318 55.1978 28.0764 55.103C28.1211 55.0083 28.1843 54.9235 28.2625 54.8538C28.3406 54.7841 28.432 54.7308 28.5312 54.6972C28.6303 54.6635 28.7353 54.6502 28.8397 54.6581C28.9441 54.6659 29.0459 54.6947 29.139 54.7427L33.3974 56.7535C33.5575 56.8292 33.687 56.9571 33.7646 57.1163C33.8423 57.2754 33.8634 57.4562 33.8246 57.629C33.7858 57.8017 33.6893 57.9561 33.551 58.0667C33.4127 58.1773 33.2409 58.2375 33.0638 58.2374Z" fill="white" stroke="#05143A" stroke-width="0.5" stroke-linecap="round" stroke-linejoin="round"/>
<path d="M42.8309 98.674C42.8309 98.674 43.9438 97.0966 43.9438 95.7561C43.9438 95.7374 43.9438 95.7218 43.9438 95.7062C43.1676 91.7002 39.9503 88.8883 36.5803 86.5938C32.1099 83.5481 27.1407 81.3471 22.7575 78.1891C21.1988 77.0668 19.5808 75.7513 18.6736 74.0242C18.6425 73.9712 18.6144 73.9151 18.5863 73.859C18.422 73.5015 18.2834 73.1327 18.1717 72.7554C18.1125 72.5715 18.1218 72.3657 18.0657 72.1849C18.0377 72.1038 18.0158 72.4966 17.9971 73.0858C17.9784 73.675 17.9722 74.4045 17.9691 75.0997C17.9317 76.3467 17.8818 77.6186 18.1281 78.8033C18.4835 80.5148 19.7242 81.9207 20.9993 83.0337C25.0239 86.5969 30.1771 88.7885 34.7161 91.6129C37.447 93.3213 40.9822 95.6376 42.8309 98.674Z" fill="#05143A" stroke="#05143A" stroke-width="0.5" stroke-linecap="round" stroke-linejoin="round"/>
<path d="M28.927 85.4404H28.8646L24.2539 85.0819C24.0481 85.066 23.857 84.9691 23.7226 84.8124C23.5882 84.6558 23.5214 84.4523 23.5369 84.2464C23.5435 84.1441 23.5706 84.0441 23.6164 83.9524C23.6622 83.8606 23.7259 83.779 23.8038 83.7122C23.8816 83.6454 23.972 83.5948 24.0696 83.5634C24.1673 83.532 24.2702 83.5205 24.3723 83.5294L28.9924 83.8817C29.1991 83.8895 29.3942 83.9792 29.5349 84.1309C29.6755 84.2826 29.75 84.484 29.7422 84.6907C29.7343 84.8974 29.6447 85.0925 29.493 85.2331C29.3413 85.3737 29.1399 85.4483 28.9332 85.4404H28.927Z" fill="white" stroke="#05143A" stroke-width="0.5" stroke-linecap="round" stroke-linejoin="round"/>
<path d="M26.4423 80.1189H26.3706L19.9829 79.5235C19.7762 79.5044 19.5855 79.4041 19.4528 79.2445C19.3201 79.0849 19.2562 78.8791 19.2753 78.6724C19.2943 78.4657 19.3946 78.275 19.5542 78.1423C19.7138 78.0096 19.9196 77.9457 20.1263 77.9647L26.514 78.5602C26.7207 78.5697 26.9152 78.6609 27.0546 78.8138C27.1941 78.9667 27.267 79.1687 27.2575 79.3754C27.248 79.5821 27.1568 79.7765 27.0039 79.916C26.851 80.0554 26.649 80.1284 26.4423 80.1189Z" fill="white" stroke="#05143A" stroke-width="0.5" stroke-linecap="round" stroke-linejoin="round"/>
<path d="M44.8292 47.0738C44.7882 46.4883 44.6167 45.9195 44.3273 45.409C43.4294 43.763 41.9486 42.4007 40.5863 41.1475C38.6472 39.3611 36.5835 37.7182 34.5072 36.0909C30.255 32.7583 25.822 29.6346 21.7755 26.062C20.806 25.2078 19.6962 24.282 18.8981 23.2002C18.8981 23.2002 18.0221 26.6294 18.8763 29.1982C18.9199 29.3291 18.9542 29.4507 18.9885 29.5692C19.4184 30.0646 19.8742 30.5371 20.3539 30.9845C21.8516 32.415 23.4218 33.7677 25.0582 35.0372C29.192 38.323 33.4754 41.4124 37.5561 44.7668C39.3268 46.2258 41.3906 47.7939 42.9369 49.6675C42.9867 49.6332 43.0335 49.5958 43.0803 49.5584C43.5901 49.1853 44.0355 48.7315 44.399 48.2147C44.5251 47.9958 44.6365 47.7688 44.7325 47.5351C44.7655 47.4626 44.804 47.3928 44.8479 47.3263L44.8292 47.0738Z" fill="#05143A" stroke="#05143A" stroke-width="0.5" stroke-linecap="round" stroke-linejoin="round"/>
<path d="M18.1623 42.0359C17.9847 42.0342 17.813 41.9717 17.6757 41.859C17.5384 41.7463 17.4437 41.5901 17.4073 41.4162C17.3709 41.2423 17.3951 41.0612 17.4757 40.9029C17.5563 40.7447 17.6886 40.6186 17.8506 40.5458L29.7905 35.2274C29.9749 35.1658 30.1757 35.1754 30.3534 35.2542C30.5312 35.3331 30.673 35.4755 30.7511 35.6536C30.8292 35.8316 30.8379 36.0325 30.7755 36.2166C30.7132 36.4008 30.5842 36.555 30.414 36.649L18.4803 41.9674C18.3804 42.0126 18.272 42.036 18.1623 42.0359Z" fill="white" stroke="#05143A" stroke-width="0.5" stroke-linecap="round" stroke-linejoin="round"/>
<path d="M24.3349 37.6528L17.8444 40.5458C17.6823 40.6187 17.5501 40.7447 17.4694 40.903C17.3888 41.0613 17.3647 41.2424 17.4011 41.4163C17.4375 41.5901 17.5322 41.7464 17.6695 41.8591C17.8068 41.9718 17.9785 42.0342 18.1561 42.036C18.2637 42.0352 18.3699 42.0118 18.4678 41.9674L25.3855 38.8873L24.3349 37.6528Z" fill="white" stroke="#05143A" stroke-width="0.5" stroke-linecap="round" stroke-linejoin="round"/>
<path d="M42.2884 53.1528H42.2541L24.2757 52.3236C24.069 52.3141 23.8746 52.2229 23.7351 52.07C23.5957 51.9171 23.5227 51.7151 23.5322 51.5084C23.5417 51.3017 23.6329 51.1072 23.7858 50.9678C23.9387 50.8284 24.1407 50.7554 24.3474 50.7649L42.3258 51.591C42.5325 51.596 42.7288 51.6828 42.8715 51.8325C43.0141 51.9822 43.0915 52.1824 43.0865 52.3891C43.0815 52.5958 42.9947 52.792 42.845 52.9347C42.6953 53.0773 42.4951 53.1547 42.2884 53.1497V53.1528Z" fill="white" stroke="#05143A" stroke-width="0.5" stroke-linecap="round" stroke-linejoin="round"/>
<path d="M23.5338 51.5099C23.5244 51.7161 23.5973 51.9176 23.7364 52.0702C23.8755 52.2227 24.0695 52.3139 24.2757 52.3236L33.0389 52.7288C33.1628 52.2191 33.2018 51.6925 33.1543 51.1701L24.3474 50.7648C24.245 50.7602 24.1428 50.7759 24.0464 50.8108C23.9501 50.8458 23.8616 50.8994 23.7861 50.9686C23.7105 51.0378 23.6493 51.1213 23.606 51.2141C23.5627 51.307 23.5382 51.4075 23.5338 51.5099Z" fill="white" stroke="#05143A" stroke-width="0.5" stroke-linecap="round" stroke-linejoin="round"/>
<path d="M44.8479 47.3138C44.804 47.3804 44.7655 47.4502 44.7325 47.5227C44.6365 47.7564 44.525 47.9834 44.3989 48.2023C44.0355 48.719 43.5901 49.1729 43.0803 49.5459C43.0335 49.5834 42.9867 49.6208 42.9369 49.6551C41.5621 50.7212 39.9721 51.5255 38.4321 52.3205C34.2703 54.4684 29.9838 56.4168 26.1306 59.1072C22.4208 61.6978 18.8669 65.1956 18.1624 69.8687C18.0907 70.355 18.0719 69.8687 18.0501 70.3644L17.966 71.39C17.966 71.39 17.7134 75.8418 17.8818 77.7746C17.9903 78.9495 18.3946 80.0778 19.0571 81.0542C19.0571 81.0542 18.8887 80.465 18.552 78.7005C18.2153 76.936 18.6799 74.0243 18.6799 74.0243C18.8261 73.6061 18.9947 73.1961 19.1849 72.796C21.3671 68.2289 25.9404 65.2112 30.2082 62.8201C34.1986 60.5724 38.6254 58.9077 42.3913 56.2984C43.4263 55.5845 44.6016 54.6929 44.8136 53.3711C44.8354 53.2339 44.8541 53.0936 44.8728 52.9533C45.0941 51.1546 44.9819 49.0939 44.8479 47.3138Z" fill="#CCD1FF" stroke="#05143A" stroke-width="0.5" stroke-linecap="round" stroke-linejoin="round"/>
<path d="M18.0439 91.2358C17.9415 91.2378 17.8398 91.2197 17.7445 91.1824C17.6491 91.1451 17.562 91.0895 17.4882 91.0185C17.3391 90.8753 17.2531 90.6787 17.2489 90.472C17.2448 90.2653 17.3229 90.0654 17.4662 89.9163C17.6094 89.7673 17.806 89.6812 18.0127 89.677L36.1096 88.9663C36.3163 88.9584 36.5177 89.033 36.6694 89.1736C36.8211 89.3142 36.9107 89.5093 36.9186 89.716C36.9264 89.9227 36.8519 90.1241 36.7113 90.2758C36.5707 90.4275 36.3755 90.5171 36.1688 90.525L18.0875 91.2327L18.0439 91.2358Z" fill="white" stroke="#05143A" stroke-width="0.5" stroke-linecap="round" stroke-linejoin="round"/>
<path d="M27.0253 89.3217L18.0127 89.6771C17.806 89.6812 17.6094 89.7673 17.4662 89.9163C17.3229 90.0654 17.2448 90.2653 17.2489 90.472C17.2531 90.6787 17.3391 90.8753 17.4882 91.0185C17.6373 91.1618 17.8372 91.2399 18.0439 91.2358H18.0813L27.6737 90.8617C27.6224 90.2936 27.3958 89.7554 27.0253 89.3217Z" fill="white" stroke="#05143A" stroke-width="0.5" stroke-linecap="round" stroke-linejoin="round"/>
<path d="M44.6047 65.5573C44.5828 65.6102 44.561 65.6757 44.5361 65.7568C44.4633 66.0676 44.3685 66.3728 44.2524 66.6702C43.9672 67.2942 43.5829 67.8679 43.1145 68.3692C41.4248 70.221 38.7158 71.4649 36.6957 72.5123C32.7708 74.5511 28.7056 76.3437 24.974 78.7473C21.4357 81.0043 17.676 84.1249 17.146 88.5766C16.9216 90.4627 17.0463 92.4236 17.0587 94.3128C17.0442 94.8392 17.0629 95.3661 17.1148 95.8902C17.2896 94.5514 17.5743 93.2293 17.9659 91.9373C19.0601 89.6771 21.0429 87.7879 23.0037 86.3258C26.4766 83.7352 30.4451 81.8772 34.3077 79.9537C37.3566 78.4355 40.9292 76.9298 43.261 74.3423C44.0456 73.5266 44.5133 72.4575 44.5797 71.3277C44.5797 71.2155 44.5797 71.1063 44.5953 70.9941C44.6951 69.1833 44.6982 67.3684 44.6047 65.5573Z" fill="#CCD1FF" stroke="#05143A" stroke-width="0.5" stroke-linecap="round" stroke-linejoin="round"/>
<path d="M17.2458 96.4919C18.1062 99.2384 20.5908 101.168 23.0131 102.493C22.8292 102.393 23.0443 99.6873 23.0443 99.3755C23.0443 99.0638 23.3093 96.4202 23.0131 96.2581C21.2393 95.2948 19.1412 93.8264 17.9659 91.9373C17.5743 93.2293 17.2896 94.5514 17.1149 95.8902C17.1421 96.094 17.1859 96.2952 17.2458 96.4919Z" fill="#05143A" stroke="#05143A" stroke-width="0.5" stroke-linecap="round" stroke-linejoin="round"/>
<path d="M22.5579 31.2371L25.9092 31.5488C25.9163 31.0217 25.9917 30.4978 26.1337 29.9901L22.7045 29.6783C22.4978 29.6593 22.292 29.7232 22.1324 29.8559C21.9728 29.9886 21.8724 30.1793 21.8534 30.386C21.8344 30.5927 21.8983 30.7985 22.031 30.9581C22.1637 31.1177 22.3544 31.2181 22.5611 31.2371H22.5579Z" fill="white" stroke="#05143A" stroke-width="0.5" stroke-linecap="round" stroke-linejoin="round"/>
<path d="M42.6438 24.2976H42.5471L18.658 21.3329C18.4513 21.3073 18.2632 21.2006 18.1352 21.0363C18.0072 20.872 17.9496 20.6636 17.9753 20.4569C18.0009 20.2502 18.1076 20.0621 18.2719 19.9341C18.4362 19.8061 18.6446 19.7485 18.8513 19.7742L42.7404 22.7576C42.9377 22.7826 43.118 22.8818 43.2447 23.035C43.3715 23.1881 43.4351 23.3838 43.4228 23.5822C43.4105 23.7807 43.3232 23.967 43.1785 24.1033C43.0338 24.2397 42.8426 24.3158 42.6438 24.3163V24.2976Z" fill="white" stroke="#05143A" stroke-width="0.5" stroke-linecap="round" stroke-linejoin="round"/>
<path d="M42.7404 22.7575L31.7732 21.3859C31.6766 21.9125 31.4978 22.4206 31.2432 22.8916L42.5472 24.2913H42.6438C42.8426 24.2909 43.0338 24.2147 43.1785 24.0784C43.3232 23.942 43.4106 23.7557 43.4229 23.5573C43.4352 23.3589 43.3715 23.1632 43.2447 23.01C43.118 22.8568 42.9377 22.7577 42.7404 22.7326V22.7575Z" fill="white" stroke="#05143A" stroke-width="0.5" stroke-linecap="round" stroke-linejoin="round"/>
<path d="M20.2916 17.0806C20.0849 17.0889 19.8834 17.0147 19.7313 16.8744C19.5793 16.7341 19.4893 16.5391 19.481 16.3324C19.4728 16.1257 19.5469 15.9242 19.6873 15.7722C19.8276 15.6202 20.0225 15.5301 20.2292 15.5219L43.2985 13.6296C43.5052 13.6126 43.7101 13.6785 43.8683 13.8127C44.0264 13.9468 44.1248 14.1383 44.1417 14.345C44.1587 14.5517 44.0928 14.7567 43.9587 14.9148C43.8245 15.073 43.633 15.1714 43.4263 15.1883L20.357 17.0806H20.2916Z" fill="white" stroke="#05143A" stroke-width="0.5" stroke-linecap="round" stroke-linejoin="round"/>
<path d="M43.2891 13.6327L32.7334 14.5025C32.8939 14.7205 33.0079 14.969 33.0685 15.2328C33.1291 15.4967 33.1349 15.7701 33.0857 16.0363L43.4325 15.1883C43.5349 15.1799 43.6346 15.1514 43.7259 15.1045C43.8173 15.0576 43.8985 14.9931 43.9649 14.9148C44.0314 14.8365 44.0817 14.7459 44.1131 14.6481C44.1445 14.5504 44.1564 14.4474 44.148 14.345C44.1396 14.2427 44.1111 14.143 44.0642 14.0516C44.0173 13.9603 43.9528 13.8791 43.8745 13.8127C43.7962 13.7462 43.7056 13.6959 43.6078 13.6644C43.5101 13.633 43.4071 13.6212 43.3047 13.6296L43.2891 13.6327Z" fill="white" stroke="#05143A" stroke-width="0.5" stroke-linecap="round" stroke-linejoin="round"/>
<path d="M33.6686 28.6807C33.6271 28.6838 33.5854 28.6838 33.5439 28.6807L18.9853 26.2959C18.8806 26.2839 18.7794 26.2508 18.6878 26.1985C18.5962 26.1463 18.5162 26.076 18.4525 25.992C18.3889 25.9079 18.343 25.8118 18.3176 25.7095C18.2921 25.6072 18.2877 25.5008 18.3046 25.3967C18.3215 25.2927 18.3593 25.1931 18.4158 25.1041C18.4723 25.015 18.5462 24.9384 18.6332 24.8788C18.7201 24.8192 18.8183 24.7778 18.9217 24.7572C19.0251 24.7366 19.1316 24.7372 19.2347 24.759L33.7808 27.122C33.9875 27.1385 34.1792 27.2365 34.3137 27.3944C34.4481 27.5522 34.5144 27.757 34.4979 27.9637C34.4813 28.1704 34.3833 28.3621 34.2255 28.4965C34.0676 28.631 33.8628 28.6973 33.6561 28.6807H33.6686Z" fill="white" stroke="#05143A" stroke-width="0.5" stroke-linecap="round" stroke-linejoin="round"/>
<path d="M33.7808 27.122L25.9872 25.875C25.7971 26.0711 25.6488 26.3037 25.5512 26.5587C25.4537 26.8138 25.409 27.086 25.4198 27.3589L33.5252 28.6776C33.5667 28.6807 33.6084 28.6807 33.6499 28.6776C33.8566 28.6941 34.0614 28.6279 34.2193 28.4934C34.3771 28.359 34.4751 28.1673 34.4916 27.9606C34.5082 27.7539 34.4419 27.5491 34.3074 27.3912C34.173 27.2334 33.9813 27.1354 33.7746 27.1189L33.7808 27.122Z" fill="white" stroke="#05143A" stroke-width="0.5" stroke-linecap="round" stroke-linejoin="round"/>
<path d="M20.6813 19.9767C21.0928 19.3909 21.556 18.8431 22.0654 18.34C22.399 18.0283 22.0966 15.7027 22.0966 15.2226C22.0966 14.4868 22.0966 13.7542 22.0966 13.0185C22.0966 12.8782 21.9999 12.1768 22.0748 12.1051C20.5959 13.5664 19.4663 15.3429 18.7702 17.3019C18.3094 18.637 18.0601 20.036 18.0314 21.4481C17.941 21.0086 17.9348 21.3952 18.0065 22.611C17.9535 24.3069 17.6947 26.2428 18.0657 27.8701C18.2419 28.5012 18.562 29.0827 19.0009 29.5691C18.9666 29.4507 18.9324 29.3291 18.8887 29.1982C18.0345 26.6356 18.9105 23.2002 18.9105 23.2002C19.363 22.0556 19.958 20.9726 20.6813 19.9767Z" fill="#CCD1FF" stroke="#05143A" stroke-width="0.5" stroke-linecap="round" stroke-linejoin="round"/>
<path d="M18.6362 48.4236C18.4537 48.4214 18.2778 48.3554 18.1388 48.2371C17.9999 48.1189 17.9066 47.9558 17.8752 47.776C17.8437 47.5963 17.8761 47.4112 17.9667 47.2528C18.0573 47.0944 18.2004 46.9726 18.3712 46.9085L36.7019 40.287C36.7989 40.2488 36.9025 40.2305 37.0067 40.233C37.1108 40.2356 37.2134 40.259 37.3084 40.3019C37.4034 40.3448 37.4888 40.4062 37.5596 40.4827C37.6303 40.5592 37.6851 40.6491 37.7205 40.7471C37.756 40.8451 37.7714 40.9492 37.7659 41.0532C37.7604 41.1573 37.7341 41.2592 37.6886 41.3529C37.643 41.4466 37.5791 41.5302 37.5007 41.5988C37.4222 41.6674 37.3308 41.7196 37.2319 41.7523L18.9012 48.3769C18.8162 48.4075 18.7265 48.4233 18.6362 48.4236Z" fill="white" stroke="#05143A" stroke-width="0.5" stroke-linecap="round" stroke-linejoin="round"/>
<path d="M27.4524 43.6445L18.3712 46.9085C18.2004 46.9726 18.0573 47.0944 17.9667 47.2528C17.8761 47.4112 17.8437 47.5962 17.8752 47.776C17.9066 47.9557 17.9999 48.1188 18.1388 48.2371C18.2778 48.3554 18.4537 48.4213 18.6362 48.4236C18.7265 48.4233 18.8162 48.4074 18.9012 48.3768L28.0385 45.0754C27.8444 44.8925 27.6917 44.6702 27.5906 44.4234C27.4896 44.1766 27.4424 43.911 27.4524 43.6445Z" fill="white" stroke="#05143A" stroke-width="0.5" stroke-linecap="round" stroke-linejoin="round"/>
<path d="M40.2776 104.834C40.2014 104.835 40.1256 104.823 40.0531 104.8L21.7225 99.2415C21.6205 99.2154 21.5248 99.169 21.4413 99.105C21.3578 99.0409 21.288 98.9606 21.2364 98.8689C21.1847 98.7772 21.1522 98.676 21.1407 98.5714C21.1292 98.4668 21.1391 98.3609 21.1696 98.2602C21.2002 98.1594 21.2508 98.066 21.3185 97.9853C21.3861 97.9047 21.4694 97.8386 21.5633 97.7911C21.6573 97.7435 21.7598 97.7155 21.8648 97.7087C21.9699 97.7018 22.0752 97.7164 22.1745 97.7514L40.5052 103.31C40.6835 103.365 40.8364 103.481 40.9359 103.639C41.0354 103.797 41.0749 103.985 41.0474 104.17C41.0198 104.354 40.927 104.523 40.7857 104.645C40.6445 104.767 40.4642 104.834 40.2776 104.834Z" fill="white" stroke="#05143A" stroke-width="0.5" stroke-linecap="round" stroke-linejoin="round"/>
<path d="M29.3914 99.9398L22.1745 97.7576C22.0752 97.7226 21.9699 97.7081 21.8648 97.7149C21.7598 97.7217 21.6573 97.7498 21.5633 97.7973C21.4694 97.8449 21.3861 97.9109 21.3185 97.9915C21.2508 98.0722 21.2002 98.1657 21.1696 98.2664C21.1391 98.3671 21.1292 98.473 21.1407 98.5776C21.1522 98.6822 21.1847 98.7835 21.2364 98.8752C21.288 98.9669 21.3578 99.0472 21.4413 99.1112C21.5248 99.1752 21.6205 99.2217 21.7225 99.2477L28.637 101.346C28.7638 100.82 29.0236 100.336 29.3914 99.9398Z" fill="white" stroke="#05143A" stroke-width="0.5" stroke-linecap="round" stroke-linejoin="round"/>
<path d="M18.7547 96.7943C18.548 96.8 18.3474 96.7235 18.1972 96.5814C18.0469 96.4393 17.9593 96.2434 17.9535 96.0367C17.9477 95.83 18.0243 95.6295 18.1663 95.4792C18.3084 95.329 18.5043 95.2413 18.711 95.2355L42.1263 93.9355C42.2287 93.9298 42.3311 93.9443 42.4279 93.9782C42.5246 94.012 42.6138 94.0646 42.6902 94.133C42.7666 94.2013 42.8288 94.284 42.8733 94.3763C42.9178 94.4687 42.9436 94.5689 42.9493 94.6713C42.9551 94.7736 42.9406 94.8761 42.9067 94.9728C42.8728 95.0696 42.8202 95.1587 42.7519 95.2351C42.6836 95.3116 42.6009 95.3738 42.5085 95.4182C42.4162 95.4627 42.316 95.4885 42.2136 95.4943L18.7983 96.7911L18.7547 96.7943Z" fill="white" stroke="#05143A" stroke-width="0.5" stroke-linecap="round" stroke-linejoin="round"/>
<path d="M31.106 94.5465L18.7047 95.2355C18.498 95.2413 18.3021 95.3289 18.16 95.4792C18.018 95.6294 17.9414 95.83 17.9472 96.0367C17.953 96.2434 18.0407 96.4393 18.1909 96.5814C18.3412 96.7234 18.5417 96.8 18.7484 96.7942H18.792L31.3305 96.099C31.3687 95.5714 31.2921 95.0417 31.106 94.5465Z" fill="white" stroke="#05143A" stroke-width="0.5" stroke-linecap="round" stroke-linejoin="round"/>
<path d="M19.9829 79.5235L23.3373 79.8352C23.3442 79.3132 23.4196 78.7944 23.5618 78.2921L20.1326 77.9803C20.0302 77.9709 19.927 77.9818 19.8289 78.0122C19.7307 78.0427 19.6395 78.0922 19.5605 78.1579C19.4814 78.2236 19.4161 78.3043 19.3683 78.3952C19.3204 78.4862 19.2909 78.5857 19.2815 78.688C19.2721 78.7904 19.2829 78.8936 19.3134 78.9917C19.3438 79.0899 19.3933 79.1811 19.4591 79.2601C19.5248 79.3391 19.6054 79.4044 19.6964 79.4523C19.7873 79.5002 19.8868 79.5297 19.9892 79.5391L19.9829 79.5235Z" fill="white" stroke="#05143A" stroke-width="0.5" stroke-linecap="round" stroke-linejoin="round"/>
<path d="M44.1246 97.396C44.1246 97.2682 44.1246 97.1403 44.1246 97.0125V96.9689C44.0961 96.5448 44.0398 96.123 43.9563 95.7063C43.9563 95.7219 43.9563 95.7375 43.9563 95.7562C43.9563 97.0967 42.8433 98.6741 42.8433 98.6741C40.6112 101.131 37.2599 102.855 34.4043 104.08C34.1892 104.173 34.3732 106.886 34.3732 107.197C34.3732 107.509 34.5914 110.234 34.4043 110.315C37.5467 108.965 40.6206 107.197 42.9649 104.666C43.3203 104.279 43.9001 103.756 44.0934 103.251C44.2306 102.886 44.1433 102.362 44.1464 101.976C44.1464 100.451 44.1558 98.9204 44.1246 97.396Z" fill="#CCD1FF" stroke="#05143A" stroke-width="0.5" stroke-linecap="round" stroke-linejoin="round"/>
<path d="M46.0886 16.4104C46.0078 15.9991 45.8984 15.5938 45.7613 15.1977C45.5493 14.5992 45.0474 13.7076 44.957 13.4675C45.1872 15.1578 44.7866 16.8736 43.8315 18.2871C40.5132 21.1086 36.9587 23.6399 33.2072 25.8532C30.2768 27.5772 27.2435 29.1234 24.3973 30.9815C21.9282 32.5932 19.4093 34.5229 18.0501 37.2164C16.5631 40.1593 16.9777 43.9065 17.0712 47.0769C17.0859 47.7881 17.2506 48.4882 17.5544 49.1313C17.4921 48.8664 17.4328 48.5983 17.3798 48.3333C17.0681 46.7278 17.9285 43.7007 17.9285 43.7007C18.4128 42.7006 19.0432 41.7781 19.799 40.9636C21.8628 38.6847 24.5656 37.0449 27.1999 35.5111C30.2706 33.7248 33.3444 31.9416 36.3403 30.0369C37.8367 29.0829 39.3143 28.1009 40.7577 27.0721C42.1138 26.1057 43.6133 25.1487 44.7824 23.9547C46.815 21.8722 46.6373 19.079 46.0886 16.4104Z" fill="#CCD1FF" stroke="#05143A" stroke-width="0.5" stroke-linecap="round" stroke-linejoin="round"/>
<path d="M51.8902 120.303H50.3315V133.864H51.8902V120.303Z" fill="white" stroke="#05143A" stroke-width="0.5" stroke-linecap="round" stroke-linejoin="round"/>
<path d="M52.8254 116.406H56.4261V130.27C56.4261 130.644 56.2773 131.003 56.0125 131.268C55.7476 131.533 55.3884 131.682 55.0139 131.682H54.2439C53.8693 131.682 53.5101 131.533 53.2453 131.268C52.9805 131.003 52.8317 130.644 52.8317 130.27V116.406H52.8254Z" fill="white" stroke="#05143A" stroke-width="0.5" stroke-linecap="round" stroke-linejoin="round"/>
<path d="M53.2089 118.464V129.687C53.2085 129.872 53.2446 130.055 53.3152 130.227C53.3859 130.398 53.4896 130.554 53.6205 130.685C53.7514 130.816 53.9068 130.92 54.078 130.991C54.2492 131.062 54.4327 131.099 54.618 131.099C54.9925 131.099 55.3517 130.95 55.6165 130.685C55.8814 130.42 56.0302 130.061 56.0302 129.687V118.464H53.2089Z" fill="#CCD1FF"/>
<path d="M56.3232 116.924H52.894C52.8274 116.924 52.7614 116.911 52.6998 116.886C52.6382 116.861 52.5821 116.824 52.5349 116.777C52.4877 116.73 52.4502 116.674 52.4246 116.613C52.399 116.551 52.3859 116.485 52.3859 116.419C52.3859 116.284 52.4394 116.155 52.5347 116.059C52.63 115.964 52.7592 115.911 52.894 115.911H56.3232C56.458 115.911 56.5872 115.964 56.6825 116.059C56.7778 116.155 56.8314 116.284 56.8314 116.419C56.8314 116.485 56.8182 116.551 56.7926 116.613C56.7671 116.674 56.7296 116.73 56.6824 116.777C56.6351 116.824 56.5791 116.861 56.5174 116.886C56.4558 116.911 56.3898 116.924 56.3232 116.924Z" fill="white" stroke="#05143A" stroke-width="0.5" stroke-linecap="round" stroke-linejoin="round"/>
<path d="M58.3309 116.406H61.916V130.27C61.916 130.644 61.7672 131.003 61.5023 131.268C61.2375 131.533 60.8783 131.682 60.5037 131.682H59.74C59.3654 131.682 59.0062 131.533 58.7414 131.268C58.4765 131.003 58.3278 130.644 58.3278 130.27V116.406H58.3309Z" fill="white" stroke="#05143A" stroke-width="0.5" stroke-linecap="round" stroke-linejoin="round"/>
<path d="M58.7112 118.464V129.687C58.7112 130.061 58.86 130.42 59.1248 130.685C59.3896 130.95 59.7489 131.099 60.1234 131.099C60.3087 131.099 60.4922 131.062 60.6634 130.991C60.8345 130.92 60.99 130.816 61.1209 130.685C61.2518 130.554 61.3555 130.398 61.4261 130.227C61.4968 130.055 61.5329 129.872 61.5325 129.687V118.464H58.7112Z" fill="#CCD1FF"/>
<path d="M61.8287 116.924H58.3994C58.3329 116.924 58.2669 116.911 58.2052 116.886C58.1436 116.861 58.0875 116.824 58.0403 116.777C57.9931 116.73 57.9556 116.674 57.93 116.613C57.9045 116.551 57.8913 116.485 57.8913 116.419C57.8913 116.284 57.9448 116.155 58.0401 116.059C58.1354 115.964 58.2647 115.911 58.3994 115.911H61.8287C61.9629 115.911 62.0913 115.965 62.186 116.06C62.2806 116.156 62.3337 116.284 62.3337 116.419C62.3337 116.553 62.2805 116.681 62.1858 116.776C62.0911 116.87 61.9626 116.924 61.8287 116.924Z" fill="white" stroke="#05143A" stroke-width="0.5" stroke-linecap="round" stroke-linejoin="round"/>
<path d="M63.8332 116.406H67.4183V130.27C67.4183 130.644 67.2695 131.003 67.0047 131.268C66.7398 131.533 66.3806 131.682 66.0061 131.682H65.2423C65.0568 131.682 64.8732 131.645 64.7019 131.574C64.5305 131.503 64.3748 131.399 64.2437 131.268C64.1126 131.137 64.0085 130.981 63.9376 130.81C63.8666 130.639 63.8301 130.455 63.8301 130.27V116.406H63.8332Z" fill="white" stroke="#05143A" stroke-width="0.5" stroke-linecap="round" stroke-linejoin="round"/>
<path d="M64.2198 118.464V129.687C64.2198 130.061 64.3686 130.42 64.6334 130.685C64.8983 130.95 65.2575 131.099 65.632 131.099C66.0033 131.094 66.3577 130.943 66.6185 130.679C66.8793 130.414 67.0255 130.058 67.0255 129.687V118.464H64.2198Z" fill="#CCD1FF"/>
<path d="M67.3373 116.924H63.9081C63.8415 116.924 63.7755 116.911 63.7138 116.886C63.6522 116.861 63.5962 116.824 63.5489 116.777C63.5017 116.73 63.4642 116.674 63.4386 116.613C63.4131 116.551 63.3999 116.485 63.3999 116.419C63.3999 116.284 63.4534 116.155 63.5487 116.059C63.644 115.964 63.7733 115.911 63.9081 115.911H67.3373C67.472 115.911 67.6013 115.964 67.6966 116.059C67.7919 116.155 67.8454 116.284 67.8454 116.419C67.8454 116.485 67.8322 116.551 67.8067 116.613C67.7811 116.674 67.7436 116.73 67.6964 116.777C67.6492 116.824 67.5931 116.861 67.5315 116.886C67.4699 116.911 67.4038 116.924 67.3373 116.924Z" fill="white" stroke="#05143A" stroke-width="0.5" stroke-linecap="round" stroke-linejoin="round"/>
<path d="M68.5686 118.9H49.0845V121.238H68.5686V118.9Z" fill="white" stroke="#05143A" stroke-width="0.5" stroke-linecap="round" stroke-linejoin="round"/>
<path d="M68.5686 132.773H49.0845V135.111H68.5686V132.773Z" fill="white" stroke="#05143A" stroke-width="0.5" stroke-linecap="round" stroke-linejoin="round"/>
<path d="M90.6902 118.267L90.6652 111.35H83.4296V118.414L78.6443 133.225C78.5776 133.44 78.5622 133.668 78.5995 133.891C78.6368 134.113 78.7257 134.324 78.8591 134.506C78.9924 134.688 79.1665 134.836 79.3675 134.938C79.5684 135.04 79.7905 135.094 80.016 135.095H94.0446C94.2703 135.095 94.4928 135.042 94.694 134.939C94.8953 134.837 95.0697 134.689 95.2032 134.507C95.3367 134.325 95.4255 134.114 95.4625 133.891C95.4995 133.669 95.4837 133.44 95.4163 133.225L90.6902 118.267Z" fill="white" stroke="#05143A" stroke-width="0.5" stroke-linecap="round" stroke-linejoin="round"/>
<path d="M90.4906 121.061H83.6478L80.0814 132.421C80.0214 132.603 80.0049 132.796 80.0333 132.986C80.0616 133.175 80.1341 133.355 80.2447 133.512C80.3554 133.668 80.5012 133.797 80.6705 133.886C80.8397 133.976 81.0277 134.025 81.2193 134.029H92.8319C93.0234 134.025 93.2114 133.976 93.3807 133.886C93.5499 133.797 93.6958 133.668 93.8064 133.512C93.9171 133.355 93.9895 133.175 94.0179 132.986C94.0462 132.796 94.0297 132.603 93.9697 132.421L90.4906 121.061Z" fill="#CCD1FF"/>
<path d="M91.1921 110.065H82.6845C82.3626 110.065 82.1016 110.326 82.1016 110.648V111.194C82.1016 111.516 82.3626 111.777 82.6845 111.777H91.1921C91.5141 111.777 91.7751 111.516 91.7751 111.194V110.648C91.7751 110.326 91.5141 110.065 91.1921 110.065Z" fill="white" stroke="#05143A" stroke-width="0.5" stroke-linecap="round" stroke-linejoin="round"/>
<path d="M13.9445 135.111H148.476" stroke="#05143A" stroke-width="0.5" stroke-linecap="round" stroke-linejoin="round"/>
<path d="M3.24219 135.111H11.4972" stroke="#05143A" stroke-width="0.5" stroke-linecap="round" stroke-linejoin="round"/>
</g>
<defs>
<clipPath id="clip0_1_1012">
<rect width="150" height="142.58" fill="white"/>
</clipPath>
</defs>
</svg>
