<svg width="150" height="146" viewBox="0 0 150 146" fill="none" xmlns="http://www.w3.org/2000/svg">
<g clip-path="url(#clip0_1_855)">
<path d="M143.246 37.86C143.246 37.86 134.173 16.4593 115.339 7.96706C96.5061 -0.525188 85.4459 6.27588 72.0038 14.7615C58.5617 23.2472 27.6423 17.1398 14.8732 24.2711C2.10422 31.4025 -3.94701 48.7338 2.78384 68.0966C9.5147 87.4593 26.9724 102.066 22.9372 111.582C18.9019 121.098 56.879 156.088 88.4683 143.176C120.058 130.264 111.667 115.998 126.109 109.544C140.551 103.09 150.64 85.7615 149.961 64.701C149.281 43.6405 143.246 37.86 143.246 37.86Z" fill="#CCD1FF"/>
<path opacity="0.8" d="M143.246 37.86C143.246 37.86 134.173 16.4593 115.339 7.96706C96.5061 -0.525188 85.4459 6.27588 72.0038 14.7615C58.5617 23.2472 27.6423 17.1398 14.8732 24.2711C2.10422 31.4025 -3.94701 48.7338 2.78384 68.0966C9.5147 87.4593 26.9724 102.066 22.9372 111.582C18.9019 121.098 56.879 156.088 88.4683 143.176C120.058 130.264 111.667 115.998 126.109 109.544C140.551 103.09 150.64 85.7615 149.961 64.701C149.281 43.6405 143.246 37.86 143.246 37.86Z" fill="white"/>
<path d="M22.8915 8.83907C23.2627 8.99761 23.5794 9.26329 23.802 9.60288C24.0246 9.94247 24.1432 10.3409 24.1429 10.7483V16.3305C24.1429 16.8798 23.927 17.4065 23.5429 17.7949C23.1587 18.1833 22.6376 18.4015 22.0942 18.4015C21.5506 18.4015 21.0292 18.1834 20.6444 17.7951C20.2597 17.4068 20.0432 16.8801 20.0423 16.3305V10.7483C20.0423 10.3405 20.1614 9.94183 20.3846 9.6022C20.6078 9.26257 20.9252 8.9971 21.297 8.83907" stroke="#EC1F26" stroke-opacity="0.28" stroke-width="0.5" stroke-linecap="round" stroke-linejoin="round"/>
<path d="M22.0942 18.4015C21.5506 18.4015 21.0292 18.1834 20.6444 17.7951C20.2597 17.4068 20.0432 16.8801 20.0423 16.3305V13.5427H24.1429V16.3338C24.142 16.8825 23.9258 17.4084 23.5417 17.7961C23.1576 18.1838 22.637 18.4015 22.0942 18.4015Z" stroke="#EC1F26" stroke-opacity="0.28" stroke-width="0.5" stroke-linecap="round" stroke-linejoin="round"/>
<path d="M17.6865 8.04303L14.6707 10.4906C14.4601 10.6605 14.2185 10.7867 13.9596 10.8621C13.7007 10.9374 13.4297 10.9604 13.162 10.9297C12.8943 10.8991 12.6352 10.8153 12.3996 10.6833C12.164 10.5512 11.9564 10.3735 11.7888 10.1603C11.6208 9.94745 11.4959 9.70317 11.4214 9.44146C11.3469 9.17975 11.3241 8.90575 11.3545 8.63514C11.3848 8.36453 11.4677 8.10263 11.5983 7.86443C11.7289 7.62623 11.9047 7.41641 12.1156 7.24699L16.409 3.76553C16.6193 3.59523 16.861 3.46864 17.1199 3.39305C17.3788 3.31746 17.65 3.29434 17.9178 3.32504C18.1856 3.35573 18.4448 3.43963 18.6804 3.57191C18.916 3.70419 19.1235 3.88224 19.2908 4.09583C19.4589 4.3087 19.5837 4.55298 19.6583 4.81469C19.7328 5.0764 19.7555 5.3504 19.7252 5.62101C19.6948 5.89162 19.612 6.15352 19.4814 6.39172C19.3508 6.62992 19.175 6.83973 18.9641 7.00916L18.6243 7.2668" stroke="#EC1F26" stroke-opacity="0.28" stroke-width="0.5" stroke-linecap="round" stroke-linejoin="round"/>
<path d="M11.7888 10.1702C11.6208 9.95736 11.4959 9.71308 11.4214 9.45137C11.3469 9.18966 11.3241 8.91566 11.3545 8.64505C11.3848 8.37444 11.4677 8.11254 11.5983 7.87434C11.7289 7.63614 11.9047 7.42632 12.1156 7.2569L14.2688 5.51286L16.8337 8.74329L14.6707 10.4906C14.4607 10.6611 14.2196 10.788 13.9611 10.8641C13.7026 10.9403 13.4317 10.9641 13.1641 10.9344C12.8964 10.9046 12.6372 10.8218 12.4012 10.6907C12.1652 10.5596 11.9572 10.3827 11.7888 10.1702Z" stroke="#EC1F26" stroke-opacity="0.28" stroke-width="0.5" stroke-linecap="round" stroke-linejoin="round"/>
<path d="M76.735 9.82339V25.3479C76.735 26.0023 76.4779 26.6299 76.0201 27.0926C75.5624 27.5554 74.9416 27.8153 74.2943 27.8153C73.6469 27.8153 73.0261 27.5554 72.5684 27.0926C72.1107 26.6299 71.8535 26.0023 71.8535 25.3479V5.41707H76.735V8.91835" stroke="#EC1F26" stroke-opacity="0.28" stroke-width="0.5" stroke-linecap="round" stroke-linejoin="round"/>
<path d="M74.2943 27.8087C73.6469 27.8087 73.0261 27.5488 72.5684 27.086C72.1107 26.6233 71.8535 25.9957 71.8535 25.3413V12.7202H76.735V25.3413C76.7342 25.9955 76.4767 26.6225 76.0192 27.0851C75.5616 27.5476 74.9413 27.8079 74.2943 27.8087Z" stroke="#EC1F26" stroke-opacity="0.28" stroke-width="0.5" stroke-linecap="round" stroke-linejoin="round"/>
<path d="M76.735 5.41707H77.4342V3.62019H71.1575V5.41707H71.8535" stroke="#EC1F26" stroke-opacity="0.28" stroke-width="0.5" stroke-linecap="round" stroke-linejoin="round"/>
<path d="M64.4561 19.6105V5.40716H69.3376V25.3413C69.3376 25.9957 69.0805 26.6233 68.6227 27.086C68.165 27.5488 67.5442 27.8087 66.8969 27.8087C66.2495 27.8087 65.6287 27.5488 65.171 27.086C64.7133 26.6233 64.4561 25.9957 64.4561 25.3413V20.9152" stroke="#EC1F26" stroke-opacity="0.28" stroke-width="0.5" stroke-linecap="round" stroke-linejoin="round"/>
<path d="M64.4529 19.6105V12.7202H69.3344V25.3413C69.3344 25.9957 69.0772 26.6233 68.6195 27.086C68.1618 27.5488 67.541 27.8087 66.8936 27.8087C66.2466 27.8079 65.6263 27.5476 65.1687 27.0851C64.7112 26.6225 64.4537 25.9955 64.4529 25.3413V21.3082" stroke="#EC1F26" stroke-opacity="0.28" stroke-width="0.5" stroke-linecap="round" stroke-linejoin="round"/>
<path d="M69.3376 5.41707H70.0336V3.62019H63.7569V5.41707H64.4561" stroke="#EC1F26" stroke-opacity="0.28" stroke-width="0.5" stroke-linecap="round" stroke-linejoin="round"/>
<path d="M24.022 99.9714C23.0809 100.308 22.238 100.877 21.5703 101.627C20.9025 102.377 20.4311 103.284 20.1991 104.265C19.8544 102.836 19.0048 101.583 17.8102 100.743C16.6156 99.9027 15.1584 99.5328 13.7128 99.7029C12.2672 99.873 10.933 100.571 9.96124 101.667C8.98947 102.762 8.44719 104.178 8.43646 105.649C8.43646 107.129 9.07361 108.45 9.98521 109.656H16.4057L18.3236 105.002C18.3558 104.926 18.4098 104.862 18.4786 104.818C18.5474 104.774 18.6277 104.752 18.7092 104.754C18.7901 104.759 18.8675 104.789 18.9311 104.84C18.9948 104.891 19.0416 104.96 19.0653 105.038L21.3885 112.784L23.1594 107.076C23.1836 106.996 23.2324 106.926 23.2987 106.875C23.3651 106.825 23.4456 106.797 23.5286 106.796C23.6113 106.797 23.6915 106.824 23.7591 106.872C23.8266 106.921 23.8783 106.988 23.9076 107.066L24.8878 109.927H30.1974C31.2135 108.718 31.9748 107.36 31.9748 105.633C31.9748 104.032 31.3459 102.497 30.2264 101.366C29.1069 100.234 27.5885 99.5982 26.0053 99.5982" stroke="#EC1F26" stroke-opacity="0.28" stroke-width="0.5" stroke-linecap="round" stroke-linejoin="round"/>
<path d="M17.1604 116.877C18.1831 117.91 19.2091 118.941 20.2579 119.945C22.6529 117.554 25.0643 115.176 27.4462 112.761C28.0997 112.1 28.8185 111.44 29.4818 110.743H24.6134C24.5311 110.743 24.4508 110.717 24.3835 110.669C24.3162 110.621 24.2653 110.554 24.2376 110.475L23.5547 108.493L21.7577 114.287C21.7322 114.368 21.6822 114.438 21.6147 114.489C21.5473 114.539 21.4658 114.567 21.3819 114.568C21.2974 114.568 21.2151 114.54 21.1474 114.489C21.0796 114.438 21.0301 114.366 21.0062 114.284L18.6242 106.36L17.033 110.224C17.0028 110.297 16.952 110.36 16.8869 110.404C16.8218 110.448 16.7454 110.472 16.667 110.472H10.6256C11.9326 111.942 13.5434 113.24 14.7589 114.436L16.3534 116.044" stroke="#EC1F26" stroke-opacity="0.28" stroke-width="0.5" stroke-linecap="round" stroke-linejoin="round"/>
<path d="M142.926 20.0531L142.527 19.3528L144.501 18.2166L144.896 18.9168" stroke="#EC1F26" stroke-opacity="0.28" stroke-width="0.5" stroke-linecap="round" stroke-linejoin="round"/>
<path d="M144.936 23.6171L143.72 21.4635V21.4602L145.687 20.3239H145.694L148.01 24.433L146.04 25.5692L145.484 24.5882" stroke="#EC1F26" stroke-opacity="0.28" stroke-width="0.5" stroke-linecap="round" stroke-linejoin="round"/>
<path d="M146.17 27.0579L149.212 25.3024L148.549 24.1292L145.507 25.8846L146.17 27.0579Z" stroke="#EC1F26" stroke-opacity="0.28" stroke-width="0.5" stroke-linecap="round" stroke-linejoin="round"/>
<path d="M144.491 14.7979L140.982 8.57813" stroke="#EC1F26" stroke-opacity="0.28" stroke-width="0.5" stroke-linecap="round" stroke-linejoin="round"/>
<path d="M146.344 18.0811L145.089 15.8581" stroke="#EC1F26" stroke-opacity="0.28" stroke-width="0.5" stroke-linecap="round" stroke-linejoin="round"/>
<path d="M137.715 14.2429L136.107 11.3924" stroke="#EC1F26" stroke-opacity="0.28" stroke-width="0.5" stroke-linecap="round" stroke-linejoin="round"/>
<path d="M141.472 20.8954L138.29 15.257" stroke="#EC1F26" stroke-opacity="0.28" stroke-width="0.5" stroke-linecap="round" stroke-linejoin="round"/>
<path d="M142.269 22.2992L143.72 21.4635V21.4602L145.69 20.3239H145.694L147.141 19.4882" stroke="#EC1F26" stroke-opacity="0.28" stroke-width="0.5" stroke-linecap="round" stroke-linejoin="round"/>
<path d="M136.744 11.0224L140.061 16.8887L140.874 16.4197L142.848 15.2801L143.655 14.8111L140.345 8.94807" stroke="#EC1F26" stroke-opacity="0.28" stroke-width="0.5" stroke-linecap="round" stroke-linejoin="round"/>
<path d="M144.896 18.9168L144.501 18.2166L142.848 15.2801" stroke="#EC1F26" stroke-opacity="0.28" stroke-width="0.5" stroke-linecap="round" stroke-linejoin="round"/>
<path d="M140.874 16.4197L142.527 19.3528L142.926 20.0531" stroke="#EC1F26" stroke-opacity="0.28" stroke-width="0.5" stroke-linecap="round" stroke-linejoin="round"/>
<path d="M143.72 21.4602L142.269 22.2992L141.92 22.5007L141.129 21.0935L141.472 20.8954L142.926 20.0531L144.896 18.9168L146.344 18.0811L146.693 17.8796L147.491 19.2835L147.141 19.4882L145.694 20.3239H145.69" stroke="#EC1F26" stroke-opacity="0.28" stroke-width="0.5" stroke-linecap="round" stroke-linejoin="round"/>
<path d="M137.535 6.8341L135.509 8.0067L136.303 9.41712" stroke="#EC1F26" stroke-opacity="0.28" stroke-width="0.5" stroke-linecap="round" stroke-linejoin="round"/>
<path d="M139.205 7.74245L138.407 6.33203" stroke="#EC1F26" stroke-opacity="0.28" stroke-width="0.5" stroke-linecap="round" stroke-linejoin="round"/>
<path d="M136.744 11.0224L140.345 8.94807L140.982 8.57813L141.332 8.37664L140.538 6.97282L139.205 7.74244L136.303 9.41711L134.963 10.1867L135.761 11.5905L136.107 11.3924L136.744 11.0224Z" stroke="#EC1F26" stroke-opacity="0.28" stroke-width="0.5" stroke-linecap="round" stroke-linejoin="round"/>
<path d="M136.767 6.96952L132.925 0.165154" stroke="#EC1F26" stroke-opacity="0.28" stroke-width="0.5" stroke-linecap="round" stroke-linejoin="round"/>
<path d="M125.795 99.9945C125.071 100.199 124.428 100.628 123.955 101.22C123.483 101.812 123.206 102.538 123.162 103.298H118.679C118.626 102.898 118.435 102.531 118.138 102.263C117.841 101.994 117.458 101.842 117.06 101.834C116.662 101.826 116.274 101.963 115.967 102.219C115.659 102.475 115.453 102.834 115.385 103.231C115.317 103.628 115.392 104.036 115.596 104.382C115.8 104.728 116.12 104.988 116.498 105.116C116.875 105.244 117.286 105.231 117.655 105.079C118.024 104.927 118.327 104.647 118.509 104.289H123.233C123.371 104.939 123.683 105.539 124.133 106.024C124.584 106.509 125.157 106.86 125.791 107.039C126.425 107.218 127.095 107.219 127.729 107.041C128.364 106.863 128.938 106.513 129.389 106.029L131.706 107.849" stroke="#EC1F26" stroke-opacity="0.28" stroke-width="0.5" stroke-linecap="round" stroke-linejoin="round"/>
<path d="M132.961 108.847L135.784 111.066C135.71 111.259 135.672 111.464 135.669 111.671C135.669 112.005 135.767 112.331 135.951 112.609C136.134 112.886 136.395 113.103 136.7 113.23C137.005 113.358 137.341 113.392 137.665 113.326C137.988 113.261 138.286 113.1 138.519 112.864C138.753 112.628 138.912 112.328 138.976 112C139.041 111.673 139.008 111.333 138.881 111.025C138.755 110.717 138.541 110.453 138.266 110.268C137.992 110.082 137.669 109.983 137.339 109.983C136.994 109.984 136.658 110.094 136.378 110.297L129.955 105.246C130.271 104.657 130.419 103.99 130.383 103.32C130.348 102.65 130.129 102.003 129.752 101.451L133.673 96.3677C134.045 96.5118 134.456 96.5158 134.831 96.3792C135.206 96.2425 135.52 95.9742 135.716 95.6231C135.912 95.272 135.976 94.8615 135.898 94.4664C135.819 94.0713 135.603 93.7178 135.288 93.4704C134.974 93.223 134.582 93.098 134.183 93.1184C133.785 93.1387 133.408 93.303 133.119 93.5812C132.831 93.8594 132.651 94.2331 132.612 94.6343C132.573 95.0354 132.678 95.4372 132.908 95.7665L129.085 100.721C128.435 100.167 127.612 99.8641 126.762 99.8657" stroke="#EC1F26" stroke-opacity="0.28" stroke-width="0.5" stroke-linecap="round" stroke-linejoin="round"/>
<path d="M87.8097 111.133C107.191 111.133 122.902 95.2501 122.902 75.6574C122.902 56.0647 107.191 40.1818 87.8097 40.1818C68.4287 40.1818 52.7173 56.0647 52.7173 75.6574C52.7173 95.2501 68.4287 111.133 87.8097 111.133Z" fill="#CCD1FF"/>
<path d="M69.0994 40.9216C69.0994 40.9216 64.4277 37.7732 59.1604 37.907C53.893 38.0408 51.9192 43.5073 51.635 45.0855C51.3508 46.6637 51.7791 47.5256 48.6529 47.5256C45.5268 47.5256 38.998 46.951 36.4442 50.3947C33.8903 53.8383 33.6022 57.7189 35.8758 60.159C38.1493 62.599 38.9902 63.6026 38.9902 63.6026C38.9902 63.6026 36.5765 65.8971 37.7133 69.0574C38.8501 72.2177 42.9651 73.6503 45.663 73.6503C48.3609 73.6503 52.4798 69.7737 53.6166 67.4792C54.7534 65.1847 58.0197 65.9049 60.5736 62.3117C63.1274 58.7185 61.8505 54.2713 61.4262 51.8312C61.0018 49.3911 61.5663 44.3535 64.9767 43.0744C68.387 41.7954 68.9515 41.7835 68.9515 41.7835L69.0994 40.9216Z" fill="#05143A" stroke="#05143A" stroke-width="0.5" stroke-linecap="round" stroke-linejoin="round"/>
<path d="M29.4872 110.826L39.7105 92.309C40.0454 89.1378 40.7109 86.0114 41.6959 82.9816C43.4011 77.5268 45.3866 68.7701 47.8003 65.7554C50.214 62.7407 58.3117 60.0133 58.3117 60.0133C58.3117 60.0133 66.1212 63.457 68.2546 65.0391C70.3881 66.6212 73.9308 69.3447 75.0676 71.7848C76.2043 74.2249 77.1971 80.1086 79.0424 82.2614C80.8877 84.4142 85.0066 88.7237 84.882 92.7419C84.7575 96.7602 84.0295 98.3384 84.0295 99.3459C84.0295 100.353 82.044 99.1334 78.3533 99.5624C74.6627 99.9914 72.0348 101.219 71.7351 101.648C71.4353 102.077 64.2759 113.699 64.2759 113.699" fill="white"/>
<path d="M29.4872 110.826L39.7105 92.309C40.0454 89.1379 40.7109 86.0114 41.6959 82.9816C43.4011 77.5268 45.3866 68.7701 47.8003 65.7554C50.214 62.7407 58.3117 60.0133 58.3117 60.0133C58.3117 60.0133 66.1212 63.457 68.2546 65.0391C70.388 66.6212 73.9308 69.3447 75.0676 71.7848C76.2043 74.2249 77.1971 80.1086 79.0424 82.2614C80.8877 84.4142 85.0066 88.7237 84.8821 92.7419C84.7575 96.7602 84.0295 98.3384 84.0295 99.3459C84.0295 100.353 82.044 99.1334 78.3533 99.5624C74.6627 99.9914 72.0348 101.219 71.7351 101.648C71.4353 102.077 64.2759 113.699 64.2759 113.699" stroke="#05143A" stroke-width="0.5" stroke-linecap="round" stroke-linejoin="round"/>
<path d="M75.3556 78.2431C75.3556 78.2431 76.7766 86.2836 77.0608 88.2908C77.345 90.2979 73.3702 98.484 72.3891 99.3459" stroke="#05143A" stroke-width="0.5" stroke-linecap="round" stroke-linejoin="round"/>
<path d="M72.0815 78.2431C72.0815 78.2431 71.7973 84.9888 72.2256 88.2908C72.6538 91.5927 73.5025 95.7684 72.7939 97.0475" stroke="#05143A" stroke-width="0.5" stroke-linecap="round" stroke-linejoin="round"/>
<path d="M76.6248 90.4435C76.6248 90.4435 79.0385 88.4363 82.1646 89.2943" stroke="#05143A" stroke-width="0.5" stroke-linecap="round" stroke-linejoin="round"/>
<path d="M77.9057 88.7237C77.9057 88.7237 79.751 87.5745 81.4523 87.5745" stroke="#05143A" stroke-width="0.5" stroke-linecap="round" stroke-linejoin="round"/>
<path d="M72.3657 67.0463L73.6427 69.632L75.1999 76.9522L72.9263 72.9339L71.7973 77.8141L70.3802 68.9117C70.3802 68.9117 70.9486 65.8971 72.3657 67.0463Z" fill="white" stroke="#05143A" stroke-width="0.5" stroke-linecap="round" stroke-linejoin="round"/>
<path d="M66.6857 53.8423C66.6857 53.8423 64.9844 55.4165 63.7036 55.9951C62.4228 56.5736 60.8655 57.1443 60.8655 57.1443L68.6751 72.934L71.7896 77.8141C71.7896 77.8141 71.6494 73.6503 71.6494 72.2138C71.6313 71.203 71.5362 70.1951 71.3652 69.1991L75.0559 64.6062C75.0559 64.6062 76.1927 53.98 75.1999 52.2641C74.2072 50.5482 68.531 51.9768 66.6857 53.8423Z" fill="white" stroke="#05143A" stroke-width="0.5" stroke-linecap="round" stroke-linejoin="round"/>
<path d="M75.4102 60.6037L72.685 58.1439C72.685 58.1439 72.0699 58.7342 71.6378 62.5597C71.4937 64.2882 71.8609 66.0211 72.6928 67.5382L75.0481 64.6062C75.0481 64.6062 75.2545 62.8273 75.4102 60.6037Z" fill="#05143A" stroke="#05143A" stroke-width="0.5" stroke-linecap="round" stroke-linejoin="round"/>
<path d="M92.6683 49.2691C92.6683 49.2691 91.66 54.2122 90.7957 55.814C89.9314 57.4158 88.7246 58.2895 88.6389 59.0137C88.3469 61.4656 88.3508 62.5006 87.6345 63.52C86.9182 64.5393 82.8849 67.0069 80.4401 67.5894C77.9952 68.1719 76.547 68.6087 75.8384 67.8806C75.1299 67.1525 72.5332 63.3743 72.5332 61.7765C72.5332 60.1786 72.1011 59.7378 72.5332 58.7224C72.9653 57.707 72.9614 55.0859 72.9614 55.0859C72.9614 55.0859 72.9614 53.7793 74.69 51.599C76.4185 49.4186 79.7237 48.844 82.1686 48.844C84.6135 48.844 84.8938 47.0966 87.4905 46.3725C90.0872 45.6483 91.9481 47.8168 92.6683 49.2691Z" fill="white" stroke="#05143A" stroke-width="0.5" stroke-linecap="round" stroke-linejoin="round"/>
<path d="M87.0116 57.9943C86.7079 58.506 86.2719 58.8051 86.0344 58.6595C85.797 58.5138 85.8476 57.9865 86.1512 57.4788C86.4549 56.9711 86.8909 56.672 87.1284 56.8137C87.3659 56.9553 87.3153 57.4867 87.0116 57.9943Z" fill="#05143A"/>
<path d="M86.3302 55.2001C86.3302 55.2001 88.1483 54.4405 89.0904 56.1525" stroke="#05143A" stroke-width="0.5" stroke-linecap="round" stroke-linejoin="round"/>
<path d="M87.6345 63.52C87.9952 62.8854 88.2367 62.1889 88.3469 61.4656C87.2296 60.8477 84.7692 59.3915 83.4611 57.8487C81.7365 55.814 78.2833 50.8709 78.2833 50.8709L77.6915 51.599L80.5685 56.3965C80.5685 56.3965 77.2633 59.1514 74.9625 59.1514C73.1717 59.1514 72.7746 58.4469 72.685 58.136C72.6462 58.3335 72.5902 58.5271 72.5176 58.7146C72.0855 59.73 72.5176 60.1668 72.5176 61.7686C72.5176 63.3704 75.1065 67.1447 75.8229 67.8727C76.5392 68.6008 77.9796 68.164 80.4245 67.5815C82.8694 66.999 86.9143 64.5353 87.6345 63.52Z" fill="#CCD1FF" stroke="#05143A" stroke-width="0.5" stroke-linecap="round" stroke-linejoin="round"/>
<path d="M77.1348 52.76C78.3938 52.0095 79.8452 51.6547 81.3043 51.7407C83.7491 51.8863 86.6261 52.9213 87.3464 51.599C88.0666 50.2766 88.2067 47.8168 90.3635 48.3993C92.5203 48.9818 92.8084 50.2884 92.8084 50.2884C92.8084 50.2884 97.2699 50.1428 97.702 47.6712C98.1341 45.1997 95.6854 41.2758 94.1048 40.9807C92.5242 40.6855 91.0837 40.3982 91.0837 40.3982C91.0837 40.3982 85.6334 34.727 79.1475 34.8883C72.6616 35.0497 69.8041 37.6433 68.2157 43.1768C66.6273 48.7102 67.3553 50.7371 66.0589 52.6222C64.7625 54.5074 64.0462 56.4044 67.2268 56.1131C70.4075 55.8219 72.5487 53.7872 74.1293 53.0591C75.0707 52.6258 76.1278 52.5206 77.1348 52.76Z" fill="#05143A" stroke="#05143A" stroke-width="0.5" stroke-linecap="round" stroke-linejoin="round"/>
<path d="M77.5669 53.7793C77.5669 53.7793 79.2915 51.599 77.7071 49.2691C76.1226 46.9392 71.5248 51.4455 72.2412 53.9249C72.9575 56.4044 74.8301 56.1052 74.8301 56.1052" fill="white"/>
<path d="M77.5669 53.7793C77.5669 53.7793 79.2915 51.599 77.7071 49.2691C76.1226 46.9392 71.5248 51.4455 72.2412 53.9249C72.9575 56.4044 74.8301 56.1053 74.8301 56.1053" stroke="#05143A" stroke-width="0.5" stroke-linecap="round" stroke-linejoin="round"/>
<path d="M62.0023 55.2788L70.6644 73.0756L67.6823 77.9558L57.1749 59.5843L62.0023 55.2788Z" fill="white" stroke="#05143A" stroke-width="0.5" stroke-linecap="round" stroke-linejoin="round"/>
<path d="M72.5098 100.043C72.5098 100.043 72.3152 96.6106 76.6443 96.2643C80.9734 95.918 84.3254 97.811 84.52 100.731C84.7147 103.651 75.8579 101.762 74.8729 101.762C73.888 101.762 72.5098 100.043 72.5098 100.043Z" fill="white" stroke="#05143A" stroke-width="0.5" stroke-linecap="round" stroke-linejoin="round"/>
<path d="M120.928 109.272H63.2792V112.55H120.784" fill="white"/>
<path d="M120.928 109.272H63.2792V112.55H120.784" stroke="#05143A" stroke-width="0.5" stroke-linecap="round" stroke-linejoin="round"/>
<path d="M100.482 74.3665L85.431 80.6832V104.226H91.1111V82.1197L101.619 76.236L100.482 74.3665Z" fill="white" stroke="#05143A" stroke-width="0.5" stroke-linecap="round" stroke-linejoin="round"/>
<path d="M108.326 96.7799C108.223 96.7334 108.136 96.6578 108.074 96.5621C108.013 96.4664 107.98 96.3548 107.98 96.2407C107.98 96.1266 108.013 96.015 108.074 95.9193C108.136 95.8236 108.223 95.748 108.326 95.7015C108.326 95.6237 108.311 95.5466 108.281 95.4747C108.252 95.4028 108.208 95.3376 108.154 95.2827C108.099 95.2278 108.034 95.1844 107.963 95.155C107.892 95.1256 107.815 95.1107 107.738 95.1112H102.736C102.749 95.7214 102.539 96.3152 102.148 96.7799C102.148 96.8934 102.181 97.0045 102.243 97.0995C102.304 97.1945 102.392 97.2694 102.494 97.3151C102.597 97.5897 102.62 97.8887 102.558 98.1758C102.497 98.4629 102.354 98.7258 102.148 98.9327C102.148 99.0462 102.181 99.1572 102.243 99.2523C102.304 99.3473 102.392 99.4222 102.494 99.4679C102.373 99.5246 102.275 99.6213 102.215 99.742C102.156 99.8627 102.139 100 102.167 100.132C102.195 100.264 102.267 100.382 102.37 100.468C102.473 100.553 102.602 100.6 102.736 100.601H107.738C107.872 100.6 108.001 100.553 108.104 100.468C108.208 100.382 108.279 100.264 108.307 100.132C108.335 100 108.318 99.8627 108.259 99.742C108.199 99.6213 108.101 99.5246 107.98 99.4679C108.083 99.423 108.171 99.3483 108.233 99.2531C108.294 99.1579 108.327 99.0464 108.326 98.9327C108.223 98.8862 108.136 98.8106 108.074 98.7149C108.013 98.6192 107.98 98.5076 107.98 98.3935C107.98 98.2794 108.013 98.1678 108.074 98.0721C108.136 97.9764 108.223 97.9008 108.326 97.8543C108.326 97.7402 108.293 97.6285 108.232 97.5329C108.17 97.4372 108.083 97.3615 107.98 97.3151C108.083 97.2702 108.171 97.1955 108.233 97.1003C108.294 97.0051 108.327 96.8937 108.326 96.7799Z" fill="#05143A" stroke="#05143A" stroke-width="0.5" stroke-linecap="round" stroke-linejoin="round"/>
<path d="M112.905 100.491H85.322V106.198H112.905V100.491Z" fill="white" stroke="#05143A" stroke-width="0.5" stroke-linecap="round" stroke-linejoin="round"/>
<path d="M112.905 103.183H85.322V106.198H112.905V103.183Z" fill="#05143A" stroke="#05143A" stroke-width="0.5" stroke-linecap="round" stroke-linejoin="round"/>
<path d="M90.4336 106.092H87.1323V109.212H90.4336V106.092Z" fill="#05143A" stroke="#05143A" stroke-width="0.5" stroke-linecap="round" stroke-linejoin="round"/>
<path d="M100.447 106.092H97.1453V109.212H100.447V106.092Z" fill="#05143A" stroke="#05143A" stroke-width="0.5" stroke-linecap="round" stroke-linejoin="round"/>
<path d="M110.456 106.092H107.154V109.212H110.456V106.092Z" fill="#05143A" stroke="#05143A" stroke-width="0.5" stroke-linecap="round" stroke-linejoin="round"/>
<path d="M113.438 89.5108H88.9424V90.8017H113.438V89.5108Z" fill="white" stroke="#05143A" stroke-width="0.5" stroke-linecap="round" stroke-linejoin="round"/>
<path d="M112.052 90.6954H91.0721V92.6317H112.052V90.6954Z" fill="#05143A" stroke="#05143A" stroke-width="0.5" stroke-linecap="round" stroke-linejoin="round"/>
<path d="M90.1487 57.6542L87.8474 60.1932L102.294 73.5753L104.595 71.0363L90.1487 57.6542Z" fill="#05143A" stroke="#05143A" stroke-width="0.5" stroke-linecap="round" stroke-linejoin="round"/>
<path d="M104.472 78.1447H101.774V85.1776H104.472V78.1447Z" fill="#05143A" stroke="#05143A" stroke-width="0.5" stroke-linecap="round" stroke-linejoin="round"/>
<path d="M104.18 85.2761H102.086V86.4528H104.18V85.2761Z" fill="#05143A" stroke="#05143A" stroke-width="0.5" stroke-linecap="round" stroke-linejoin="round"/>
<path d="M106.954 76.0026L104.484 77.1006L107.285 83.5384L109.755 82.4404L106.954 76.0026Z" fill="#05143A" stroke="#05143A" stroke-width="0.5" stroke-linecap="round" stroke-linejoin="round"/>
<path d="M109.525 82.6481L107.608 83.5005L108.076 84.5777L109.994 83.7252L109.525 82.6481Z" fill="#05143A" stroke="#05143A" stroke-width="0.5" stroke-linecap="round" stroke-linejoin="round"/>
<path d="M102.467 68.7701L99.629 71.6392V79.8213L108.716 77.5268V72.0721L102.467 68.7701Z" fill="white" stroke="#05143A" stroke-width="0.5" stroke-linecap="round" stroke-linejoin="round"/>
<path d="M108.716 75.3937L99.629 77.7669V79.8213L108.716 77.5268V75.3937Z" fill="#05143A" stroke="#05143A" stroke-width="0.5" stroke-linecap="round" stroke-linejoin="round"/>
<path d="M84.3099 98.484C84.3099 98.484 88.5689 95.611 89.4215 94.6074C90.2741 93.6038 93.3963 89.5816 94.2489 89.44C95.1015 89.2983 98.0836 89.2943 98.652 89.2943C99.2204 89.2943 101.066 91.0181 101.49 91.3054C101.914 91.5927 102.058 92.8797 101.634 93.0292C101.21 93.1788 98.9362 92.0217 98.9362 92.0217L95.1015 92.7419C95.1015 92.7419 100.922 94.1784 101.35 94.4618C101.778 94.7452 101.634 96.1856 101.634 96.1856L99.929 97.0475C99.929 97.0475 101.634 96.9058 101.634 97.9094C101.634 98.913 101.634 99.9166 100.922 99.9166H100.213C100.213 99.9166 101.77 101.491 101.35 101.928C100.844 102.392 100.184 102.648 99.5007 102.644C98.7922 102.644 97.087 103.506 95.1015 104.218C93.116 104.931 90.13 106.225 88.5689 106.513C87.0078 106.8 84.7342 107.087 84.7342 107.087C84.7342 107.087 84.5941 103.356 84.3099 102.207C84.0257 101.058 83.4573 98.9051 83.4573 98.9051L84.3099 98.484Z" fill="white" stroke="#05143A" stroke-width="0.5" stroke-linecap="round" stroke-linejoin="round"/>
<path d="M99.9133 97.0475L96.9001 97.5985" stroke="#05143A" stroke-width="0.5" stroke-linecap="round" stroke-linejoin="round"/>
<path d="M100.197 99.9166L97.2231 100.534" stroke="#05143A" stroke-width="0.5" stroke-linecap="round" stroke-linejoin="round"/>
<path d="M49.5055 68.9118C47.6601 71.7848 45.5306 78.3887 45.5306 81.6868C45.5306 84.9848 42.8327 97.6221 42.5485 102.215C42.2643 106.808 42.4084 109.693 45.2464 110.251C48.0845 110.81 57.0308 111.546 61.0057 111.113C64.9805 110.68 69.5277 110.684 75.7761 110.684C82.0245 110.684 85.0027 110.251 85.0027 110.251C85.4084 108.213 85.697 106.153 85.867 104.08C86.011 101.499 85.0144 97.6221 84.59 97.6221C84.1657 97.6221 77.3489 98.7713 71.5248 99.4876C65.7007 100.204 62.8666 99.2003 61.8699 98.7713C61.4264 98.5439 60.9467 98.3974 60.4529 98.3384V96.4729L58.7477 96.3312L60.3049 86.2836C60.3049 86.2836 61.5819 85.4217 62.0101 84.4142C62.4383 83.4066 63.0028 78.2431 62.7186 75.0867C62.4344 71.9304 59.4523 70.061 59.4523 70.061" fill="white"/>
<path d="M49.5055 68.9118C47.6601 71.7848 45.5306 78.3887 45.5306 81.6868C45.5306 84.9848 42.8327 97.6221 42.5485 102.215C42.2643 106.808 42.4084 109.693 45.2464 110.251C48.0845 110.81 57.0308 111.546 61.0057 111.113C64.9805 110.68 69.5277 110.684 75.7761 110.684C82.0245 110.684 85.0027 110.251 85.0027 110.251C85.4084 108.213 85.697 106.153 85.867 104.08C86.011 101.499 85.0144 97.6221 84.59 97.6221C84.1657 97.6221 77.3489 98.7713 71.5248 99.4876C65.7007 100.204 62.8666 99.2003 61.8699 98.7713C61.4264 98.5439 60.9467 98.3974 60.4529 98.3384V96.4729L58.7477 96.3312L60.3049 86.2836C60.3049 86.2836 61.5819 85.4217 62.0101 84.4142C62.4383 83.4066 63.0028 78.2431 62.7186 75.0867C62.4344 71.9304 59.4523 70.061 59.4523 70.061" stroke="#05143A" stroke-width="0.5" stroke-linecap="round" stroke-linejoin="round"/>
<path d="M58.4518 97.4922C58.4518 97.4922 57.315 99.5033 53.056 101.227" stroke="#05143A" stroke-width="0.5" stroke-linecap="round" stroke-linejoin="round"/>
<path d="M58.8762 99.0665C58.8762 99.0665 52.4876 103.947 51.0667 105.812" stroke="#05143A" stroke-width="0.5" stroke-linecap="round" stroke-linejoin="round"/>
<path d="M45.8148 100.924C45.8148 100.924 51.2107 100.778 55.0454 98.3384" stroke="#05143A" stroke-width="0.5" stroke-linecap="round" stroke-linejoin="round"/>
<path d="M59.5886 85.709C59.5886 85.709 58.3078 83.6979 55.0453 81.8324" stroke="#05143A" stroke-width="0.5" stroke-linecap="round" stroke-linejoin="round"/>
</g>
<defs>
<clipPath id="clip0_1_855">
<rect width="150" height="146" fill="white"/>
</clipPath>
</defs>
</svg>
