<svg width="24" height="24" viewBox="0 0 24 24" fill="none" xmlns="http://www.w3.org/2000/svg">
<path d="M4.80953 11.2483L10.5287 5.52908C10.8214 5.23645 10.8214 4.76113 10.5287 4.4685C10.2361 4.17587 9.76079 4.17587 9.46816 4.4685L9.64318 4.64351L9.46816 4.4685L2.46816 11.4685C2.39915 11.5375 2.34354 11.6203 2.30576 11.7134C2.22969 11.8965 2.22978 12.1028 2.30604 12.2858C2.34317 12.3761 2.39815 12.46 2.46816 12.5301L9.46816 19.5301L9.46907 19.531C9.61533 19.6757 9.80716 19.7493 9.99894 19.7493C10.1896 19.7493 10.3823 19.6775 10.5297 19.5301C10.8224 19.2374 10.8224 18.7621 10.5297 18.4695L4.8105 12.7503H20.9999C21.414 12.7503 21.7499 12.4143 21.7499 12.0003C21.7499 11.5858 21.414 11.2513 21.0017 11.2483H20.9999H4.80953Z" fill="#CCD1FF" stroke="#CCD1FF" stroke-width="0.5"/>
</svg>
