<svg width="20" height="16" viewBox="0 0 20 16" fill="none" xmlns="http://www.w3.org/2000/svg">
<path d="M19.0209 6.26709C17.7339 4.11309 14.8519 0.5 9.99989 0.5C5.14789 0.5 2.26589 4.11309 0.978893 6.26709C0.338893 7.33609 0.338916 8.66389 0.977916 9.73389C2.26492 11.8879 5.14691 15.501 9.99891 15.501C14.8509 15.501 17.7329 11.8879 19.0199 9.73389C19.6599 8.66389 19.6599 7.33609 19.0209 6.26709ZM18.163 9.22095C18.162 9.22095 18.162 9.22095 18.163 9.22095C16.985 11.1929 14.3579 14.5 9.99989 14.5C5.64189 14.5 3.0148 11.1919 1.8368 9.22095C1.3878 8.46795 1.38778 7.53303 1.83778 6.78003C3.01478 4.80803 5.64189 1.50098 9.99989 1.50098C14.3579 1.50098 16.985 4.80903 18.163 6.78003C18.612 7.53203 18.612 8.46795 18.163 9.22095ZM9.99989 4C7.79389 4 5.99989 5.794 5.99989 8C5.99989 10.206 7.79389 12 9.99989 12C12.2059 12 13.9999 10.206 13.9999 8C13.9999 5.794 12.2059 4 9.99989 4ZM9.99989 11C8.34589 11 6.99989 9.654 6.99989 8C6.99989 6.346 8.34589 5 9.99989 5C11.6539 5 12.9999 6.346 12.9999 8C12.9999 9.654 11.6539 11 9.99989 11Z" fill="#CCD1FF"/>
</svg>
