<svg width="20" height="20" viewBox="0 0 20 20" fill="none" xmlns="http://www.w3.org/2000/svg">
<path d="M18.049 6.33287L11.928 1.20091C10.811 0.26391 9.19 0.26491 8.073 1.20091L1.95203 6.33287C1.02503 7.10187 0.500977 7.63489 0.500977 9.64989V15.9999C0.500977 18.2899 1.71098 19.4999 4.00098 19.4999H8.00098V14.4999C8.00098 13.3969 8.89798 12.4999 10.001 12.4999C11.104 12.4999 12.001 13.3969 12.001 14.4999V19.4999H16.001C18.291 19.4999 19.501 18.2899 19.501 15.9999V9.64989C19.5 7.63589 18.976 7.10287 18.049 6.33287ZM18.5 15.9999C18.5 17.7289 17.729 18.4999 16 18.4999H13V14.4999C13 12.8459 11.654 11.4999 10 11.4999C8.346 11.4999 7 12.8459 7 14.4999V18.4999H4C2.271 18.4999 1.5 17.7289 1.5 15.9999V9.64989C1.5 8.00689 1.81897 7.74189 2.58997 7.10289L8.71497 1.96788C9.45897 1.34288 10.541 1.34388 11.285 1.96788L17.41 7.10289C18.181 7.74289 18.5 8.00689 18.5 9.64989V15.9999V15.9999Z" fill="white"/>
</svg>
