<svg width="24" height="24" viewBox="0 0 24 24" fill="none" xmlns="http://www.w3.org/2000/svg">
<path d="M20.049 8.33287L13.928 3.20091C12.811 2.26391 11.19 2.26491 10.073 3.20091L3.95203 8.33287C3.02503 9.10187 2.50098 9.63488 2.50098 11.6499V17.9999C2.50098 20.2899 3.71098 21.4999 6.00098 21.4999H10.001V16.4999C10.001 15.3969 10.898 14.4999 12.001 14.4999C13.104 14.4999 14.001 15.3969 14.001 16.4999V21.4999H18.001C20.291 21.4999 21.501 20.2899 21.501 17.9999V11.6499C21.5 9.63589 20.976 9.10287 20.049 8.33287ZM20.5 17.9999C20.5 19.7289 19.729 20.4999 18 20.4999H15V16.4999C15 14.8459 13.654 13.4999 12 13.4999C10.346 13.4999 9 14.8459 9 16.4999V20.4999H6C4.271 20.4999 3.5 19.7289 3.5 17.9999V11.6499C3.5 10.0069 3.81897 9.74189 4.58997 9.10289L10.715 3.96788C11.459 3.34288 12.541 3.34388 13.285 3.96788L19.41 9.10289C20.181 9.74289 20.5 10.0069 20.5 11.6499V17.9999Z" fill="#25314C"/>
</svg>
