<svg width="18" height="18" viewBox="0 0 18 18" fill="none" xmlns="http://www.w3.org/2000/svg">
<path d="M16.3125 4.5V13.5C16.3125 15.3135 15.3135 16.3125 13.5 16.3125H9C7.1865 16.3125 6.1875 15.3135 6.1875 13.5V12.75C6.1875 12.4395 6.4395 12.1875 6.75 12.1875C7.0605 12.1875 7.3125 12.4395 7.3125 12.75V13.5C7.3125 14.6828 7.81725 15.1875 9 15.1875H13.5C14.6828 15.1875 15.1875 14.6828 15.1875 13.5V4.5C15.1875 3.31725 14.6828 2.8125 13.5 2.8125H9C7.81725 2.8125 7.3125 3.31725 7.3125 4.5V5.25C7.3125 5.5605 7.0605 5.8125 6.75 5.8125C6.4395 5.8125 6.1875 5.5605 6.1875 5.25V4.5C6.1875 2.6865 7.1865 1.6875 9 1.6875H13.5C15.3135 1.6875 16.3125 2.6865 16.3125 4.5ZM9.35248 10.8525C9.13273 11.0723 9.13273 11.4285 9.35248 11.6483C9.46198 11.7578 9.606 11.8133 9.75 11.8133C9.894 11.8133 10.038 11.7585 10.1475 11.6483L12.3975 9.39825C12.4493 9.3465 12.4905 9.28424 12.519 9.21524C12.576 9.07799 12.576 8.92274 12.519 8.78549C12.4905 8.71649 12.4493 8.65425 12.3975 8.6025L10.1475 6.3525C9.92777 6.13275 9.5715 6.13275 9.35175 6.3525C9.132 6.57225 9.132 6.9285 9.35175 7.14825L10.6418 8.43826H2.25C1.9395 8.43826 1.6875 8.69026 1.6875 9.00076C1.6875 9.31126 1.9395 9.56326 2.25 9.56326H10.6418L9.35248 10.8525Z" fill="#EC1F26"/>
</svg>
