<svg width="22" height="20" viewBox="0 0 22 20" fill="none" xmlns="http://www.w3.org/2000/svg">
<path d="M8.00903 8.5C10.215 8.5 12.009 6.706 12.009 4.5C12.009 2.294 10.215 0.5 8.00903 0.5C5.80303 0.5 4.00903 2.294 4.00903 4.5C4.00903 6.706 5.80303 8.5 8.00903 8.5ZM8.00903 1.5C9.66303 1.5 11.009 2.846 11.009 4.5C11.009 6.154 9.66303 7.5 8.00903 7.5C6.35503 7.5 5.00903 6.154 5.00903 4.5C5.00903 2.846 6.35403 1.5 8.00903 1.5ZM10 10.5H6C1.94 10.5 0.5 13.473 0.5 16.019C0.5 18.296 1.71105 19.5 4.00305 19.5H11.9969C14.2889 19.5 15.5 18.296 15.5 16.019C15.5 13.473 14.06 10.5 10 10.5ZM11.9969 18.5H4.00305C2.27205 18.5 1.5 17.735 1.5 16.019C1.5 14.959 1.824 11.5 6 11.5H10C14.283 11.5 14.5 15.264 14.5 16.019C14.5 17.735 13.7289 18.5 11.9969 18.5ZM13.33 8.03796C13.133 7.84496 13.129 7.52805 13.322 7.33105C13.514 7.13405 13.8331 7.13 14.0291 7.323C14.4351 7.721 14.979 7.93994 15.559 7.93994C16.784 7.93994 17.78 6.94397 17.78 5.71997C17.78 4.49597 16.784 3.5 15.559 3.5C15.211 3.5 14.895 3.57197 14.618 3.71497C14.374 3.84097 14.0709 3.74502 13.9449 3.49902C13.8179 3.25302 13.915 2.95205 14.161 2.82605C14.581 2.61005 15.052 2.50098 15.559 2.50098C17.335 2.50098 18.78 3.94595 18.78 5.72095C18.78 7.49595 17.336 8.94104 15.559 8.94104C14.716 8.94004 13.924 8.61996 13.33 8.03796ZM21.5 14.6801C21.5 16.4981 20.491 17.5 18.66 17.5H17.98C17.704 17.5 17.48 17.276 17.48 17C17.48 16.724 17.704 16.5 17.98 16.5H18.66C19.932 16.5 20.5 15.9391 20.5 14.6801C20.5 13.8821 20.256 11.28 17.11 11.28H15.599C15.323 11.28 15.099 11.056 15.099 10.78C15.099 10.504 15.323 10.28 15.599 10.28H17.11C20.351 10.28 21.5 12.6501 21.5 14.6801Z" fill="white"/>
</svg>
